SplineFontDB: 3.2
FontName: cardian-icons
FullName: cardian-icons
FamilyName: cardian-icons
Weight: Regular
Copyright: Copyright (c) 2022, root
UComments: "2022-11-2: Created with FontForge (http://fontforge.org)"
Version: 001.000
ItalicAngle: 0
UnderlinePosition: -100
UnderlineWidth: 50
Ascent: 20
Descent: 4
InvalidEm: 0
LayerCount: 2
Layer: 0 0 "Back" 1
Layer: 1 0 "Fore" 0
XUID: [1021 10 -1365979572 12703817]
OS2Version: 0
OS2_WeightWidthSlopeOnly: 0
OS2_UseTypoMetrics: 1
CreationTime: 1667360810
ModificationTime: 1671211391
OS2TypoAscent: 0
OS2TypoAOffset: 1
OS2TypoDescent: 0
OS2TypoDOffset: 1
OS2TypoLinegap: 0
OS2WinAscent: 0
OS2WinAOffset: 1
OS2WinDescent: 0
OS2WinDOffset: 1
HheadAscent: 0
HheadAOffset: 1
HheadDescent: 0
HheadDOffset: 1
OS2Vendor: 'PfEd'
DEI: 91125
Encoding: ISO8859-1
UnicodeInterp: none
NameList: AGL For New Fonts
DisplaySize: -48
AntiAlias: 1
FitToEm: 0
WinInfo: 324 18 5
BeginChars: 445 202

StartChar: plus
Encoding: 43 43 0
Width: 24
Flags: HW
LayerCount: 2
Fore
SplineSet
19 7 m 1
 13 7 l 1
 13 1 l 1
 11 1 l 1
 11 7 l 1
 5 7 l 1
 5 9 l 1
 11 9 l 1
 11 15 l 1
 13 15 l 1
 13 9 l 1
 19 9 l 1
 19 7 l 1
EndSplineSet
EndChar

StartChar: 0
Encoding: 48 48 1
Width: 24
Flags: HW
LayerCount: 2
Fore
SplineSet
11 13 m 2
 13 13 l 2
 14.103515625 13 15 12.103515625 15 11 c 2
 15 5 l 2
 15 3.896484375 14.103515625 3 13 3 c 2
 11 3 l 2
 9.896484375 3 9 3.896484375 9 5 c 2
 9 11 l 2
 9 12.103515625 9.896484375 13 11 13 c 2
11 11 m 1
 11 5 l 1
 13 5 l 1
 13 11 l 1
 11 11 l 1
EndSplineSet
EndChar

StartChar: 1
Encoding: 49 49 2
Width: 24
Flags: HW
LayerCount: 2
Fore
SplineSet
10 13 m 1
 14 13 l 1
 14 3 l 1
 12 3 l 1
 12 11 l 1
 10 11 l 1
 10 13 l 1
EndSplineSet
EndChar

StartChar: 2
Encoding: 50 50 3
Width: 24
Flags: HW
LayerCount: 2
Fore
SplineSet
9 13 m 1
 13 13 l 2
 14.103515625 13 15 12.103515625 15 11 c 2
 15 9 l 2
 15 7.896484375 14.103515625 7 13 7 c 2
 11 7 l 1
 11 5 l 1
 15 5 l 1
 15 3 l 1
 9 3 l 1
 9 7 l 2
 9 8.103515625 9.896484375 9 11 9 c 2
 13 9 l 1
 13 11 l 1
 9 11 l 1
 9 13 l 1
EndSplineSet
EndChar

StartChar: 3
Encoding: 51 51 4
Width: 24
Flags: HW
LayerCount: 2
Fore
SplineSet
15 5 m 2
 15 3.896484375 14.103515625 3 13 3 c 2
 9 3 l 1
 9 5 l 1
 13 5 l 1
 13 7 l 1
 11 7 l 1
 11 9 l 1
 13 9 l 1
 13 11 l 1
 9 11 l 1
 9 13 l 1
 13 13 l 2
 14.103515625 13 15 12.103515625 15 11 c 2
 15 9.5 l 2
 15 8.7001953125 14.2998046875 8 13.5 8 c 1
 14.2998046875 8 15 7.2998046875 15 6.5 c 2
 15 5 l 2
EndSplineSet
EndChar

StartChar: 4
Encoding: 52 52 5
Width: 24
Flags: HW
LayerCount: 2
Fore
SplineSet
9 13 m 1
 11 13 l 1
 11 9 l 1
 13 9 l 1
 13 13 l 1
 15 13 l 1
 15 3 l 1
 13 3 l 1
 13 7 l 1
 9 7 l 1
 9 13 l 1
EndSplineSet
EndChar

StartChar: 5
Encoding: 53 53 6
Width: 24
Flags: HW
LayerCount: 2
Fore
SplineSet
9 13 m 1
 15 13 l 1
 15 11 l 1
 11 11 l 1
 11 9 l 1
 13 9 l 2
 14.103515625 9 15 8.103515625 15 7 c 2
 15 5 l 2
 15 3.896484375 14.103515625 3 13 3 c 2
 9 3 l 1
 9 5 l 1
 13 5 l 1
 13 7 l 1
 9 7 l 1
 9 13 l 1
EndSplineSet
EndChar

StartChar: 6
Encoding: 54 54 7
Width: 24
Flags: HW
LayerCount: 2
Fore
SplineSet
11 13 m 2
 15 13 l 1
 15 11 l 1
 11 11 l 1
 11 9 l 1
 13 9 l 2
 14.103515625 9 15 8.103515625 15 7 c 2
 15 5 l 2
 15 3.896484375 14.103515625 3 13 3 c 2
 11 3 l 2
 9.896484375 3 9 3.896484375 9 5 c 2
 9 11 l 2
 9 12.103515625 9.896484375 13 11 13 c 2
11 7 m 1
 11 5 l 1
 13 5 l 1
 13 7 l 1
 11 7 l 1
EndSplineSet
EndChar

StartChar: 7
Encoding: 55 55 8
Width: 24
Flags: HW
LayerCount: 2
Fore
SplineSet
11 3 m 1
 9 3 l 1
 13 11 l 1
 9 11 l 1
 9 13 l 1
 15 13 l 1
 15 11 l 1
 11 3 l 1
EndSplineSet
EndChar

StartChar: 8
Encoding: 56 56 9
Width: 24
Flags: HW
LayerCount: 2
Fore
SplineSet
11 3 m 2
 9.896484375 3 9 3.896484375 9 5 c 2
 9 6.5 l 2
 9 7.2998046875 9.7001953125 8 10.5 8 c 1
 9.7001953125 8 9 8.7001953125 9 9.5 c 2
 9 11 l 2
 9 12.099609375 9.900390625 13 11 13 c 2
 13 13 l 2
 14.103515625 13 15 12.103515625 15 11 c 2
 15 9.5 l 2
 15 8.7001953125 14.2998046875 8 13.5 8 c 1
 14.2998046875 8 15 7.2998046875 15 6.5 c 2
 15 5 l 2
 15 3.896484375 14.103515625 3 13 3 c 2
 11 3 l 2
11 11 m 1
 11 9 l 1
 13 9 l 1
 13 11 l 1
 11 11 l 1
11 7 m 1
 11 5 l 1
 13 5 l 1
 13 7 l 1
 11 7 l 1
EndSplineSet
EndChar

StartChar: 9
Encoding: 57 57 10
Width: 24
Flags: HW
LayerCount: 2
Fore
SplineSet
13 3 m 2
 9 3 l 1
 9 5 l 1
 13 5 l 1
 13 7 l 1
 11 7 l 2
 9.896484375 7 9 7.896484375 9 9 c 2
 9 11 l 2
 9 12.103515625 9.896484375 13 11 13 c 2
 13 13 l 2
 14.103515625 13 15 12.103515625 15 11 c 2
 15 5 l 2
 15 3.896484375 14.103515625 3 13 3 c 2
13 9 m 1
 13 11 l 1
 11 11 l 1
 11 9 l 1
 13 9 l 1
EndSplineSet
EndChar

StartChar: at
Encoding: 64 64 11
Width: 24
Flags: HW
LayerCount: 2
Fore
SplineSet
12 5 m 0
 12.8095703125 5 13.5 5.2998046875 14.1103515625 5.8896484375 c 0
 14.6630859375 6.4228515625 15.0078125 7.171875 15.0078125 8 c 0
 15.0078125 8.828125 14.6630859375 9.5771484375 14.1103515625 10.1103515625 c 0
 13.5771484375 10.6630859375 12.828125 11.0078125 12 11.0078125 c 0
 11.171875 11.0078125 10.4228515625 10.6630859375 9.8896484375 10.1103515625 c 0
 9.3369140625 9.5771484375 8.9921875 8.828125 8.9921875 8 c 0
 8.9921875 7.171875 9.3369140625 6.4228515625 9.8896484375 5.8896484375 c 0
 10.5 5.2998046875 11.1904296875 5 12 5 c 0
12 18 m 0
 14.75 18 17.099609375 17 19.0498046875 15.0498046875 c 0
 20.8701171875 13.2978515625 22.0029296875 10.8369140625 22.0029296875 8.11328125 c 0
 22.0029296875 8.0751953125 22 8.0380859375 22 8 c 2
 22 6.5498046875 l 2
 22 5.5498046875 21.650390625 4.7001953125 21 4 c 0
 20.2998046875 3.330078125 19.5 3 18.5 3 c 0
 17.2998046875 3 16.3095703125 3.5 15.5595703125 4.5 c 1
 14.5595703125 3.5 13.3798828125 3 12 3 c 0
 10.6298828125 3 9.4501953125 3.5 8.4599609375 4.4599609375 c 0
 7.55859375 5.3505859375 6.9990234375 6.5869140625 6.9990234375 7.953125 c 0
 6.9990234375 7.96875 7 7.984375 7 8 c 0
 7 9.3701171875 7.5 10.5498046875 8.4599609375 11.5400390625 c 0
 9.353515625 12.4423828125 10.5927734375 13.0009765625 11.9619140625 13.0009765625 c 0
 11.974609375 13.0009765625 11.9873046875 13 12 13 c 0
 13.3798828125 13 14.5498046875 12.5 15.5400390625 11.5400390625 c 0
 16.4423828125 10.646484375 17.0009765625 9.4072265625 17.0009765625 8.0380859375 c 0
 17.0009765625 8.025390625 17 8.0126953125 17 8 c 2
 17 6.5498046875 l 2
 17 6.1396484375 17.16015625 5.7802734375 17.4599609375 5.4697265625 c 0
 17.7197265625 5.181640625 18.0966796875 5 18.515625 5 c 0
 18.93359375 5 19.3095703125 5.181640625 19.5703125 5.4697265625 c 0
 19.8701171875 5.7802734375 20 6.1396484375 20 6.5498046875 c 2
 20 8 l 2
 20 10.1904296875 19.23046875 12.0703125 17.650390625 13.650390625 c 0
 16.2509765625 15.1005859375 14.2880859375 16.0029296875 12.1162109375 16.0029296875 c 0
 12.076171875 16.0029296875 12.0390625 16.0009765625 12 16 c 0
 9.8095703125 16 7.9296875 15.23046875 6.349609375 13.650390625 c 0
 4.8994140625 12.2509765625 3.9970703125 10.2880859375 3.9970703125 8.1162109375 c 0
 3.9970703125 8.076171875 3.9990234375 8.0390625 4 8 c 0
 4 5.8095703125 4.76953125 3.9296875 6.349609375 2.349609375 c 0
 7.7490234375 0.8994140625 9.7119140625 -0.0029296875 11.8837890625 -0.0029296875 c 0
 11.923828125 -0.0029296875 11.9609375 -0.0009765625 12 0 c 2
 17 0 l 1
 17 -2 l 1
 12 -2 l 2
 9.25 -2 6.900390625 -1 4.9501953125 0.9501953125 c 0
 3.1298828125 2.7021484375 1.9970703125 5.1630859375 1.9970703125 7.88671875 c 0
 1.9970703125 7.9248046875 2 7.9619140625 2 8 c 0
 2 10.75 3 13.099609375 4.9501953125 15.0498046875 c 0
 6.7021484375 16.8701171875 9.1630859375 18.0029296875 11.88671875 18.0029296875 c 0
 11.9248046875 18.0029296875 11.9619140625 18 12 18 c 0
EndSplineSet
EndChar

StartChar: close
Encoding: 120 120 12
Width: 24
Flags: HW
LayerCount: 2
Fore
SplineSet
19 13.58984375 m 1
 13.41015625 8 l 1
 19 2.41015625 l 1
 17.58984375 1 l 1
 12 6.58984375 l 1
 6.41015625 1 l 1
 5 2.41015625 l 1
 10.58984375 8 l 1
 5 13.58984375 l 1
 6.41015625 15 l 1
 12 9.41015625 l 1
 17.58984375 15 l 1
 19 13.58984375 l 1
EndSplineSet
EndChar

StartChar: copyright
Encoding: 169 169 13
Width: 24
Flags: HW
LayerCount: 2
Fore
SplineSet
10.080078125 9.1396484375 m 0
 9.9599609375 8.150390625 9.8798828125 6.900390625 10.3798828125 6 c 0
 10.50390625 5.728515625 10.7109375 5.5048828125 10.9697265625 5.3603515625 c 0
 11.220703125 5.2138671875 11.513671875 5.1298828125 11.82421875 5.1298828125 c 0
 11.8359375 5.1298828125 11.84765625 5.1298828125 11.8603515625 5.1298828125 c 0
 12.2802734375 5.1298828125 12.669921875 5.26953125 13 5.5302734375 c 0
 13.1298828125 5.66015625 13.25 5.8095703125 13.33984375 6 c 0
 13.4296875 6.169921875 13.5 6.3603515625 13.5 6.5703125 c 1
 15.2802734375 6.5703125 l 1
 15.263671875 6.162109375 15.1640625 5.7705078125 15 5.419921875 c 0
 14.7998046875 5.0595703125 14.5498046875 4.75 14.240234375 4.5 c 0
 13.5732421875 3.9501953125 12.716796875 3.6171875 11.78515625 3.6171875 c 0
 10.6591796875 3.6171875 9.6455078125 4.1005859375 8.9404296875 4.8701171875 c 0
 8.330078125 5.7568359375 7.97265625 6.841796875 7.97265625 7.998046875 c 0
 7.97265625 9.1611328125 8.333984375 10.240234375 8.9501953125 11.1298828125 c 0
 10.1796875 12.650390625 12.8701171875 12.83984375 14.3203125 11.5 c 0
 14.6162109375 11.2236328125 14.849609375 10.8837890625 15 10.5 c 0
 15.181640625 10.103515625 15.2890625 9.6611328125 15.2998046875 9.2001953125 c 1
 13.5 9.2001953125 l 1
 13.5 9.6298828125 13.3095703125 10.0595703125 13.0302734375 10.3701171875 c 0
 12.740234375 10.66015625 12.330078125 10.8603515625 11.8798828125 10.8603515625 c 0
 11.1904296875 10.849609375 10.6796875 10.5595703125 10.3798828125 10 c 0
 10.240234375 9.759765625 10.1298828125 9.4697265625 10.080078125 9.1396484375 c 0
12 18 m 0
 17.5 18 22 13.5 22 8 c 0
 21.5 -5.259765625 2.5302734375 -5.26953125 2 8 c 0
 2 13.5 6.5 18 12 18 c 0
12 0 m 0
 16.41015625 0 20 3.58984375 20 8 c 0
 19.5595703125 18.6103515625 4.4404296875 18.6103515625 4 8 c 0
 4 3.58984375 7.58984375 0 12 0 c 0
EndSplineSet
EndChar

StartChar: window minimize
Encoding: 256 57344 14
Width: 24
Flags: HW
LayerCount: 2
Fore
SplineSet
20 6 m 1
 4 6 l 1
 4 10 l 1
 20 10 l 1
 20 6 l 1
EndSplineSet
EndChar

StartChar: window maximize
Encoding: 257 57345 15
Width: 24
Flags: HW
LayerCount: 2
Fore
SplineSet
4 16 m 1
 20 16 l 1
 20 0 l 1
 4 0 l 1
 4 16 l 1
6 12 m 1
 6 2 l 1
 18 2 l 1
 18 12 l 1
 6 12 l 1
EndSplineSet
EndChar

StartChar: window restore
Encoding: 258 57346 16
Width: 24
Flags: HW
LayerCount: 2
Fore
SplineSet
4 12 m 1
 8 12 l 1
 8 16 l 1
 20 16 l 1
 20 4 l 1
 16 4 l 1
 16 0 l 1
 4 0 l 1
 4 12 l 1
16 12 m 1
 16 6 l 1
 18 6 l 1
 18 14 l 1
 10 14 l 1
 10 12 l 1
 16 12 l 1
6 8 m 1
 6 2 l 1
 14 2 l 1
 14 8 l 1
 6 8 l 1
EndSplineSet
EndChar

StartChar: window close
Encoding: 259 57347 17
Width: 24
Flags: HW
LayerCount: 2
Fore
SplineSet
13.4599609375 8 m 1
 19 2.4599609375 l 1
 19 1 l 1
 17.5400390625 1 l 1
 12 6.5400390625 l 1
 6.4599609375 1 l 1
 5 1 l 1
 5 2.4599609375 l 1
 10.5400390625 8 l 1
 5 13.5400390625 l 1
 5 15 l 1
 6.4599609375 15 l 1
 12 9.4599609375 l 1
 17.5400390625 15 l 1
 19 15 l 1
 19 13.5400390625 l 1
 13.4599609375 8 l 1
EndSplineSet
EndChar

StartChar: minus
Encoding: 260 57348 18
Width: 24
Flags: HW
LayerCount: 2
Fore
SplineSet
19 7 m 1
 5 7 l 1
 5 9 l 1
 19 9 l 1
 19 7 l 1
EndSplineSet
EndChar

StartChar: plus thick
Encoding: 261 57349 19
Width: 24
Flags: HW
LayerCount: 2
Fore
SplineSet
20 6 m 1
 14 6 l 1
 14 0 l 1
 10 0 l 1
 10 6 l 1
 4 6 l 1
 4 10 l 1
 10 10 l 1
 10 16 l 1
 14 16 l 1
 14 10 l 1
 20 10 l 1
 20 6 l 1
EndSplineSet
EndChar

StartChar: check
Encoding: 262 57351 20
Width: 24
Flags: HW
LayerCount: 2
Fore
SplineSet
21 13 m 1
 9 1 l 1
 3.5 6.5 l 1
 4.91015625 7.91015625 l 1
 9 3.830078125 l 1
 19.58984375 14.41015625 l 1
 21 13 l 1
EndSplineSet
EndChar

StartChar: check bold
Encoding: 263 57352 21
Width: 24
Flags: HW
LayerCount: 2
Fore
SplineSet
9 -0.419921875 m 1
 2.7900390625 5.7900390625 l 1
 5.6201171875 8.6201171875 l 1
 9 5.23046875 l 1
 18.8798828125 15.1201171875 l 1
 21.7099609375 12.2900390625 l 1
 9 -0.419921875 l 1
EndSplineSet
EndChar

StartChar: check all
Encoding: 264 57353 22
Width: 24
Flags: HW
LayerCount: 2
Fore
SplineSet
0.41015625 6.58984375 m 1
 1.830078125 8 l 1
 7.41015625 2.419921875 l 1
 6 1 l 1
 0.41015625 6.58984375 l 1
22.240234375 14.419921875 m 1
 23.66015625 13 l 1
 11.66015625 1 l 1
 6.0703125 6.58984375 l 1
 7.5 8 l 1
 11.66015625 3.830078125 l 1
 22.240234375 14.419921875 l 1
18 13 m 1
 11.66015625 6.66015625 l 1
 10.240234375 8.0703125 l 1
 16.58984375 14.419921875 l 1
 18 13 l 1
EndSplineSet
EndChar

StartChar: sync
Encoding: 265 57355 23
Width: 24
Flags: HW
LayerCount: 2
Fore
SplineSet
12 2 m 1
 12 5 l 1
 16 1 l 1
 12 -3 l 1
 12 0 l 1
 7.5849609375 0 4 3.5849609375 4 8 c 2
 4.0048828125 8.0107421875 l 2
 4.0048828125 9.5732421875 4.4580078125 11.03125 5.240234375 12.259765625 c 1
 6.7001953125 10.7998046875 l 2
 6.25 9.9697265625 6 9 6 8 c 0
 6 4.6884765625 8.6884765625 2 12 2 c 1
12 16 m 1
 16.4150390625 16 20 12.4150390625 20 8 c 2
 19.9951171875 7.9892578125 l 2
 19.9951171875 6.4267578125 19.5419921875 4.96875 18.759765625 3.740234375 c 1
 17.2998046875 5.2001953125 l 2
 17.75 6.0302734375 18 7 18 8 c 0
 18 11.3115234375 15.3115234375 14 12 14 c 1
 12 11 l 1
 8 15 l 1
 12 19 l 1
 12 16 l 1
EndSplineSet
EndChar

StartChar: reload
Encoding: 266 57356 24
Width: 24
Flags: HW
LayerCount: 2
Fore
SplineSet
2 8 m 0
 2 12.966796875 6.033203125 17 11 17 c 0
 15.966796875 17 20 12.966796875 20 8 c 1
 23 8 l 1
 19.099609375 4 l 1
 19 4 l 1
 15 8 l 1
 18 8 l 1
 18 11.86328125 14.86328125 15 11 15 c 0
 7.13671875 15 4 11.86328125 4 8 c 0
 4 4.13671875 7.13671875 1 11 1 c 0
 11.009765625 1 11.0185546875 0.998046875 11.0283203125 0.998046875 c 0
 12.947265625 0.998046875 14.677734375 1.8056640625 15.900390625 3.099609375 c 1
 17.400390625 1.599609375 l 1
 15.6796875 -0.0595703125 13.3896484375 -1 11 -1 c 0
 6.033203125 -1 2 3.033203125 2 8 c 0
EndSplineSet
EndChar

StartChar: settings helper
Encoding: 267 57357 25
Width: 24
Flags: HW
LayerCount: 2
Fore
SplineSet
7 -2 m 1
 9 -2 l 1
 9 -4 l 1
 7 -4 l 1
 7 -2 l 1
11 -2 m 1
 13 -2 l 1
 13 -4 l 1
 11 -4 l 1
 11 -2 l 1
15 -2 m 1
 17 -2 l 1
 17 -4 l 1
 15 -4 l 1
 15 -2 l 1
EndSplineSet
EndChar

StartChar: cog
Encoding: 268 57358 26
Width: 24
Flags: HW
LayerCount: 2
Fore
SplineSet
12 4.5 m 0
 13.931640625 4.5 15.5 6.068359375 15.5 8 c 0
 15.5 9.931640625 13.931640625 11.5 12 11.5 c 0
 10.068359375 11.5 8.5 9.931640625 8.5 8 c 0
 8.5 6.068359375 10.068359375 4.5 12 4.5 c 0
19.4296875 7.0302734375 m 1
 21.5400390625 5.3701171875 l 2
 21.654296875 5.2783203125 21.7265625 5.1376953125 21.7265625 4.9794921875 c 0
 21.7265625 4.888671875 21.7021484375 4.8037109375 21.66015625 4.73046875 c 2
 19.66015625 1.26953125 l 2
 19.57421875 1.119140625 19.4111328125 1.0185546875 19.2255859375 1.0185546875 c 0
 19.1640625 1.0185546875 19.1044921875 1.029296875 19.0498046875 1.0498046875 c 2
 16.5595703125 2.0595703125 l 2
 16.0478515625 1.658203125 15.4794921875 1.32421875 14.8701171875 1.0703125 c 2
 14.5 -1.580078125 l 2
 14.4619140625 -1.8173828125 14.2548828125 -2 14.0068359375 -2 c 0
 14.00390625 -2 14.001953125 -2 14 -2 c 2
 10 -2 l 2
 9.998046875 -2 9.99609375 -2 9.9931640625 -2 c 0
 9.7451171875 -2 9.5380859375 -1.8173828125 9.5 -1.580078125 c 2
 9.1298828125 1.0703125 l 2
 8.5 1.3203125 7.9599609375 1.66015625 7.4404296875 2.0595703125 c 2
 4.9501953125 1.0498046875 l 2
 4.73046875 0.9697265625 4.4599609375 1.0498046875 4.33984375 1.26953125 c 2
 2.33984375 4.73046875 l 2
 2.2978515625 4.8037109375 2.2724609375 4.888671875 2.2724609375 4.9794921875 c 0
 2.2724609375 5.1376953125 2.345703125 5.2783203125 2.4599609375 5.3701171875 c 2
 4.5703125 7.0302734375 l 2
 4.5283203125 7.35546875 4.5068359375 7.6708984375 4.5068359375 8.0068359375 c 0
 4.5068359375 8.34375 4.5283203125 8.6748046875 4.5703125 9 c 2
 2.4599609375 10.6298828125 l 2
 2.345703125 10.7216796875 2.2734375 10.8623046875 2.2734375 11.0205078125 c 0
 2.2734375 11.111328125 2.2978515625 11.1962890625 2.33984375 11.26953125 c 2
 4.33984375 14.73046875 l 2
 4.42578125 14.880859375 4.5888671875 14.9814453125 4.7744140625 14.9814453125 c 0
 4.8359375 14.9814453125 4.8955078125 14.970703125 4.9501953125 14.9501953125 c 2
 7.4404296875 13.9501953125 l 2
 7.9599609375 14.33984375 8.5 14.6796875 9.1298828125 14.9296875 c 2
 9.5 17.580078125 l 2
 9.5380859375 17.8173828125 9.7451171875 18 9.9931640625 18 c 0
 9.99609375 18 9.998046875 18 10 18 c 2
 14 18 l 2
 14.001953125 18 14.00390625 18 14.0068359375 18 c 0
 14.2548828125 18 14.4619140625 17.8173828125 14.5 17.580078125 c 2
 14.8701171875 14.9296875 l 2
 15.478515625 14.6796875 16.046875 14.3486328125 16.5595703125 13.9501953125 c 2
 19.0498046875 14.9501953125 l 2
 19.26953125 15.0400390625 19.5400390625 14.9501953125 19.66015625 14.73046875 c 2
 21.66015625 11.26953125 l 2
 21.7021484375 11.1962890625 21.7275390625 11.111328125 21.7275390625 11.0205078125 c 0
 21.7275390625 10.8623046875 21.654296875 10.7216796875 21.5400390625 10.6298828125 c 2
 19.4296875 9 l 2
 19.4716796875 8.6748046875 19.4931640625 8.359375 19.4931640625 8.0234375 c 0
 19.4931640625 7.6865234375 19.4716796875 7.35546875 19.4296875 7.0302734375 c 1
EndSplineSet
EndChar

StartChar: clipboard
Encoding: 269 57360 27
Width: 24
Flags: HW
LayerCount: 2
Fore
SplineSet
19 17 m 2
 20.103515625 17 21 16.103515625 21 15 c 2
 21 1 l 2
 21 -0.103515625 20.103515625 -1 19 -1 c 2
 5 -1 l 2
 3.896484375 -1 3 -0.103515625 3 1 c 2
 3 15 l 2
 3 16.099609375 3.900390625 17 5 17 c 2
 9.2001953125 17 l 2
 9.599609375 18.2001953125 10.7001953125 19 12 19 c 0
 13.2998046875 19 14.400390625 18.2001953125 14.7998046875 17 c 2
 19 17 l 2
12 17 m 0
 11.400390625 17 11 16.599609375 11 16 c 0
 11 15.400390625 11.400390625 15 12 15 c 0
 12.599609375 15 13 15.400390625 13 16 c 0
 13 16.599609375 12.599609375 17 12 17 c 1024
EndSplineSet
EndChar

StartChar: clipboard check
Encoding: 270 57361 28
Width: 24
Flags: HW
LayerCount: 2
Fore
SplineSet
10 3 m 1
 18 11 l 1
 16.58984375 12.419921875 l 1
 10 5.830078125 l 1
 7.41015625 8.41015625 l 1
 6 7 l 1
 10 3 l 1
12 17 m 0
 12.5517578125 17 13 16.5517578125 13 16 c 0
 13 15.4482421875 12.5517578125 15 12 15 c 0
 11.4482421875 15 11 15.4482421875 11 16 c 0
 11 16.5517578125 11.4482421875 17 12 17 c 0
19 17 m 2
 20.103515625 17 21 16.103515625 21 15 c 2
 21 1 l 2
 21 -0.103515625 20.103515625 -1 19 -1 c 2
 5 -1 l 2
 3.896484375 -1 3 -0.103515625 3 1 c 2
 3 15 l 2
 3 16.103515625 3.896484375 17 5 17 c 2
 9.1796875 17 l 2
 9.599609375 18.16015625 10.7001953125 19 12 19 c 0
 13.30078125 18.9931640625 14.40625 18.1611328125 14.8203125 17 c 2
 19 17 l 2
EndSplineSet
EndChar

StartChar: clipboard alert
Encoding: 271 57362 29
Width: 24
Flags: HW
LayerCount: 2
Fore
SplineSet
12 15 m 0
 11.4482421875 15 11 15.4482421875 11 16 c 0
 11 16.5517578125 11.4482421875 17 12 17 c 0
 12.5517578125 17 13 16.5517578125 13 16 c 0
 13 15.4482421875 12.5517578125 15 12 15 c 0
13 6 m 1
 13 12 l 1
 11 12 l 1
 11 6 l 1
 13 6 l 1
13 2 m 1
 13 4 l 1
 11 4 l 1
 11 2 l 1
 13 2 l 1
19 17 m 2
 20.103515625 17 21 16.103515625 21 15 c 2
 21 1 l 2
 21 -0.103515625 20.103515625 -1 19 -1 c 2
 5 -1 l 2
 3.896484375 -1 3 -0.103515625 3 1 c 2
 3 15 l 2
 3 16.103515625 3.896484375 17 5 17 c 2
 9.1796875 17 l 2
 9.599609375 18.16015625 10.7001953125 19 12 19 c 0
 13.30078125 18.9931640625 14.40625 18.1611328125 14.8203125 17 c 2
 19 17 l 2
EndSplineSet
EndChar

StartChar: clipboard minus
Encoding: 272 57363 30
Width: 24
Flags: HW
LayerCount: 2
Fore
SplineSet
19 17 m 2
 20.103515625 17 21 16.103515625 21 15 c 2
 21 1 l 2
 21 -0.103515625 20.103515625 -1 19 -1 c 2
 5 -1 l 2
 3.896484375 -1 3 -0.103515625 3 1 c 2
 3 15 l 2
 3 16.103515625 3.896484375 17 5 17 c 2
 9.1796875 17 l 2
 9.599609375 18.16015625 10.7001953125 19 12 19 c 0
 13.2998046875 19 14.400390625 18.16015625 14.8203125 17 c 2
 19 17 l 2
12 17 m 0
 12.5498046875 17 13 16.5498046875 13 16 c 0
 13 15.4501953125 12.5498046875 15 12 15 c 0
 11.4501953125 15 11 15.4501953125 11 16 c 0
 11 16.5498046875 11.4501953125 17 12 17 c 0
16 6 m 1
 16 8 l 1
 8 8 l 1
 8 6 l 1
 16 6 l 1
EndSplineSet
EndChar

StartChar: clipboard plus
Encoding: 273 57364 31
Width: 24
Flags: HW
LayerCount: 2
Fore
SplineSet
19 17 m 2
 20.103515625 17 21 16.103515625 21 15 c 2
 21 1 l 2
 21 -0.103515625 20.103515625 -1 19 -1 c 2
 5 -1 l 2
 3.896484375 -1 3 -0.103515625 3 1 c 2
 3 15 l 2
 3 16.103515625 3.896484375 17 5 17 c 2
 9.1796875 17 l 2
 9.599609375 18.16015625 10.7001953125 19 12 19 c 0
 13.30078125 18.9931640625 14.40625 18.1611328125 14.8203125 17 c 2
 19 17 l 2
12 17 m 0
 12.5517578125 17 13 16.5517578125 13 16 c 0
 13 15.4482421875 12.5517578125 15 12 15 c 0
 11.4482421875 15 11 15.4482421875 11 16 c 0
 11 16.5517578125 11.4482421875 17 12 17 c 0
13 8 m 1
 13 11 l 1
 11 11 l 1
 11 8 l 1
 8 8 l 1
 8 6 l 1
 11 6 l 1
 11 3 l 1
 13 3 l 1
 13 6 l 1
 16 6 l 1
 16 8 l 1
 13 8 l 1
EndSplineSet
EndChar

StartChar: clipboard remove
Encoding: 274 57365 32
Width: 24
Flags: HW
LayerCount: 2
Fore
SplineSet
19 17 m 2
 20.103515625 17 21 16.103515625 21 15 c 2
 21 1 l 2
 21 -0.103515625 20.103515625 -1 19 -1 c 2
 5 -1 l 2
 3.896484375 -1 3 -0.103515625 3 1 c 2
 3 15 l 2
 3 16.103515625 3.896484375 17 5 17 c 2
 9.1796875 17 l 2
 9.599609375 18.16015625 10.7001953125 19 12 19 c 0
 13.2998046875 19 14.400390625 18.16015625 14.8203125 17 c 2
 19 17 l 2
12 17 m 0
 12.5498046875 17 13 16.5498046875 13 16 c 0
 13 15.4501953125 12.5498046875 15 12 15 c 0
 11.4501953125 15 11 15.4501953125 11 16 c 0
 11 16.5498046875 11.4501953125 17 12 17 c 0
15.5400390625 4.8798828125 m 1
 13.41015625 7 l 1
 15.5400390625 9.1201171875 l 1
 14.1201171875 10.5302734375 l 1
 12 8.41015625 l 1
 9.8798828125 10.5302734375 l 1
 8.4697265625 9.1201171875 l 1
 10.58984375 7 l 1
 8.4697265625 4.8798828125 l 1
 9.8798828125 3.4599609375 l 1
 12 5.58984375 l 1
 14.1201171875 3.4599609375 l 1
 15.5400390625 4.8798828125 l 1
EndSplineSet
EndChar

StartChar: clipboard off
Encoding: 275 57366 33
Width: 24
Flags: HW
LayerCount: 2
Fore
SplineSet
21 15 m 2
 21 2.2001953125 l 1
 6.2001953125 17 l 1
 9.1796875 17 l 2
 9.599609375 18.16015625 10.7001953125 19 12 19 c 0
 13.2998046875 19 14.400390625 18.16015625 14.8203125 17 c 2
 19 17 l 2
 20.103515625 17 21 16.103515625 21 15 c 2
12 15 m 0
 11.4501953125 15 11 15.4501953125 11 16 c 0
 11 16.5498046875 11.4501953125 17 12 17 c 0
 12.5498046875 17 13 16.5498046875 13 16 c 0
 13 15.4501953125 12.5498046875 15 12 15 c 0
22.1103515625 -1.4599609375 m 1
 20.83984375 -2.73046875 l 1
 19.099609375 -1 l 1
 5 -1 l 2
 3.896484375 -1 3 -0.103515625 3 1 c 2
 3 15.099609375 l 1
 1.1103515625 17 l 1
 2.3896484375 18.26953125 l 1
 22.1103515625 -1.4599609375 l 1
EndSplineSet
EndChar

StartChar: clipboard multiple
Encoding: 276 57367 34
Width: 24
Flags: HW
LayerCount: 2
Fore
SplineSet
4 13 m 1
 4 -1 l 1
 18 -1 l 1
 18 -3 l 1
 4 -3 l 2
 2.900390625 -3 2 -2.099609375 2 -1 c 2
 2 13 l 1
 4 13 l 1
20 17 m 2
 21.103515625 17 22 16.103515625 22 15 c 2
 22 3 l 2
 22 1.896484375 21.103515625 1 20 1 c 2
 8 1 l 2
 6.900390625 1 6 1.900390625 6 3 c 2
 6 15 l 2
 6 16.103515625 6.896484375 17 8 17 c 2
 11.2001953125 17 l 2
 11.599609375 18.2001953125 12.7001953125 19 14 19 c 0
 15.2998046875 19 16.400390625 18.2001953125 16.7998046875 17 c 2
 20 17 l 2
14 17 m 0
 14.599609375 17 15 16.5 15 16 c 0
 15 15.5 14.5 15 14 15 c 0
 13.5 15 13 15.5 13 16 c 0
 13 16.5 13.400390625 17 14 17 c 0
EndSplineSet
EndChar

StartChar: clipboard edit
Encoding: 277 57368 35
Width: 24
Flags: HW
LayerCount: 2
Fore
SplineSet
21.0400390625 7.8701171875 m 0
 21.1796875 7.8701171875 21.3095703125 7.8095703125 21.419921875 7.7001953125 c 2
 22.7001953125 6.419921875 l 2
 22.919921875 6.2099609375 22.919921875 5.8603515625 22.7001953125 5.650390625 c 2
 21.7001953125 4.650390625 l 1
 19.650390625 6.7001953125 l 1
 20.650390625 7.7001953125 l 2
 20.7490234375 7.802734375 20.8876953125 7.8671875 21.0400390625 7.8701171875 c 0
19.0703125 6.1201171875 m 1
 21.1201171875 4.0703125 l 1
 15.0595703125 -2 l 1
 13 -2 l 1
 13 0.0595703125 l 1
 19.0703125 6.1201171875 l 1
19 17 m 2
 20.103515625 17 21 16.103515625 21 15 c 2
 21 11 l 1
 11 1 l 1
 11 -1 l 1
 5 -1 l 2
 3.896484375 -1 3 -0.103515625 3 1 c 2
 3 15 l 2
 3 16.099609375 3.900390625 17 5 17 c 2
 9.1796875 17 l 2
 9.599609375 18.16015625 10.7001953125 19 12 19 c 0
 13.2998046875 19 14.400390625 18.16015625 14.8203125 17 c 2
 19 17 l 2
12 17 m 0
 11.4482421875 17 11 16.5517578125 11 16 c 0
 11 15.4482421875 11.4482421875 15 12 15 c 0
 12.5517578125 15 13 15.4482421875 13 16 c 0
 13 16.5517578125 12.5517578125 17 12 17 c 0
EndSplineSet
EndChar

StartChar: clipboard outline
Encoding: 278 57376 36
Width: 24
Flags: HW
LayerCount: 2
Fore
SplineSet
19 17 m 2
 20.103515625 17 21 16.103515625 21 15 c 2
 21 1 l 2
 21 -0.103515625 20.103515625 -1 19 -1 c 2
 5 -1 l 2
 3.896484375 -1 3 -0.103515625 3 1 c 2
 3 15 l 2
 3 16.103515625 3.896484375 17 5 17 c 2
 9.1796875 17 l 2
 9.599609375 18.16015625 10.7001953125 19 12 19 c 0
 13.30078125 18.9931640625 14.40625 18.1611328125 14.8203125 17 c 2
 19 17 l 2
12 17 m 0
 12.5517578125 17 13 16.5517578125 13 16 c 0
 13 15.4482421875 12.5517578125 15 12 15 c 0
 11.4482421875 15 11 15.4482421875 11 16 c 0
 11 16.5517578125 11.4482421875 17 12 17 c 0
7 13 m 1
 7 15 l 1
 5 15 l 1
 5 1 l 1
 19 1 l 1
 19 15 l 1
 17 15 l 1
 17 13 l 1
 7 13 l 1
EndSplineSet
EndChar

StartChar: clipboard check outline
Encoding: 279 57377 37
Width: 24
Flags: HW
LayerCount: 2
Fore
SplineSet
19 17 m 2
 20.103515625 17 21 16.103515625 21 15 c 2
 21 1 l 2
 21 -0.103515625 20.103515625 -1 19 -1 c 2
 5 -1 l 2
 3.896484375 -1 3 -0.103515625 3 1 c 2
 3 15 l 2
 3 16.103515625 3.896484375 17 5 17 c 2
 9.1796875 17 l 2
 9.599609375 18.16015625 10.7001953125 19 12 19 c 0
 13.30078125 18.9931640625 14.40625 18.1611328125 14.8203125 17 c 2
 19 17 l 2
12 17 m 0
 12.5517578125 17 13 16.5517578125 13 16 c 0
 13 15.4482421875 12.5517578125 15 12 15 c 0
 11.4482421875 15 11 15.4482421875 11 16 c 0
 11 16.5517578125 11.4482421875 17 12 17 c 0
7 13 m 1
 7 15 l 1
 5 15 l 1
 5 1 l 1
 19 1 l 1
 19 15 l 1
 17 15 l 1
 17 13 l 1
 7 13 l 1
7.5 6.5 m 1
 9 8 l 1
 11 6 l 1
 15.5 10.5 l 1
 17 9 l 1
 11 3 l 1
 7.5 6.5 l 1
EndSplineSet
EndChar

StartChar: clipboard alert outline
Encoding: 280 57378 38
Width: 24
Flags: HW
LayerCount: 2
Fore
SplineSet
19 17 m 2
 20.103515625 17 21 16.103515625 21 15 c 2
 21 1 l 2
 21 -0.103515625 20.103515625 -1 19 -1 c 2
 5 -1 l 2
 3.896484375 -1 3 -0.103515625 3 1 c 2
 3 15 l 2
 3 16.103515625 3.896484375 17 5 17 c 2
 9.1796875 17 l 2
 9.599609375 18.16015625 10.7001953125 19 12 19 c 0
 13.2998046875 19 14.400390625 18.16015625 14.8203125 17 c 2
 19 17 l 2
12 17 m 0
 11.4482421875 17 11 16.5517578125 11 16 c 0
 11 15.4482421875 11.4482421875 15 12 15 c 0
 12.5517578125 15 13 15.4482421875 13 16 c 0
 13 16.5517578125 12.5517578125 17 12 17 c 0
7 13 m 1
 7 15 l 1
 5 15 l 1
 5 1 l 1
 19 1 l 1
 19 15 l 1
 17 15 l 1
 17 13 l 1
 7 13 l 1
11 11 m 1
 13 11 l 1
 13 6.5 l 1
 11 6.5 l 1
 11 11 l 1
11 5 m 1
 13 5 l 1
 13 3 l 1
 11 3 l 1
 11 5 l 1
EndSplineSet
EndChar

StartChar: clipboard minus outline
Encoding: 281 57379 39
Width: 24
Flags: HW
LayerCount: 2
Fore
SplineSet
19 17 m 2
 20.103515625 17 21 16.103515625 21 15 c 2
 21 1 l 2
 21 -0.103515625 20.103515625 -1 19 -1 c 2
 5 -1 l 2
 3.896484375 -1 3 -0.103515625 3 1 c 2
 3 15 l 2
 3 16.103515625 3.896484375 17 5 17 c 2
 9.1796875 17 l 2
 9.599609375 18.16015625 10.7001953125 19 12 19 c 0
 13.2998046875 19 14.400390625 18.16015625 14.8203125 17 c 2
 19 17 l 2
12 17 m 0
 12.5498046875 17 13 16.5498046875 13 16 c 0
 13 15.4501953125 12.5498046875 15 12 15 c 0
 11.4501953125 15 11 15.4501953125 11 16 c 0
 11 16.5498046875 11.4501953125 17 12 17 c 0
19 1 m 1
 19 15 l 1
 17 15 l 1
 17 13 l 1
 7 13 l 1
 7 15 l 1
 5 15 l 1
 5 1 l 1
 19 1 l 1
8 8 m 1
 16 8 l 1
 16 6 l 1
 8 6 l 1
 8 8 l 1
EndSplineSet
EndChar

StartChar: clipboard plus outline
Encoding: 282 57380 40
Width: 24
Flags: HW
LayerCount: 2
Fore
SplineSet
19 17 m 2
 20.103515625 17 21 16.103515625 21 15 c 2
 21 1 l 2
 21 -0.103515625 20.103515625 -1 19 -1 c 2
 5 -1 l 2
 3.896484375 -1 3 -0.103515625 3 1 c 2
 3 15 l 2
 3 16.103515625 3.896484375 17 5 17 c 2
 9.1796875 17 l 2
 9.599609375 18.16015625 10.7001953125 19 12 19 c 0
 13.2998046875 19 14.400390625 18.16015625 14.8203125 17 c 2
 19 17 l 2
12 17 m 0
 12.5498046875 17 13 16.5498046875 13 16 c 0
 13 15.4501953125 12.5498046875 15 12 15 c 0
 11.4501953125 15 11 15.4501953125 11 16 c 0
 11 16.5498046875 11.4501953125 17 12 17 c 0
7 13 m 1
 7 15 l 1
 5 15 l 1
 5 1 l 1
 19 1 l 1
 19 15 l 1
 17 15 l 1
 17 13 l 1
 7 13 l 1
13 8 m 1
 16 8 l 1
 16 6 l 1
 13 6 l 1
 13 3 l 1
 11 3 l 1
 11 6 l 1
 8 6 l 1
 8 8 l 1
 11 8 l 1
 11 11 l 1
 13 11 l 1
 13 8 l 1
EndSplineSet
EndChar

StartChar: clipboard remove outline
Encoding: 283 57381 41
Width: 24
Flags: HW
LayerCount: 2
Fore
SplineSet
19 17 m 2
 20.103515625 17 21 16.103515625 21 15 c 2
 21 1 l 2
 21 -0.103515625 20.103515625 -1 19 -1 c 2
 5 -1 l 2
 3.896484375 -1 3 -0.103515625 3 1 c 2
 3 15 l 2
 3 16.103515625 3.896484375 17 5 17 c 2
 9.1796875 17 l 2
 9.599609375 18.16015625 10.7001953125 19 12 19 c 0
 13.2998046875 19 14.400390625 18.16015625 14.8203125 17 c 2
 19 17 l 2
12 17 m 0
 12.5498046875 17 13 16.5498046875 13 16 c 0
 13 15.4501953125 12.5498046875 15 12 15 c 0
 11.4501953125 15 11 15.4501953125 11 16 c 0
 11 16.5498046875 11.4501953125 17 12 17 c 0
19 1 m 1
 19 15 l 1
 17 15 l 1
 17 13 l 1
 7 13 l 1
 7 15 l 1
 5 15 l 1
 5 1 l 1
 19 1 l 1
15.5400390625 9.1201171875 m 1
 13.41015625 7 l 1
 15.5400390625 4.8798828125 l 1
 14.1201171875 3.4599609375 l 1
 12 5.58984375 l 1
 9.8798828125 3.4599609375 l 1
 8.4697265625 4.8798828125 l 1
 10.58984375 7 l 1
 8.4697265625 9.1201171875 l 1
 9.8798828125 10.5302734375 l 1
 12 8.41015625 l 1
 14.1201171875 10.5302734375 l 1
 15.5400390625 9.1201171875 l 1
EndSplineSet
EndChar

StartChar: clipboard off outline
Encoding: 284 57382 42
Width: 24
Flags: HW
LayerCount: 2
Fore
SplineSet
2.3896484375 18.26953125 m 1
 22.1103515625 -1.4599609375 l 1
 20.83984375 -2.73046875 l 1
 19.099609375 -1 l 1
 5 -1 l 2
 3.896484375 -1 3 -0.103515625 3 1 c 2
 3 15.099609375 l 1
 1.1103515625 17 l 1
 2.3896484375 18.26953125 l 1
5 1 m 1
 17.1103515625 1 l 1
 5 13.1103515625 l 1
 5 1 l 1
17 13 m 1
 10.2001953125 13 l 1
 6.2001953125 17 l 1
 9.1796875 17 l 2
 9.599609375 18.16015625 10.7001953125 19 12 19 c 0
 13.2998046875 19 14.400390625 18.16015625 14.8203125 17 c 2
 19 17 l 2
 20.103515625 17 21 16.103515625 21 15 c 2
 21 2.2001953125 l 1
 19 4.2001953125 l 1
 19 15 l 1
 17 15 l 1
 17 13 l 1
12 17 m 0
 12.5498046875 17 13 16.5498046875 13 16 c 0
 13 15.4501953125 12.5498046875 15 12 15 c 0
 11.4501953125 15 11 15.4501953125 11 16 c 0
 11 16.5498046875 11.4501953125 17 12 17 c 0
EndSplineSet
EndChar

StartChar: clipboard multiple outline
Encoding: 285 57383 43
Width: 24
Flags: HW
LayerCount: 2
Fore
SplineSet
4 13 m 1
 4 -1 l 1
 18 -1 l 1
 18 -3 l 1
 4 -3 l 2
 2.896484375 -3 2 -2.103515625 2 -1 c 2
 2 13 l 1
 4 13 l 1
20 17 m 2
 21.103515625 17 22 16.103515625 22 15 c 2
 22 3 l 2
 22 1.896484375 21.103515625 1 20 1 c 2
 8 1 l 2
 6.896484375 1 6 1.896484375 6 3 c 2
 6 15 l 2
 6 16.099609375 6.900390625 17 8 17 c 2
 11.1796875 17 l 2
 11.599609375 18.16015625 12.7001953125 19 14 19 c 0
 15.2998046875 19 16.400390625 18.16015625 16.8203125 17 c 2
 20 17 l 2
14 17 m 0
 13.4482421875 17 13 16.5517578125 13 16 c 0
 13 15.4482421875 13.4482421875 15 14 15 c 0
 14.5517578125 15 15 15.4482421875 15 16 c 0
 15 16.5517578125 14.5517578125 17 14 17 c 0
10 13 m 1
 10 15 l 1
 8 15 l 1
 8 3 l 1
 20 3 l 1
 20 15 l 1
 18 15 l 1
 18 13 l 1
 10 13 l 1
EndSplineSet
EndChar

StartChar: clipboard edit outline
Encoding: 286 57384 44
Width: 24
Flags: HW
LayerCount: 2
Fore
SplineSet
21.0400390625 7.8701171875 m 0
 21.1796875 7.8701171875 21.3095703125 7.8095703125 21.419921875 7.7001953125 c 2
 22.7001953125 6.419921875 l 2
 22.919921875 6.2099609375 22.919921875 5.8603515625 22.7001953125 5.650390625 c 2
 21.7001953125 4.650390625 l 1
 19.650390625 6.7001953125 l 1
 20.650390625 7.7001953125 l 2
 20.7490234375 7.802734375 20.8876953125 7.8671875 21.0400390625 7.8701171875 c 0
19.0703125 6.1201171875 m 1
 21.1201171875 4.0703125 l 1
 15.0595703125 -2 l 1
 13 -2 l 1
 13 0.0595703125 l 1
 19.0703125 6.1201171875 l 1
11 1 m 1
 9 -1 l 1
 5 -1 l 2
 3.896484375 -1 3 -0.103515625 3 1 c 2
 3 15 l 2
 3 16.099609375 3.900390625 17 5 17 c 2
 9.1796875 17 l 2
 9.599609375 18.16015625 10.7001953125 19 12 19 c 0
 13.2998046875 19 14.400390625 18.16015625 14.8203125 17 c 2
 19 17 l 2
 20.103515625 17 21 16.103515625 21 15 c 2
 21 11 l 1
 19 9 l 1
 19 15 l 1
 17 15 l 1
 17 13 l 1
 7 13 l 1
 7 15 l 1
 5 15 l 1
 5 1 l 1
 11 1 l 1
12 17 m 0
 11.4482421875 17 11 16.5517578125 11 16 c 0
 11 15.4482421875 11.4482421875 15 12 15 c 0
 12.5517578125 15 13 15.4482421875 13 16 c 0
 13 16.5517578125 12.5517578125 17 12 17 c 0
EndSplineSet
EndChar

StartChar: wifi
Encoding: 287 57392 45
Width: 24
Flags: HW
LayerCount: 2
Fore
SplineSet
12 -1 m 1
 8.400390625 3.7998046875 l 2
 9.4013671875 4.552734375 10.65625 5 12.0048828125 5 c 0
 13.353515625 5 14.5986328125 4.552734375 15.599609375 3.7998046875 c 2
 12 -1 l 1
12 17 m 0
 12.0078125 17 12.0302734375 16.9912109375 12.0380859375 16.9912109375 c 0
 16.0751953125 16.9912109375 19.8017578125 15.654296875 22.7998046875 13.400390625 c 2
 21 11 l 1
 18.5 12.8798828125 15.3798828125 14 12 14 c 0
 8.6201171875 14 5.5 12.8798828125 3 11 c 1
 1.2001953125 13.400390625 l 2
 4.2099609375 15.66015625 7.9501953125 17 12 17 c 0
12 11 m 0
 12.0068359375 11 12.0234375 10.994140625 12.0302734375 10.994140625 c 0
 14.7197265625 10.994140625 17.203125 10.103515625 19.2001953125 8.599609375 c 2
 17.400390625 6.2001953125 l 1
 15.900390625 7.3369140625 14.017578125 8.0107421875 11.9921875 8.0107421875 c 0
 9.9677734375 8.0107421875 8.099609375 7.3369140625 6.599609375 6.2001953125 c 1
 4.7998046875 8.599609375 l 2
 6.8095703125 10.1103515625 9.2998046875 11 12 11 c 0
EndSplineSet
EndChar

StartChar: bluetooth
Encoding: 288 57393 46
Width: 24
Flags: HW
LayerCount: 2
Fore
SplineSet
14.8798828125 3.7099609375 m 1
 13 5.58984375 l 1
 13 1.830078125 l 1
 14.8798828125 3.7099609375 l 1
13 14.169921875 m 1
 13 10.419921875 l 1
 14.8798828125 12.2900390625 l 1
 13 14.169921875 l 1
17.7099609375 12.2900390625 m 1
 13.41015625 8 l 1
 17.7099609375 3.7099609375 l 1
 12 -2 l 1
 11 -2 l 1
 11 5.58984375 l 1
 6.41015625 1 l 1
 5 2.419921875 l 1
 10.58984375 8 l 1
 5 13.58984375 l 1
 6.41015625 15 l 1
 11 10.419921875 l 1
 11 18 l 1
 12 18 l 1
 17.7099609375 12.2900390625 l 1
EndSplineSet
EndChar

StartChar: wifi off
Encoding: 289 57394 47
Width: 24
Flags: HW
LayerCount: 2
Fore
SplineSet
2.2802734375 17 m 1
 19 0.2802734375 l 1
 17.740234375 -1 l 1
 14.4599609375 2.26953125 l 1
 12 -1 l 1
 8.400390625 3.7998046875 l 1
 9.33984375 4.5 10.5 4.9296875 11.75 5 c 1
 9.2001953125 7.5302734375 l 2
 8.259765625 7.23046875 7.3798828125 6.7802734375 6.599609375 6.2001953125 c 2
 4.7998046875 8.599609375 l 2
 5.4404296875 9.08984375 6.150390625 9.5 6.8896484375 9.83984375 c 1
 4.66015625 12.0703125 l 2
 4.080078125 11.75 3.5302734375 11.400390625 3 11 c 1
 1.2001953125 13.400390625 l 2
 1.6103515625 13.7099609375 2.0400390625 14 2.4697265625 14.259765625 c 1
 1 15.73046875 l 1
 2.2802734375 17 l 1
12 17 m 0
 16.0595703125 17 19.7900390625 15.66015625 22.7998046875 13.400390625 c 2
 21 11 l 1
 18.5 12.8896484375 15.3798828125 14 12 14 c 0
 10.7197265625 14 9.5 13.83984375 8.2900390625 13.5302734375 c 2
 5.900390625 15.9296875 l 1
 7.7998046875 16.6201171875 9.849609375 17 12 17 c 0
12 11 m 0
 11.6201171875 11 11.25 11 10.8798828125 10.9501953125 c 1
 14.0703125 7.75 l 2
 15.2900390625 7.4697265625 16.4296875 6.9296875 17.400390625 6.2001953125 c 1
 19.2001953125 8.599609375 l 2
 17.2001953125 10.1103515625 14.7001953125 11 12 11 c 0
EndSplineSet
EndChar

StartChar: bluetooth off
Encoding: 290 57395 48
Width: 24
Flags: HW
LayerCount: 2
Fore
SplineSet
13 14.2001953125 m 1
 13 11 l 1
 11 13 l 1
 11 18 l 1
 12 18 l 1
 17.7001953125 12.2998046875 l 1
 14.7001953125 9.2998046875 l 1
 13.2998046875 10.7001953125 l 1
 14.900390625 12.2998046875 l 1
 13 14.2001953125 l 1
5.400390625 16 m 1
 20 1.400390625 l 1
 18.599609375 0 l 1
 16.2998046875 2.2998046875 l 1
 12 -2 l 1
 11 -2 l 1
 11 5.599609375 l 1
 6.400390625 1 l 1
 5 2.400390625 l 1
 10.599609375 8 l 1
 4 14.599609375 l 1
 5.400390625 16 l 1
13 1.7998046875 m 1
 14.900390625 3.7001953125 l 1
 13 5.599609375 l 1
 13 1.7998046875 l 1
EndSplineSet
EndChar

StartChar: volume low
Encoding: 291 57400 49
Width: 24
Flags: HW
LayerCount: 2
Fore
SplineSet
7 11 m 1
 11 11 l 1
 16 16 l 1
 16 0 l 1
 11 5 l 1
 7 5 l 1
 7 11 l 1
EndSplineSet
EndChar

StartChar: volume medium
Encoding: 292 57401 50
Width: 24
Flags: HW
LayerCount: 2
Fore
SplineSet
5 11 m 1
 9 11 l 1
 14 16 l 1
 14 0 l 1
 9 5 l 1
 5 5 l 1
 5 11 l 1
18.5 8 m 0
 18.5 7.9892578125 18.50390625 7.9814453125 18.50390625 7.970703125 c 0
 18.50390625 6.2216796875 17.48046875 4.708984375 16 4 c 1
 16 12.0302734375 l 1
 17.5 11.2900390625 18.5 9.76953125 18.5 8 c 0
EndSplineSet
EndChar

StartChar: volume high
Encoding: 293 57402 51
Width: 24
Flags: HW
LayerCount: 2
Fore
SplineSet
14 16.76953125 m 1
 17.9921875 15.849609375 20.9736328125 12.2705078125 20.9736328125 8 c 0
 20.9736328125 3.73046875 17.9921875 0.150390625 14 -0.76953125 c 1
 14 1.2998046875 l 2
 16.884765625 2.1650390625 18.9892578125 4.8388671875 18.9892578125 8.00390625 c 0
 18.9892578125 11.16796875 16.884765625 13.8447265625 14 14.7099609375 c 2
 14 16.76953125 l 1
16.5 8 m 0
 16.5 7.9892578125 16.50390625 7.9814453125 16.50390625 7.970703125 c 0
 16.50390625 6.2216796875 15.48046875 4.708984375 14 4 c 1
 14 12.0302734375 l 1
 15.5 11.2900390625 16.5 9.76953125 16.5 8 c 0
3 11 m 1
 7 11 l 1
 12 16 l 1
 12 0 l 1
 7 5 l 1
 3 5 l 1
 3 11 l 1
EndSplineSet
EndChar

StartChar: volume minus
Encoding: 294 57403 52
Width: 24
Flags: HW
LayerCount: 2
Fore
SplineSet
3 11 m 1
 7 11 l 1
 12 16 l 1
 12 0 l 1
 7 5 l 1
 3 5 l 1
 3 11 l 1
14 9 m 1
 22 9 l 1
 22 7 l 1
 14 7 l 1
 14 9 l 1
EndSplineSet
EndChar

StartChar: volume plus
Encoding: 295 57404 53
Width: 24
Flags: HW
LayerCount: 2
Fore
SplineSet
3 11 m 1
 7 11 l 1
 12 16 l 1
 12 0 l 1
 7 5 l 1
 3 5 l 1
 3 11 l 1
14 9 m 1
 17 9 l 1
 17 12 l 1
 19 12 l 1
 19 9 l 1
 22 9 l 1
 22 7 l 1
 19 7 l 1
 19 4 l 1
 17 4 l 1
 17 7 l 1
 14 7 l 1
 14 9 l 1
EndSplineSet
EndChar

StartChar: volume mute
Encoding: 296 57405 54
Width: 24
Flags: HW
LayerCount: 2
Fore
SplineSet
3 11 m 1
 7 11 l 1
 12 16 l 1
 12 0 l 1
 7 5 l 1
 3 5 l 1
 3 11 l 1
16.58984375 8 m 1
 14 10.58984375 l 1
 15.41015625 12 l 1
 18 9.41015625 l 1
 20.58984375 12 l 1
 22 10.58984375 l 1
 19.41015625 8 l 1
 22 5.41015625 l 1
 20.58984375 4 l 1
 18 6.58984375 l 1
 15.41015625 4 l 1
 14 5.41015625 l 1
 16.58984375 8 l 1
EndSplineSet
EndChar

StartChar: volume variant off
Encoding: 297 57406 55
Width: 24
Flags: HW
LayerCount: 2
Fore
SplineSet
5.6396484375 16.3603515625 m 1
 21.3603515625 0.6396484375 l 1
 19.9501953125 -0.7802734375 l 1
 16 3.169921875 l 1
 16 0 l 1
 11 5 l 1
 7 5 l 1
 7 11 l 1
 8.169921875 11 l 1
 4.2197265625 14.9501953125 l 1
 5.6396484375 16.3603515625 l 1
16 16 m 1
 16 8.830078125 l 1
 12.41015625 12.419921875 l 1
 16 16 l 1
EndSplineSet
EndChar

StartChar: telegram
Encoding: 298 57600 56
Width: 24
Flags: HW
LayerCount: 2
Fore
SplineSet
11.9404296875 20 m 0
 11.9501953125 20 11.958984375 20 11.9697265625 20 c 0
 11.9794921875 20 11.990234375 20 12 20 c 0
 18.623046875 20 24 14.623046875 24 8 c 0
 24 1.376953125 18.623046875 -4 12 -4 c 0
 5.376953125 -4 0 1.376953125 0 8 c 0
 0 14.6025390625 5.3447265625 19.966796875 11.9404296875 20 c 0
16.91015625 12.7802734375 m 0
 16.4599609375 12.76953125 15.759765625 12.5302734375 12.4296875 11.1396484375 c 0
 10.10546875 10.158203125 7.748046875 9.142578125 5.4404296875 8.1298828125 c 0
 4.8603515625 7.900390625 4.5703125 7.6796875 4.5400390625 7.4697265625 c 0
 4.490234375 7.0498046875 5.080078125 6.919921875 5.83984375 6.669921875 c 0
 6.4287109375 6.4580078125 7.0595703125 6.306640625 7.7001953125 6.23046875 c 0
 8.08984375 6.2197265625 8.51953125 6.3798828125 9 6.7099609375 c 0
 12.26953125 8.919921875 13.9599609375 10.0400390625 14.0595703125 10.0595703125 c 0
 14.1396484375 10.080078125 14.240234375 10.1103515625 14.3095703125 10.0400390625 c 0
 14.3798828125 9.9697265625 14.3798828125 9.8603515625 14.3603515625 9.8203125 c 0
 14.3095703125 9.5703125 11.240234375 6.7802734375 11.0595703125 6.58984375 c 0
 10.3896484375 5.8896484375 9.6201171875 5.4599609375 10.7998046875 4.6796875 c 0
 11.830078125 4.009765625 12.4296875 3.580078125 13.48046875 2.8798828125 c 0
 14.16015625 2.4404296875 14.6796875 1.919921875 15.3798828125 1.98046875 c 0
 15.7001953125 2.009765625 16.0302734375 2.3095703125 16.2001953125 3.2099609375 c 0
 16.599609375 5.33984375 17.3798828125 9.9404296875 17.5595703125 11.83984375 c 0
 17.580078125 12.009765625 17.5595703125 12.2099609375 17.5400390625 12.3095703125 c 0
 17.52734375 12.44140625 17.4638671875 12.55859375 17.3701171875 12.6396484375 c 0
 17.23046875 12.75 17.009765625 12.7802734375 16.91015625 12.7802734375 c 0
EndSplineSet
EndChar

StartChar: gmail
Encoding: 299 57601 57
Width: 24
Flags: HW
LayerCount: 2
Fore
SplineSet
24 14.5400390625 m 2
 24 0.6396484375 l 2
 24 -0.26953125 23.26953125 -1 22.3603515625 -1 c 2
 18.5498046875 -1 l 1
 18.5498046875 8.26953125 l 1
 12 3.3603515625 l 1
 5.4599609375 8.26953125 l 1
 5.4599609375 -1 l 1
 1.6396484375 -1 l 2
 0.73828125 -1 0.005859375 -0.2705078125 0 0.6298828125 c 2
 0 14.5400390625 l 2
 0 16.5703125 2.2998046875 17.7197265625 3.9296875 16.509765625 c 2
 5.4501953125 15.3603515625 l 1
 12 10.4599609375 l 1
 18.5400390625 15.3603515625 l 1
 20.0703125 16.509765625 l 2
 20.4814453125 16.8212890625 20.9931640625 17.0068359375 21.5478515625 17.0068359375 c 0
 22.900390625 17.0068359375 23.998046875 15.908203125 23.998046875 14.556640625 c 0
 23.998046875 14.55078125 24 14.5458984375 24 14.5400390625 c 2
EndSplineSet
EndChar

StartChar: linkedin
Encoding: 300 57602 58
Width: 24
Flags: HW
LayerCount: 2
Fore
SplineSet
20.4501953125 -0.4501953125 m 1
 20.4501953125 5.830078125 l 2
 20.4501953125 8.919921875 19.7802734375 11.2900390625 16.1796875 11.2900390625 c 0
 16.134765625 11.2919921875 16.0927734375 11.296875 16.046875 11.296875 c 0
 14.66796875 11.296875 13.4609375 10.55078125 12.8095703125 9.4404296875 c 2
 12.76953125 9.4404296875 l 1
 12.76953125 11 l 1
 9.349609375 11 l 1
 9.349609375 -0.4501953125 l 1
 12.91015625 -0.4501953125 l 1
 12.91015625 5.2099609375 l 2
 12.91015625 6.7099609375 13.1904296875 8.150390625 15.0400390625 8.150390625 c 0
 16.8701171875 8.150390625 16.8896484375 6.4404296875 16.8896484375 5.1201171875 c 2
 16.8896484375 -0.4501953125 l 1
 20.4501953125 -0.4501953125 l 1
5.33984375 12.5703125 m 0
 6.4765625 12.5703125 7.400390625 13.4931640625 7.400390625 14.6298828125 c 0
 7.400390625 15.7666015625 6.4765625 16.6904296875 5.33984375 16.6904296875 c 0
 4.203125 16.6904296875 3.2802734375 15.7666015625 3.2802734375 14.6298828125 c 0
 3.2802734375 13.4931640625 4.203125 12.5703125 5.33984375 12.5703125 c 0
7.1201171875 -0.4501953125 m 1
 7.1201171875 11 l 1
 3.5595703125 11 l 1
 3.5595703125 -0.4501953125 l 1
 7.1201171875 -0.4501953125 l 1
22.2197265625 20 m 2
 23.2001953125 20 24 19.23046875 24 18.26953125 c 2
 24 -2.26953125 l 2
 24 -3.23046875 23.2001953125 -4 22.2197265625 -4 c 2
 1.76953125 -4 l 2
 0.7998046875 -4 0 -3.23046875 0 -2.26953125 c 2
 0 18.26953125 l 2
 0 19.23046875 0.7998046875 20 1.7802734375 20 c 2
 22.2197265625 20 l 2
EndSplineSet
EndChar

StartChar: instagram
Encoding: 301 57603 59
Width: 24
Flags: HW
LayerCount: 2
Fore
SplineSet
12 20 m 0
 12.4375 20.0068359375 12.7978515625 20.0107421875 13.2373046875 20.0107421875 c 0
 14.4814453125 20.0107421875 15.7197265625 19.9833984375 16.9501953125 19.9296875 c 0
 18.2197265625 19.8701171875 19.08984375 19.669921875 19.8603515625 19.3701171875 c 0
 20.6708984375 19.068359375 21.39453125 18.5947265625 21.990234375 17.990234375 c 0
 22.59375 17.3935546875 23.0673828125 16.669921875 23.3701171875 15.8603515625 c 0
 23.708984375 14.953125 23.9072265625 13.96875 23.9296875 12.9501953125 c 0
 23.990234375 11.669921875 24 11.259765625 24 8 c 0
 24 4.740234375 23.990234375 4.330078125 23.9296875 3.0498046875 c 0
 23.8701171875 1.7802734375 23.669921875 0.91015625 23.3701171875 0.1396484375 c 0
 23.068359375 -0.6708984375 22.5947265625 -1.39453125 21.990234375 -1.990234375 c 0
 21.3935546875 -2.59375 20.669921875 -3.0673828125 19.8603515625 -3.3701171875 c 0
 18.953125 -3.708984375 17.96875 -3.9072265625 16.9501953125 -3.9296875 c 0
 15.669921875 -3.990234375 15.259765625 -4 12 -4 c 0
 8.740234375 -4 8.330078125 -3.990234375 7.0498046875 -3.9296875 c 0
 5.7802734375 -3.8701171875 4.91015625 -3.669921875 4.1396484375 -3.3701171875 c 0
 3.330078125 -3.0673828125 2.60546875 -2.5947265625 2.009765625 -1.990234375 c 0
 1.349609375 -1.3203125 0.9296875 -0.650390625 0.6298828125 0.1396484375 c 0
 0.330078125 0.900390625 0.1298828125 1.7802734375 0.0703125 3.0498046875 c 0
 0.009765625 4.330078125 0 4.740234375 0 8 c 0
 0 11.259765625 0.009765625 11.669921875 0.0703125 12.9501953125 c 0
 0.1298828125 14.2197265625 0.330078125 15.08984375 0.6298828125 15.8603515625 c 0
 0.9404296875 16.650390625 1.33984375 17.330078125 2.009765625 17.990234375 c 0
 2.6796875 18.650390625 3.349609375 19.0703125 4.1396484375 19.3701171875 c 0
 5.046875 19.7099609375 6.03125 19.9072265625 7.0498046875 19.9296875 c 0
 8.330078125 19.990234375 8.740234375 20 12 20 c 0
12 17.83984375 m 1
 12 17.830078125 l 1
 11.9599609375 17.8603515625 l 2
 8.75 17.8603515625 8.3701171875 17.83984375 7.099609375 17.7998046875 c 0
 6.322265625 17.787109375 5.5712890625 17.638671875 4.8798828125 17.3798828125 c 0
 4.2998046875 17.169921875 3.919921875 16.900390625 3.5 16.48046875 c 0
 3.080078125 16.0595703125 2.7998046875 15.669921875 2.599609375 15.099609375 c 0
 2.34375 14.4072265625 2.1953125 13.6572265625 2.1796875 12.8798828125 c 0
 2.1298828125 11.6103515625 2.1201171875 11.2099609375 2.1201171875 8.009765625 c 0
 2.1201171875 4.8203125 2.1298828125 4.4296875 2.1796875 3.169921875 c 0
 2.1943359375 2.3896484375 2.34375 1.6357421875 2.599609375 0.9404296875 c 0
 2.79296875 0.412109375 3.1015625 -0.05859375 3.5 -0.4404296875 c 0
 3.8837890625 -0.8359375 4.353515625 -1.14453125 4.8798828125 -1.33984375 c 0
 5.5751953125 -1.5966796875 6.3291015625 -1.7451171875 7.1103515625 -1.759765625 c 0
 8.3798828125 -1.8203125 8.759765625 -1.83984375 11.9697265625 -1.83984375 c 0
 15.1796875 -1.83984375 15.5595703125 -1.830078125 16.830078125 -1.759765625 c 0
 18 -1.7197265625 18.6396484375 -1.51953125 19.0595703125 -1.3603515625 c 0
 19.6201171875 -1.1396484375 20.0302734375 -0.8798828125 20.4404296875 -0.4599609375 c 0
 20.8603515625 -0.0400390625 21.1201171875 0.3603515625 21.33984375 0.919921875 c 0
 21.59765625 1.615234375 21.74609375 2.369140625 21.759765625 3.150390625 c 0
 21.8203125 4.419921875 21.83984375 4.7998046875 21.83984375 8 c 0
 21.83984375 11.2001953125 21.830078125 11.580078125 21.759765625 12.849609375 c 0
 21.7197265625 14.01953125 21.51953125 14.650390625 21.3603515625 15.080078125 c 0
 21.1396484375 15.6396484375 20.8798828125 16.0400390625 20.4599609375 16.4501953125 c 0
 20.0400390625 16.8798828125 19.6396484375 17.1396484375 19.080078125 17.349609375 c 0
 18.650390625 17.51953125 18.01953125 17.7099609375 16.849609375 17.76953125 c 0
 15.580078125 17.8203125 15.2001953125 17.83984375 12 17.83984375 c 1
12 14.16015625 m 0
 15.3994140625 14.16015625 18.16015625 11.3994140625 18.16015625 8 c 0
 18.16015625 4.6005859375 15.3994140625 1.83984375 12 1.83984375 c 0
 8.6005859375 1.83984375 5.83984375 4.6005859375 5.83984375 8 c 0
 5.83984375 11.3994140625 8.6005859375 14.16015625 12 14.16015625 c 0
12 4 m 0
 14.2080078125 4 16 5.7919921875 16 8 c 0
 16 10.2080078125 14.2080078125 12 12 12 c 0
 9.7919921875 12 8 10.2080078125 8 8 c 0
 8 5.7919921875 9.7919921875 4 12 4 c 0
19.849609375 14.400390625 m 0
 19.849609375 13.6025390625 19.2021484375 12.955078125 18.4052734375 12.955078125 c 0
 17.607421875 12.955078125 16.9599609375 13.6025390625 16.9599609375 14.400390625 c 0
 16.9599609375 15.197265625 17.607421875 15.8447265625 18.4052734375 15.8447265625 c 0
 19.2021484375 15.8447265625 19.849609375 15.197265625 19.849609375 14.400390625 c 0
EndSplineSet
EndChar

StartChar: facebook
Encoding: 302 57604 60
Width: 24
Flags: HW
LayerCount: 2
Fore
SplineSet
24 7.9296875 m 0
 24 7.927734375 23.98828125 7.92578125 23.98828125 7.9228515625 c 0
 23.98828125 1.9404296875 19.6005859375 -3.0263671875 13.8701171875 -3.9296875 c 1
 13.8701171875 4.4599609375 l 1
 16.669921875 4.4599609375 l 1
 17.2001953125 7.9296875 l 1
 13.8701171875 7.9296875 l 1
 13.8701171875 10.1796875 l 2
 13.8701171875 11.1298828125 14.330078125 12.0498046875 15.830078125 12.0498046875 c 2
 17.33984375 12.0498046875 l 1
 17.33984375 15 l 1
 17.33984375 15 15.9697265625 15.240234375 14.66015625 15.240234375 c 0
 11.919921875 15.240234375 10.1298828125 13.5703125 10.1298828125 10.5703125 c 2
 10.1298828125 7.9296875 l 1
 7.080078125 7.9296875 l 1
 7.080078125 4.4599609375 l 1
 10.1201171875 4.4599609375 l 1
 10.1201171875 -3.9296875 l 1
 4.39453125 -3.021484375 0 1.9423828125 0 7.921875 c 0
 0 14.544921875 5.376953125 19.921875 12 19.921875 c 0
 18.6201171875 19.921875 23.9951171875 14.548828125 24 7.9296875 c 0
EndSplineSet
EndChar

StartChar: discord
Encoding: 303 57605 61
Width: 24
Flags: HW
LayerCount: 2
Fore
SplineSet
20.3203125 15.6298828125 m 0
 20.3330078125 15.6240234375 20.34375 15.61328125 20.349609375 15.599609375 c 0
 23.0595703125 11.6201171875 24.400390625 7.1201171875 23.900390625 1.9404296875 c 0
 23.89453125 1.91796875 23.8798828125 1.900390625 23.8603515625 1.8896484375 c 0
 21.8095703125 0.3798828125 19.8203125 -0.5400390625 17.8603515625 -1.1396484375 c 0
 17.8525390625 -1.142578125 17.8447265625 -1.1435546875 17.8369140625 -1.1435546875 c 0
 17.814453125 -1.1435546875 17.794921875 -1.134765625 17.7802734375 -1.1201171875 c 0
 17.330078125 -0.48046875 16.91015625 0.1796875 16.5498046875 0.8798828125 c 0
 16.546875 0.888671875 16.544921875 0.8984375 16.544921875 0.908203125 c 0
 16.544921875 0.939453125 16.5634765625 0.966796875 16.58984375 0.98046875 c 0
 17.2421875 1.2265625 17.8759765625 1.53125 18.4697265625 1.8798828125 c 0
 18.486328125 1.89453125 18.4970703125 1.916015625 18.4970703125 1.9404296875 c 0
 18.4970703125 1.9638671875 18.486328125 1.9853515625 18.4697265625 2 c 2
 18.099609375 2.2998046875 l 2
 18.0888671875 2.3076171875 18.0751953125 2.3125 18.0595703125 2.3125 c 0
 18.044921875 2.3125 18.03125 2.3076171875 18.01953125 2.2998046875 c 0
 16.1923828125 1.4423828125 14.1279296875 0.9638671875 11.9775390625 0.9638671875 c 0
 9.8271484375 0.9638671875 7.787109375 1.4423828125 5.9599609375 2.2998046875 c 0
 5.9482421875 2.3076171875 5.9345703125 2.3125 5.919921875 2.3125 c 0
 5.9052734375 2.3125 5.8916015625 2.3076171875 5.8798828125 2.2998046875 c 2
 5.51953125 2 l 2
 5.5029296875 1.9853515625 5.4931640625 1.9638671875 5.4931640625 1.9404296875 c 0
 5.4931640625 1.916015625 5.5029296875 1.89453125 5.51953125 1.8798828125 c 0
 6.11328125 1.5341796875 6.7431640625 1.23046875 7.3896484375 0.98046875 c 0
 7.4169921875 0.966796875 7.4345703125 0.939453125 7.4345703125 0.908203125 c 0
 7.4345703125 0.8984375 7.43359375 0.888671875 7.4296875 0.8798828125 c 0
 7.080078125 0.1796875 6.669921875 -0.490234375 6.2099609375 -1.1201171875 c 0
 6.1953125 -1.134765625 6.17578125 -1.1435546875 6.1533203125 -1.1435546875 c 0
 6.1455078125 -1.1435546875 6.1376953125 -1.142578125 6.1298828125 -1.1396484375 c 0
 3.9541015625 -0.4716796875 1.91796875 0.5654296875 0.1298828125 1.8896484375 c 0
 0.1142578125 1.90234375 0.103515625 1.919921875 0.099609375 1.9404296875 c 0
 0.029296875 2.6259765625 0.005859375 3.3203125 0.005859375 4.025390625 c 0
 0.005859375 8.3271484375 1.349609375 12.318359375 3.6396484375 15.599609375 c 0
 3.6494140625 15.6142578125 3.6630859375 15.625 3.6796875 15.6298828125 c 0
 5.201171875 16.3310546875 6.8603515625 16.8544921875 8.5595703125 17.150390625 c 0
 8.56640625 17.1513671875 8.572265625 17.15234375 8.5791015625 17.15234375 c 0
 8.6103515625 17.15234375 8.63671875 17.1357421875 8.650390625 17.1103515625 c 0
 8.849609375 16.73046875 9.08984375 16.259765625 9.25 15.8603515625 c 0
 10.15234375 15.9970703125 11.041015625 16.068359375 11.982421875 16.068359375 c 0
 12.9228515625 16.068359375 13.84765625 15.9970703125 14.75 15.8603515625 c 0
 14.91015625 16.240234375 15.150390625 16.73046875 15.349609375 17.1103515625 c 0
 15.3603515625 17.134765625 15.3857421875 17.1513671875 15.4140625 17.1513671875 c 0
 15.419921875 17.1513671875 15.4248046875 17.1513671875 15.4296875 17.150390625 c 0
 17.1328125 16.8544921875 18.7958984375 16.3310546875 20.3203125 15.6298828125 c 0
8.01953125 4.669921875 m 0
 9.2197265625 4.669921875 10.1796875 5.75 10.1796875 7.08984375 c 0
 10.2001953125 8.41015625 9.23046875 9.509765625 8.01953125 9.509765625 c 0
 6.8203125 9.509765625 5.8603515625 8.419921875 5.8603515625 7.08984375 c 0
 5.8603515625 5.75 6.83984375 4.669921875 8.01953125 4.669921875 c 0
15.990234375 4.669921875 m 0
 17.2099609375 4.669921875 18.150390625 5.75 18.150390625 7.08984375 c 0
 18.169921875 8.41015625 17.2099609375 9.509765625 15.990234375 9.509765625 c 0
 14.7900390625 9.509765625 13.83984375 8.419921875 13.83984375 7.08984375 c 0
 13.83984375 5.75 14.8095703125 4.669921875 15.990234375 4.669921875 c 0
EndSplineSet
EndChar

StartChar: twitter
Encoding: 304 57606 62
Width: 24
Flags: HW
LayerCount: 2
Fore
SplineSet
24 15.400390625 m 1
 23.2998046875 14.400390625 22.5 13.599609375 21.5 12.900390625 c 0
 22.2001953125 2.5 10.5 -6 0.099609375 0.5 c 1
 2.7001953125 0.2001953125 5.400390625 0.900390625 7.400390625 2.5 c 1
 5.2998046875 2.5 3.400390625 3.900390625 2.7998046875 5.900390625 c 1
 3.5 5.7998046875 4.2998046875 5.7998046875 5 6 c 1
 2.599609375 6.5 1 8.5 1 10.900390625 c 1
 1.599609375 10.5 2.400390625 10.2998046875 3.2001953125 10.2998046875 c 1
 1.099609375 11.599609375 0.2998046875 14.7001953125 1.7998046875 16.7001953125 c 1
 4.2998046875 13.7001953125 7.900390625 11.7998046875 11.900390625 11.599609375 c 1
 10.7998046875 16.400390625 16.900390625 19.7001953125 20.2998046875 16.099609375 c 0
 21.400390625 16.2998046875 22.400390625 16.7001953125 23.400390625 17.2998046875 c 1
 23 16.2001953125 22.2001953125 15.2001953125 21.2001953125 14.599609375 c 1
 22.1845703125 14.71484375 23.138671875 14.9931640625 24 15.400390625 c 1
EndSplineSet
EndChar

StartChar: windows
Encoding: 305 57632 63
Width: 24
Flags: HW
LayerCount: 2
Fore
SplineSet
0 16.5498046875 m 1
 9.75 17.900390625 l 1
 9.75 8.4501953125 l 1
 0 8.4501953125 l 1
 0 16.5498046875 l 1
10.9501953125 18.0498046875 m 1
 24 20 l 1
 24 8.599609375 l 1
 10.9501953125 8.599609375 l 1
 10.9501953125 18.0498046875 l 1
0 7.400390625 m 1
 9.75 7.400390625 l 1
 9.75 -2.0498046875 l 1
 0 -0.7001953125 l 1
 0 7.400390625 l 1
10.9501953125 7.400390625 m 1
 24 7.400390625 l 1
 24 -4 l 1
 11.099609375 -2.2001953125 l 1
 10.9501953125 7.400390625 l 1
EndSplineSet
EndChar

StartChar: windows11
Encoding: 306 57633 64
Width: 24
Flags: HW
LayerCount: 2
Fore
SplineSet
0 20 m 1
 11.3798828125 20 l 1
 11.3798828125 8.6298828125 l 1
 0 8.6298828125 l 1
 0 20 l 1
12.6201171875 20 m 1
 24 20 l 1
 24 8.6298828125 l 1
 12.6201171875 8.6298828125 l 1
 12.6201171875 20 l 1
0 7.3798828125 m 1
 11.3798828125 7.3798828125 l 1
 11.3798828125 -4 l 1
 0 -4 l 1
 0 7.3798828125 l 1
12.6201171875 7.3798828125 m 1
 24 7.3798828125 l 1
 24 -4 l 1
 12.6201171875 -4 l 1
 12.6201171875 7.3798828125 l 1
EndSplineSet
EndChar

StartChar: linux
Encoding: 307 57634 65
Width: 24
Flags: HW
LayerCount: 2
Fore
SplineSet
12.5 20 m 2
 16.2998046875 20 16.099609375 16 16 14.099609375 c 0
 16 12.7001953125 16.7998046875 11.7001953125 17.599609375 10.7001953125 c 0
 19.2001953125 8.7001953125 20.7998046875 6.099609375 19.900390625 3.5 c 1
 20 3.5 20 3.400390625 20.099609375 3.400390625 c 0
 20.2001953125 3.400390625 20.2998046875 3.2998046875 20.2998046875 3.2998046875 c 2
 20.7998046875 2.7998046875 20.7001953125 1.7998046875 21.099609375 1.2998046875 c 2
 21.099609375 1.2001953125 l 2
 21.599609375 0.599609375 21.7998046875 0.2001953125 21.7998046875 -0.2001953125 c 0
 21.599609375 -1.5 19.599609375 -1.5 18.7998046875 -2.599609375 c 0
 18.2001953125 -3.2998046875 17.400390625 -3.7998046875 16.5 -3.900390625 c 0
 15.7001953125 -3.900390625 15 -3.599609375 14.599609375 -2.7998046875 c 0
 14.599609375 -2.7001953125 14.5 -2.599609375 14.5 -2.5 c 1
 13.5 -2.599609375 12.599609375 -2.2001953125 11.900390625 -2.2998046875 c 0
 10.7998046875 -2.2998046875 10.2001953125 -2.599609375 9.599609375 -2.599609375 c 0
 9.400390625 -3.099609375 8.900390625 -3.5 8.400390625 -3.599609375 c 0
 7.7001953125 -3.7998046875 6.7001953125 -3.599609375 5.7998046875 -3.099609375 c 0
 4.900390625 -2.599609375 3.7998046875 -2.7001953125 3 -2.5 c 0
 2.599609375 -2.400390625 2.2998046875 -2.2001953125 2.099609375 -1.900390625 c 0
 1.900390625 -1.5 2 -1.099609375 2.2001953125 -0.400390625 c 0
 2.2998046875 -0.099609375 2.2998046875 0.2001953125 2.2001953125 0.599609375 c 0
 2.099609375 0.900390625 2.099609375 1.400390625 2.2998046875 1.7001953125 c 0
 2.5 2.099609375 2.900390625 2.2998046875 3.2001953125 2.400390625 c 0
 3.5 2.5 3.7998046875 2.599609375 4 2.7998046875 c 0
 4.2001953125 3 4.400390625 3.2998046875 4.7001953125 3.599609375 c 2
 4.7998046875 3.7001953125 l 2
 4.5 6.2998046875 6.2001953125 8.7001953125 7.7998046875 10.7001953125 c 0
 8.5 11.599609375 8.900390625 12.599609375 8.900390625 13.7001953125 c 0
 8.900390625 15.2001953125 7.7998046875 19.599609375 12 20 c 2
 12.5 20 l 2
13.099609375 16.599609375 m 0
 12.2001953125 16.7001953125 11.7001953125 15.599609375 11.900390625 14.7998046875 c 2
 12.5 14.599609375 l 1
 12.2998046875 16.599609375 14.2998046875 15.5 13.2998046875 14.2998046875 c 1
 13.5 14.2998046875 13.7001953125 14.2001953125 13.900390625 14.099609375 c 0
 14.599609375 14.900390625 14.2998046875 16.599609375 13.099609375 16.599609375 c 0
10.099609375 16.5 m 0
 9.099609375 16.2998046875 9.099609375 14.7001953125 9.7001953125 14.099609375 c 0
 9.7998046875 14.099609375 9.900390625 14.2001953125 10 14.2998046875 c 1
 9.099609375 15.2001953125 10.599609375 16.5 10.5 14.7001953125 c 1
 10.7001953125 14.7001953125 10.7998046875 14.900390625 11 14.900390625 c 0
 11.099609375 15.5 10.900390625 16.5 10.099609375 16.5 c 0
11.400390625 14.7998046875 m 0
 12.099609375 14.900390625 12.7998046875 14.2001953125 13.7001953125 13.900390625 c 0
 14 13.7998046875 14.099609375 13.599609375 14.2001953125 13.5 c 1
 14.2001953125 13.7001953125 l 1
 14.400390625 13.099609375 13.7998046875 12.7001953125 13.2001953125 12.400390625 c 0
 12.599609375 12.099609375 12.2001953125 11.599609375 11.400390625 11.7001953125 c 0
 11.2001953125 11.7001953125 11.099609375 11.7001953125 11 11.7998046875 c 0
 10.900390625 11.900390625 10.7998046875 11.900390625 10.7001953125 12 c 0
 10.400390625 12 10.2001953125 12.2001953125 10 12.400390625 c 0
 9.599609375 12.599609375 9.400390625 12.900390625 9.2998046875 13.099609375 c 0
 9.099609375 13.599609375 9.7001953125 13.7998046875 10 14 c 2
 10.2001953125 14.099609375 l 2
 10.400390625 14.5 10.900390625 14.900390625 11.400390625 14.7998046875 c 0
14.2001953125 12.7001953125 m 1
 14 12.400390625 13.7001953125 12.099609375 13.2001953125 12 c 0
 13 11.900390625 12.7998046875 11.7001953125 12.5 11.599609375 c 0
 12.2001953125 11.400390625 11.900390625 11.2998046875 11.5 11.2998046875 c 2
 11.400390625 11.2998046875 l 2
 11 11.2998046875 10.7001953125 11.400390625 10.5 11.599609375 c 0
 10.2998046875 11.7998046875 10.099609375 12 9.900390625 12.099609375 c 2
 9.599609375 12.2998046875 l 1
 9.599609375 10.5 8.400390625 8.2998046875 7.7998046875 7 c 0
 7.5 6.099609375 7.2001953125 5.099609375 7.2001953125 4.099609375 c 1
 6.2001953125 5.5 6.900390625 7.2001953125 7.2998046875 8 c 0
 7.7001953125 8.900390625 7.7998046875 9.099609375 7.7001953125 9 c 0
 7.099609375 8.099609375 6.7001953125 7.2001953125 6.400390625 6.2001953125 c 0
 6.2001953125 5.099609375 6.400390625 3.900390625 7.599609375 3.2001953125 c 0
 8.5 2.7001953125 9 2.2001953125 9.400390625 1.7001953125 c 0
 9.7001953125 1.2001953125 9.7998046875 0.7998046875 9.7001953125 0.5 c 0
 9.7001953125 0.400390625 9.5 0.2998046875 9.400390625 0.2001953125 c 0
 9.2001953125 0.099609375 9.099609375 0.099609375 8.900390625 0.099609375 c 1
 9 0 9.099609375 -0.099609375 9.099609375 -0.2998046875 c 0
 9.2998046875 -0.400390625 9.400390625 -0.599609375 9.5 -0.7998046875 c 0
 11.2998046875 -2 13.400390625 -1.599609375 14.900390625 -0.5 c 0
 15 0.099609375 15.2001953125 0.599609375 15.2001953125 0.900390625 c 0
 15.2001953125 1.599609375 15.2998046875 2.2001953125 15.400390625 2.7998046875 c 0
 15.509765625 3.29296875 15.7998046875 3.7177734375 16.2001953125 4 c 2
 16.2998046875 4 l 1
 16.2998046875 5.7001953125 19.599609375 4.400390625 19.2001953125 3.400390625 c 1
 19.400390625 3.400390625 l 2
 19.599609375 4 19.2001953125 4.400390625 18.2001953125 4.900390625 c 0
 18.099609375 4.900390625 18.099609375 5 18 5 c 1
 18.2998046875 6.599609375 17.5 8.2998046875 16.2998046875 9.400390625 c 0
 16.2001953125 9.400390625 16.2001953125 9.2998046875 16.400390625 9.099609375 c 0
 17 8.599609375 18.099609375 6.7998046875 17.5 5.099609375 c 1
 17.2998046875 5.2001953125 17.099609375 5.2001953125 17 5.2001953125 c 0
 16.7998046875 6.5 16.2001953125 7.7001953125 15.900390625 8.2001953125 c 0
 15.400390625 9.2001953125 14.599609375 11.2998046875 14.2001953125 12.7001953125 c 1
16.400390625 3.7001953125 m 1
 16.400390625 2 18.2001953125 2 19.099609375 3.099609375 c 0
 19.900390625 3.2001953125 20.400390625 2.7998046875 20.599609375 2 c 0
 20.599609375 1.099609375 21.7001953125 0.400390625 21.599609375 -0.2001953125 c 0
 21.2001953125 -1.2998046875 19.5 -1.2001953125 18.599609375 -2.400390625 c 0
 17.7998046875 -3.5 15.7001953125 -4.2998046875 15 -2.7001953125 c 0
 14.599609375 -1.7998046875 15.5 -0.099609375 15.5 0.900390625 c 0
 15.7001953125 2 15.5 3.2001953125 16.400390625 3.7001953125 c 1
5.599609375 3.7001953125 m 0
 6.599609375 3.7998046875 7.2998046875 2 7.7001953125 1.2998046875 c 0
 12.5 -4.900390625 7.2001953125 -2.900390625 3.2998046875 -2.099609375 c 0
 1.7001953125 -2 3 -0.5 2.599609375 0.599609375 c 0
 2.2001953125 2 3.400390625 2 4.2001953125 2.5 c 0
 4.7001953125 2.900390625 4.900390625 3.599609375 5.599609375 3.7001953125 c 0
12.7998046875 12.7998046875 m 0
 12.400390625 12.599609375 11.900390625 12.2998046875 11.2998046875 12.2998046875 c 0
 10.7998046875 12.2998046875 10.2998046875 12.599609375 10 12.7998046875 c 0
 9.900390625 12.7998046875 9.2998046875 13.2001953125 9.599609375 13.2998046875 c 0
 9.7001953125 13.2998046875 9.7001953125 13.2001953125 9.7998046875 13.099609375 c 0
 9.900390625 13.099609375 10 13 10.099609375 12.7998046875 c 0
 10.400390625 12.599609375 10.7998046875 12.2998046875 11.2998046875 12.2998046875 c 0
 11.7998046875 12.2998046875 12.2998046875 12.599609375 12.7998046875 12.7998046875 c 2
 13.400390625 13.2998046875 l 2
 13.5 13.400390625 13.5 13.599609375 13.7001953125 13.599609375 c 0
 13.7998046875 13.599609375 13.7001953125 13.5 13.599609375 13.2998046875 c 0
 13.2001953125 13.099609375 13 12.900390625 12.7998046875 12.7998046875 c 0
11.7001953125 14.2998046875 m 1
 11.7001953125 14.400390625 11.7001953125 14.400390625 11.7001953125 14.2998046875 c 1
 11.7998046875 14.400390625 11.900390625 14.400390625 12 14.400390625 c 0
 12.099609375 14.400390625 12.2001953125 14.2998046875 12.099609375 14.2998046875 c 1
 12.099609375 14.2001953125 11.900390625 14.2001953125 11.7998046875 14.2998046875 c 2
 11.7001953125 14.2998046875 l 1
11.099609375 14.2998046875 m 1
 11 14.2998046875 10.900390625 14.2001953125 10.7998046875 14.2001953125 c 0
 10.400390625 14.2998046875 10.900390625 14.5 11.099609375 14.400390625 c 2
 11.099609375 14.2998046875 l 1
 11.099609375 14.400390625 11.099609375 14.2998046875 11.099609375 14.2998046875 c 1
EndSplineSet
EndChar

StartChar: debian
Encoding: 308 57635 66
Width: 24
Flags: HW
LayerCount: 2
Fore
SplineSet
13.900390625 7.2998046875 m 2
 13.5 7.2998046875 14 7.099609375 14.5 7 c 0
 14.599609375 7.099609375 14.7998046875 7.2001953125 14.900390625 7.2998046875 c 1
 13.900390625 7.2998046875 l 2
16 7.7998046875 m 1
 16.099609375 8.2001953125 16.400390625 8.5 16.5 8.900390625 c 1
 16.400390625 8.599609375 16.2998046875 8.400390625 16.2001953125 8.2001953125 c 0
 15.400390625 7.7001953125 16.099609375 8.5 16.2001953125 8.7998046875 c 1
 15.400390625 7.7001953125 16.099609375 8.099609375 16 7.7998046875 c 1
16.7998046875 9.900390625 m 0
 16.7998046875 10.599609375 16.7001953125 10.400390625 16.599609375 10.099609375 c 1
 16.7001953125 10.099609375 16.7001953125 9.599609375 16.7998046875 9.900390625 c 0
12.400390625 19.7001953125 m 1
 12.599609375 19.7001953125 12.7998046875 19.599609375 12.7998046875 19.599609375 c 2
 13 19.599609375 13.099609375 19.7001953125 12.400390625 19.7001953125 c 1
12.7998046875 19.599609375 m 1
 12.7001953125 19.599609375 l 1
 12.7998046875 19.599609375 l 1
19.400390625 9.599609375 m 1
 19.2001953125 9.2001953125 l 1
 19.5 10.099609375 19.400390625 11 19.400390625 11.900390625 c 1
 19.2998046875 11.900390625 l 1
 19 16 14.599609375 18.7001953125 11.2001953125 17.2998046875 c 1
 11.2998046875 17.5 11.900390625 17.5 11.7001953125 17.599609375 c 0
 10.2001953125 17.5 10.5 17.099609375 9.2998046875 16.7998046875 c 0
 9 16.400390625 10.2998046875 17 9.599609375 16.599609375 c 0
 9 16.400390625 8.7001953125 16.7001953125 7.7001953125 15.7001953125 c 1
 7.7998046875 15.599609375 8.2998046875 16.099609375 7.900390625 15.599609375 c 0
 7 15.7001953125 5 13.5 4.599609375 12.7998046875 c 1
 4.7998046875 12.7998046875 l 1
 4.400390625 11.900390625 4 11.400390625 3.900390625 10.7998046875 c 0
 3.7998046875 9.5 3.400390625 7.099609375 4 6.400390625 c 2
 3.900390625 5.7998046875 l 2
 4 5.599609375 4.099609375 5.5 4.2001953125 5.2998046875 c 1
 4 5.2998046875 l 1
 4.7001953125 3.2001953125 4.7001953125 5.2998046875 5.599609375 3.099609375 c 1
 5.5 3.099609375 5.400390625 3.2001953125 5.2001953125 3.400390625 c 1
 5.2001953125 3.2001953125 5.5 2.599609375 5.7998046875 2.2001953125 c 2
 5.7001953125 2 l 2
 5.900390625 1.7001953125 6.099609375 1.599609375 6.2001953125 1.5 c 1
 5.5 1.900390625 6.900390625 0.2001953125 7 0 c 1
 7.099609375 0.2001953125 l 1
 7.099609375 -0.099609375 7.2998046875 -0.5 7.7001953125 -1 c 2
 8 -1 l 2
 8.2001953125 -1.2998046875 8.7001953125 -1.7998046875 9 -1.7998046875 c 1
 8.900390625 -2.099609375 l 2
 9.7001953125 -2.400390625 9.2998046875 -2.5 10.2998046875 -2.7998046875 c 1
 10.099609375 -2.400390625 l 1
 10.5 -2.7998046875 10.7001953125 -3.2001953125 11.400390625 -3.5 c 0
 12.400390625 -3.900390625 12.5 -3.7001953125 13.5 -4 c 1
 12.599609375 -4 11.7001953125 -4 11 -3.7998046875 c 0
 6.400390625 -2.599609375 2.2998046875 2.7001953125 2.599609375 8.2001953125 c 0
 2.5 9.400390625 2.7001953125 10.7001953125 2.5 11 c 0
 2.7998046875 11.900390625 3.099609375 12.900390625 3.7001953125 14.099609375 c 0
 3.599609375 14.2001953125 3.7998046875 13.900390625 4.099609375 14.400390625 c 0
 4.2001953125 14.7998046875 4.400390625 15.2998046875 4.7998046875 15.7001953125 c 2
 4.900390625 15.7001953125 l 2
 5 16.400390625 6.599609375 17.5 7 18 c 1
 7 17.7998046875 l 1
 8 18.7001953125 9.7001953125 19.2998046875 10.7001953125 19.7998046875 c 1
 10.5 19.599609375 11.2998046875 19.900390625 11.900390625 19.900390625 c 1
 11.2998046875 19.599609375 l 1
 12 19.7001953125 12 19.5 12.7001953125 19.599609375 c 1
 12.5 19.5 12.099609375 19.400390625 12.2001953125 19.400390625 c 0
 13 19.2998046875 13.099609375 19.599609375 13.900390625 19.400390625 c 1
 13.7998046875 19.599609375 l 1
 14.7998046875 19.2001953125 15 19.2998046875 16.2001953125 18.7001953125 c 0
 16.7001953125 18.7001953125 16.7001953125 18.900390625 17.2998046875 18.7001953125 c 0
 17.400390625 18.5 17.2001953125 18.5 18 18 c 0
 18.099609375 18 17.900390625 18.2001953125 17.7001953125 18.5 c 1
 19.5 17.5 20.7998046875 16 21.400390625 14.099609375 c 1
 20.900390625 14.900390625 21.400390625 13.599609375 21.2001953125 13.7001953125 c 1
 21.400390625 13.099609375 21.599609375 12.5 21.7001953125 11.900390625 c 1
 21.5 12.400390625 21.2001953125 13.599609375 20.7001953125 14.400390625 c 1
 20.7001953125 13.900390625 20.099609375 14.7998046875 20.400390625 13.7001953125 c 0
 20.7001953125 13.2998046875 20.5 14.099609375 20.7998046875 13.400390625 c 0
 20.7998046875 13.099609375 20.900390625 12.7001953125 21 12.2998046875 c 1
 20.900390625 12.2998046875 20.7998046875 12.7001953125 20.7001953125 12.599609375 c 0
 20.7998046875 12 21 11.7998046875 21.099609375 11.7001953125 c 0
 21.099609375 11.599609375 21 11.7998046875 21 11.400390625 c 0
 21 10.599609375 21.2001953125 11 21.2998046875 10.900390625 c 0
 21.2001953125 10.5 20.7998046875 10 21 9.2998046875 c 1
 21 9.5 20.900390625 9.7001953125 20.7998046875 9.900390625 c 1
 20.7998046875 9.2998046875 21 9.099609375 20.7001953125 8.400390625 c 1
 20.900390625 9.099609375 20.900390625 9.7001953125 20.7001953125 9.400390625 c 0
 20.7001953125 8.400390625 19.900390625 7.7001953125 20 7.099609375 c 1
 19.7998046875 7.400390625 l 1
 19.099609375 6.5 19.7001953125 6.900390625 19.2998046875 6.2001953125 c 1
 19.400390625 6.400390625 19.2001953125 6.2998046875 19.400390625 6.599609375 c 1
 19.2001953125 6.599609375 18.7001953125 6.099609375 18.2998046875 5.7001953125 c 0
 16.599609375 4.400390625 14.400390625 4.099609375 12.400390625 4.900390625 c 0
 12.2998046875 4.7998046875 12.7998046875 4.5 13.099609375 4.2998046875 c 0
 13.7998046875 4 14.599609375 3.900390625 15.400390625 4 c 1
 13.900390625 3.400390625 11 4.599609375 10.099609375 6.2998046875 c 1
 10.2998046875 6.2998046875 11 5.2001953125 11.599609375 5 c 1
 11.2998046875 5.2001953125 11 5.599609375 10.7998046875 5.900390625 c 1
 11.2001953125 5.400390625 11.7001953125 5 12.2998046875 4.7001953125 c 1
 12.2998046875 4.900390625 12.5 4.900390625 12.2001953125 5.099609375 c 0
 10.5 6.5 9.400390625 7.599609375 9.7998046875 10.2001953125 c 0
 10 10.2998046875 10.099609375 11.400390625 10.7001953125 11.7998046875 c 0
 11.599609375 13.7001953125 14.7998046875 13.900390625 16.099609375 12.099609375 c 1
 15 13 13.5 13.2001953125 12.2998046875 12.5 c 0
 11 11.900390625 10.2001953125 10.5 10.2998046875 9 c 1
 10.2998046875 9.099609375 10.400390625 9 10.400390625 9.2001953125 c 1
 10.2998046875 6.2998046875 13.400390625 4.2998046875 15.599609375 5.2998046875 c 1
 15.599609375 5.2001953125 l 1
 16.5 5.5 16.400390625 5.7001953125 17 6.099609375 c 1
 16.900390625 6 16.599609375 5.7998046875 16.7998046875 5.7998046875 c 0
 17.099609375 5.900390625 18 6.7001953125 18.400390625 7.099609375 c 0
 18.599609375 7.599609375 18.2998046875 7.400390625 18.599609375 7.900390625 c 2
 19 8.099609375 l 2
 19.2001953125 8.7001953125 19.400390625 9 19.400390625 9.599609375 c 1
9.5 6.7998046875 m 1
 9.400390625 6.5 l 2
 9.7001953125 6.099609375 9.900390625 5.7998046875 10.2001953125 5.5 c 1
 10.099609375 5.900390625 9.900390625 6.099609375 9.5 6.7998046875 c 1
10.2001953125 6.7998046875 m 2
 10.099609375 6.900390625 10 7.099609375 9.900390625 7.2998046875 c 1
 10 7 10.2001953125 6.7001953125 10.2998046875 6.400390625 c 1
 10.2001953125 6.7998046875 l 2
21.099609375 9.2001953125 m 1
 21 9 l 2
 20.900390625 8.2001953125 20.7001953125 7.5 20.2998046875 6.7998046875 c 1
 20.7001953125 7.5 21 8.2998046875 21.099609375 9.2001953125 c 1
12.400390625 19.900390625 m 2
 12.7001953125 20 13.099609375 19.900390625 13.400390625 20 c 1
 13 20 12.7001953125 19.900390625 12.2998046875 19.900390625 c 1
 12.400390625 19.900390625 l 2
3 14.900390625 m 1
 3 14.2998046875 2.599609375 14.099609375 3.099609375 14.5 c 0
 3.400390625 15.099609375 3 14.599609375 3 14.900390625 c 1
2.400390625 12.2001953125 m 1
 2.5 12.599609375 2.5 12.7998046875 2.599609375 13 c 1
 2.2001953125 12.599609375 2.400390625 12.5 2.400390625 12.2001953125 c 1
EndSplineSet
EndChar

StartChar: ubuntu
Encoding: 309 57636 67
Width: 24
Flags: HW
LayerCount: 2
Fore
SplineSet
17.6103515625 19.5400390625 m 0
 19.48828125 19.5400390625 21.0146484375 18.017578125 21.01953125 16.1396484375 c 0
 21.01953125 16.13671875 21.01953125 16.1337890625 21.01953125 16.1298828125 c 0
 21.01953125 14.248046875 19.4921875 12.7197265625 17.6103515625 12.7197265625 c 0
 15.7275390625 12.7197265625 14.2001953125 14.248046875 14.2001953125 16.1298828125 c 0
 14.2001953125 16.1328125 14.2001953125 16.13671875 14.2001953125 16.1396484375 c 0
 14.205078125 18.017578125 15.7314453125 19.5400390625 17.6103515625 19.5400390625 c 0
12.919921875 19.2001953125 m 0
 13.1923828125 19.19921875 13.4521484375 19.189453125 13.7197265625 19.169921875 c 1
 13.12109375 18.3984375 12.744140625 17.4375 12.6904296875 16.400390625 c 0
 9.9130859375 16.353515625 7.4677734375 14.9521484375 5.990234375 12.8203125 c 0
 5.2412109375 13.28125 4.3544921875 13.5498046875 3.4111328125 13.5498046875 c 2
 3.41015625 13.5498046875 l 2
 3.3662109375 13.55078125 3.326171875 13.5517578125 3.2822265625 13.5517578125 c 0
 3.23828125 13.5517578125 3.1943359375 13.55078125 3.150390625 13.5498046875 c 1
 5.1396484375 17.0595703125 8.919921875 19.2197265625 12.919921875 19.2001953125 c 0
22.150390625 14.2001953125 m 2
 22.150390625 14.2099609375 l 1
 23.31640625 12.4462890625 23.9990234375 10.3134765625 23.9990234375 8.04296875 c 0
 23.9990234375 5.4287109375 23.09765625 3.0234375 21.58984375 1.1201171875 c 1
 21.32421875 2.1318359375 20.74609375 3.015625 19.9599609375 3.66015625 c 0
 20.7451171875 4.93359375 21.1982421875 6.4501953125 21.1982421875 8.0546875 c 0
 21.1982421875 9.46484375 20.84765625 10.7939453125 20.23046875 11.9599609375 c 0
 21.0810546875 12.4912109375 21.751953125 13.2685546875 22.150390625 14.2001953125 c 2
3.400390625 12.080078125 m 2
 3.41015625 12.0703125 l 2
 5.2919921875 12.0703125 6.8203125 10.5419921875 6.8203125 8.66015625 c 0
 6.8203125 8.6572265625 6.8203125 8.6533203125 6.8203125 8.650390625 c 0
 6.814453125 6.7724609375 5.2890625 5.25 3.41015625 5.25 c 0
 1.5283203125 5.25 0 6.7783203125 0 8.66015625 c 0
 -0 8.6630859375 0 8.6669921875 0 8.669921875 c 0
 0 10.548828125 1.5224609375 12.07421875 3.400390625 12.080078125 c 2
5.4296875 4.2099609375 m 0
 6.5546875 2.0263671875 8.62109375 0.4130859375 11.08984375 -0.1103515625 c 0
 11.3642578125 -0.1669921875 11.646484375 -0.2109375 11.9296875 -0.240234375 c 0
 11.9541015625 -1.3076171875 12.32421875 -2.296875 12.9296875 -3.08984375 c 1
 12.8935546875 -3.0908203125 12.8662109375 -3.08984375 12.830078125 -3.08984375 c 0
 12.0341796875 -3.08984375 11.2587890625 -3.0078125 10.509765625 -2.849609375 c 0
 6.8671875 -2.08203125 3.8779296875 0.4677734375 2.509765625 3.849609375 c 1
 2.7998046875 3.796875 3.09765625 3.771484375 3.40234375 3.771484375 c 0
 4.125 3.771484375 4.8115234375 3.9287109375 5.4296875 4.2099609375 c 0
16.830078125 3.2802734375 m 2
 16.83984375 3.2802734375 l 2
 18.7177734375 3.2744140625 20.240234375 1.7490234375 20.240234375 -0.1298828125 c 0
 20.240234375 -2.01171875 18.7119140625 -3.5400390625 16.830078125 -3.5400390625 c 0
 14.953125 -3.5341796875 13.4296875 -2.0087890625 13.4296875 -0.1298828125 c 0
 13.4296875 -0.126953125 13.4296875 -0.123046875 13.4296875 -0.1201171875 c 0
 13.435546875 1.75390625 14.9560546875 3.2744140625 16.830078125 3.2802734375 c 2
EndSplineSet
EndChar

StartChar: archlinux
Encoding: 310 57637 68
Width: 24
Flags: HW
LayerCount: 2
Fore
SplineSet
11.3896484375 19.400390625 m 1
 11.400390625 19.3896484375 l 2
 13.48046875 14.5 13.9697265625 12.990234375 20.0595703125 1.650390625 c 1
 19.2900390625 2.1103515625 18.2998046875 2.51953125 16.919921875 2.8701171875 c 1
 18.9296875 1.849609375 19.91015625 0.900390625 20.8603515625 0.169921875 c 2
 22.7900390625 -3.400390625 l 1
 19.2197265625 -1.349609375 16.4501953125 -0.0595703125 13.8701171875 0.4404296875 c 1
 13.958984375 0.8447265625 14.009765625 1.26171875 14.01953125 1.6904296875 c 0
 14.0703125 3.990234375 12.9697265625 5.9697265625 11.5400390625 6.08984375 c 0
 10.1103515625 6.2197265625 8.91015625 4.4296875 8.849609375 2.1201171875 c 2
 8.849609375 2 l 2
 8.849609375 1.986328125 8.8505859375 1.9775390625 8.8505859375 1.9638671875 c 0
 8.8505859375 1.4501953125 8.9091796875 0.9501953125 9.01953125 0.4697265625 c 1
 6.41015625 -0.01953125 3.6103515625 -1.3095703125 0 -3.3896484375 c 1
 2.90234375 1.697265625 5.6826171875 6.9072265625 8.2998046875 12.169921875 c 1
 9.2744140625 11.390625 10.3740234375 10.759765625 11.5595703125 10.3095703125 c 1
 10.1796875 11.26953125 9.330078125 12.1298828125 8.6298828125 12.8701171875 c 0
 9.759765625 15.2802734375 10.3798828125 16.900390625 11.3896484375 19.400390625 c 1
22.8896484375 -1.3603515625 m 1
 22.8896484375 -0.740234375 l 1
 22.66015625 -0.740234375 l 1
 22.66015625 -0.650390625 l 1
 23.23046875 -0.650390625 l 1
 23.23046875 -0.740234375 l 1
 22.990234375 -0.740234375 l 1
 22.990234375 -1.3603515625 l 1
 23.3203125 -1.3603515625 l 1
 23.3203125 -0.66015625 l 1
 23.4599609375 -0.66015625 l 1
 23.6298828125 -1.16015625 l 1
 23.669921875 -1.259765625 l 1
 23.6787109375 -1.2236328125 23.689453125 -1.185546875 23.7001953125 -1.150390625 c 2
 23.8701171875 -0.650390625 l 1
 24 -0.650390625 l 1
 24 -1.3603515625 l 1
 23.900390625 -1.3603515625 l 1
 23.900390625 -0.759765625 l 1
 23.7001953125 -1.3603515625 l 1
 23.6201171875 -1.3603515625 l 1
 23.419921875 -0.759765625 l 1
 23.419921875 -1.3603515625 l 1
 23.3203125 -1.3603515625 l 1025
EndSplineSet
EndChar

StartChar: chevron left
Encoding: 311 57649 69
Width: 24
Flags: HW
LayerCount: 2
Fore
SplineSet
15.41015625 3.419921875 m 1
 14 2 l 1
 8 8 l 1
 14 14 l 1
 15.41015625 12.58984375 l 1
 10.830078125 8 l 1
 15.41015625 3.419921875 l 1
EndSplineSet
EndChar

StartChar: chevron right
Encoding: 312 57650 70
Width: 24
Flags: HW
LayerCount: 2
Fore
SplineSet
8.58984375 3.419921875 m 1
 13.169921875 8 l 1
 8.58984375 12.58984375 l 1
 10 14 l 1
 16 8 l 1
 10 2 l 1
 8.58984375 3.419921875 l 1
EndSplineSet
EndChar

StartChar: chevron up
Encoding: 313 57651 71
Width: 24
Flags: HW
LayerCount: 2
Fore
SplineSet
7.41015625 4.58984375 m 1
 6 6 l 1
 12 12 l 1
 18 6 l 1
 16.58984375 4.58984375 l 1
 12 9.169921875 l 1
 7.41015625 4.58984375 l 1
EndSplineSet
EndChar

StartChar: chevron down
Encoding: 314 57652 72
Width: 24
Flags: HW
LayerCount: 2
Fore
SplineSet
7.41015625 11.419921875 m 1
 12 6.830078125 l 1
 16.58984375 11.419921875 l 1
 18 10 l 1
 12 4 l 1
 6 10 l 1
 7.41015625 11.419921875 l 1
EndSplineSet
EndChar

StartChar: unfold less horizontal
Encoding: 315 57653 73
Width: 24
Flags: HW
LayerCount: 2
Fore
SplineSet
16.58984375 14.58984375 m 1
 12 10 l 1
 7.41015625 14.58984375 l 1
 8.830078125 16 l 1
 12 12.830078125 l 1
 15.169921875 16 l 1
 16.58984375 14.58984375 l 1
7.41015625 1.41015625 m 1
 12 6 l 1
 16.580078125 1.41015625 l 1
 15.169921875 0 l 1
 12 3.169921875 l 1
 8.830078125 0 l 1
 7.41015625 1.41015625 l 1
EndSplineSet
EndChar

StartChar: unfold less vertical
Encoding: 316 57654 74
Width: 24
Flags: HW
LayerCount: 2
Fore
SplineSet
5.41015625 12.58984375 m 1
 10 8 l 1
 5.41015625 3.41015625 l 1
 4 4.830078125 l 1
 7.169921875 8 l 1
 4 11.169921875 l 1
 5.41015625 12.58984375 l 1
18.58984375 3.41015625 m 1
 14 8 l 1
 18.58984375 12.580078125 l 1
 20 11.169921875 l 1
 16.830078125 8 l 1
 20 4.830078125 l 1
 18.58984375 3.41015625 l 1
EndSplineSet
EndChar

StartChar: unfold more horizontal
Encoding: 317 57655 75
Width: 24
Flags: HW
LayerCount: 2
Fore
SplineSet
12 1.830078125 m 1
 15.169921875 5 l 1
 16.58984375 3.58984375 l 1
 12 -1 l 1
 7.419921875 3.58984375 l 1
 8.830078125 5 l 1
 12 1.830078125 l 1
12 14.169921875 m 1
 8.830078125 11 l 1
 7.41015625 12.41015625 l 1
 12 17 l 1
 16.580078125 12.41015625 l 1
 15.169921875 11 l 1
 12 14.169921875 l 1
EndSplineSet
EndChar

StartChar: unfold more vertical
Encoding: 318 57656 76
Width: 24
Flags: HW
LayerCount: 2
Fore
SplineSet
18.169921875 8 m 1
 15 11.169921875 l 1
 16.41015625 12.58984375 l 1
 21 8 l 1
 16.41015625 3.419921875 l 1
 15 4.830078125 l 1
 18.169921875 8 l 1
5.830078125 8 m 1
 9 4.830078125 l 1
 7.58984375 3.41015625 l 1
 3 8 l 1
 7.58984375 12.580078125 l 1
 9 11.169921875 l 1
 5.830078125 8 l 1
EndSplineSet
EndChar

StartChar: chart pie
Encoding: 319 57680 77
Width: 24
Flags: HW
LayerCount: 2
Fore
SplineSet
11 18 m 1
 11 -2 l 1
 5.9541015625 -1.4931640625 2.009765625 2.771484375 2.009765625 7.94921875 c 0
 2.009765625 7.966796875 2 7.9833984375 2 8 c 0
 2 8.0166015625 2 8.0341796875 2 8.05078125 c 0
 2 13.2294921875 5.9541015625 17.4931640625 11 18 c 1
13 18 m 1
 17.7998046875 17.5 21.5 13.7998046875 22 9 c 1
 13 9 l 1
 13 18 l 1
13 7 m 1
 22 7 l 1
 21.5 2.2001953125 17.7001953125 -1.5 13 -2 c 1
 13 7 l 1
EndSplineSet
EndChar

StartChar: chart arc
Encoding: 320 57681 78
Width: 24
Flags: HW
LayerCount: 2
Fore
SplineSet
16.1796875 0.400390625 m 1
 14.169921875 3.8798828125 l 2
 15.154296875 4.603515625 15.8291015625 5.72265625 15.9697265625 7 c 2
 20 7 l 1
 19.828125 4.2431640625 18.35546875 1.8369140625 16.1796875 0.400390625 c 1
13 12.9697265625 m 2
 13 17 l 1
 17.2998046875 16.740234375 20.740234375 13.2998046875 21 9 c 1
 16.9697265625 9 l 2
 16.740234375 11.0810546875 15.0810546875 12.740234375 13 12.9697265625 c 2
7 7.5 m 0
 7 6.8603515625 7.1298828125 6.25 7.3798828125 5.7001953125 c 2
 3.900390625 3.6904296875 l 1
 3.3291015625 4.833984375 3.0078125 6.123046875 3.0078125 7.4873046875 c 0
 3.0078125 12.0126953125 6.5439453125 15.7265625 11 16 c 1
 11 11.9697265625 l 2
 8.75390625 11.71875 7.0009765625 9.8125 7 7.5 c 0
11.5 -1 m 0
 11.4892578125 -1 11.478515625 -1 11.4677734375 -1 c 0
 8.509765625 -1 5.91015625 0.5146484375 4.400390625 2.8203125 c 1
 7.8798828125 4.830078125 l 2
 8.693359375 3.716796875 10.0087890625 2.9931640625 11.4912109375 2.9931640625 c 0
 12.134765625 2.9931640625 12.7470703125 3.134765625 13.2998046875 3.3798828125 c 2
 15.3095703125 -0.099609375 l 1
 14.16015625 -0.6796875 12.8701171875 -1 11.5 -1 c 0
EndSplineSet
EndChar

StartChar: home
Encoding: 321 57696 79
Width: 24
Flags: HW
LayerCount: 2
Fore
SplineSet
10 0 m 1
 5 0 l 1
 5 8 l 1
 2 8 l 1
 12 17 l 1
 22 8 l 1
 19 8 l 1
 19 0 l 1
 14 0 l 1
 14 6 l 1
 10 6 l 1
 10 0 l 1
EndSplineSet
EndChar

StartChar: home outline
Encoding: 322 57697 80
Width: 24
Flags: HW
LayerCount: 2
Fore
SplineSet
12 14.3095703125 m 1
 7 9.8095703125 l 1
 7 2 l 1
 9 2 l 1
 9 8 l 1
 15 8 l 1
 15 2 l 1
 17 2 l 1
 17 9.8095703125 l 1
 12 14.3095703125 l 1
12 17 m 1
 22 8 l 1
 19 8 l 1
 19 0 l 1
 13 0 l 1
 13 6 l 1
 11 6 l 1
 11 0 l 1
 5 0 l 1
 5 8 l 1
 2 8 l 1
 12 17 l 1
EndSplineSet
EndChar

StartChar: account
Encoding: 323 57698 81
Width: 24
Flags: HW
LayerCount: 2
Fore
SplineSet
12 16 m 0
 14.2080078125 16 16 14.2080078125 16 12 c 0
 16 9.7919921875 14.2080078125 8 12 8 c 0
 9.7919921875 8 8 9.7919921875 8 12 c 0
 8 14.2080078125 9.7919921875 16 12 16 c 0
12 6 m 0
 16.419921875 6 20 4.2099609375 20 2 c 2
 20 0 l 1
 4 0 l 1
 4 2 l 2
 4 4.2099609375 7.580078125 6 12 6 c 0
EndSplineSet
EndChar

StartChar: account outline
Encoding: 324 57699 82
Width: 24
Flags: HW
LayerCount: 2
Fore
SplineSet
12 16 m 0
 14.2080078125 16 16 14.2080078125 16 12 c 0
 16 9.7919921875 14.2080078125 8 12 8 c 0
 9.7919921875 8 8 9.7919921875 8 12 c 0
 8 14.2080078125 9.7919921875 16 12 16 c 0
12 14 m 0
 10.896484375 14 10 13.103515625 10 12 c 0
 10 10.896484375 10.896484375 10 12 10 c 0
 13.103515625 10 14 10.896484375 14 12 c 0
 14 13.103515625 13.103515625 14 12 14 c 0
12 7 m 0
 14.669921875 7 20 5.669921875 20 3 c 2
 20 0 l 1
 4 0 l 1
 4 3 l 2
 4 5.669921875 9.330078125 7 12 7 c 0
12 5.099609375 m 0
 9.0302734375 5.099609375 5.900390625 3.6396484375 5.900390625 3 c 2
 5.900390625 1.900390625 l 1
 18.099609375 1.900390625 l 1
 18.099609375 3 l 2
 18.099609375 3.6396484375 14.9697265625 5.099609375 12 5.099609375 c 0
EndSplineSet
EndChar

StartChar: alarm light
Encoding: 325 57396 83
Width: 24
Flags: HW
LayerCount: 2
Fore
SplineSet
6 13.099609375 m 1
 3.8701171875 15.2197265625 l 1
 5.2802734375 16.6298828125 l 1
 7.400390625 14.5 l 1
 6 13.099609375 l 1
13 19 m 1
 13 16 l 1
 11 16 l 1
 11 19 l 1
 13 19 l 1
20.1298828125 15.2197265625 m 1
 18 13.099609375 l 1
 16.599609375 14.5 l 1
 18.7197265625 16.6298828125 l 1
 20.1298828125 15.2197265625 l 1
4.5 9.5 m 1
 4.5 7.5 l 1
 1.5 7.5 l 1
 1.5 9.5 l 1
 4.5 9.5 l 1
19.5 9.5 m 1
 22.5 9.5 l 1
 22.5 7.5 l 1
 19.5 7.5 l 1
 19.5 9.5 l 1
6 0 m 2
 18 0 l 2
 19.103515625 0 20 -0.896484375 20 -2 c 1
 4 -2 l 1
 4 -0.896484375 4.896484375 0 6 0 c 2
12 15 m 0
 15.3115234375 15 18 12.3115234375 18 9 c 2
 18 1 l 1
 6 1 l 1
 6 9 l 2
 6 12.3115234375 8.6884765625 15 12 15 c 0
EndSplineSet
EndChar

StartChar: alarm light off
Encoding: 326 57397 84
Width: 24
Flags: HW
LayerCount: 2
Fore
SplineSet
18 5.2001953125 m 1
 9 14.2001953125 l 1
 9.900390625 14.7001953125 10.900390625 15 12 15 c 0
 15.2998046875 15 18 12.2998046875 18 9 c 2
 18 5.2001953125 l 1
20.099609375 15.2001953125 m 1
 18.7001953125 16.599609375 l 1
 16.599609375 14.5 l 1
 18 13.099609375 l 1
 20.099609375 15.2001953125 l 1
19.5 9.5 m 1
 19.5 7.5 l 1
 22.5 7.5 l 1
 22.5 9.5 l 1
 19.5 9.5 l 1
4.5 9.5 m 1
 1.5 9.5 l 1
 1.5 7.5 l 1
 4.5 7.5 l 1
 4.5 9.5 l 1
1.099609375 17 m 1
 2.400390625 18.2998046875 l 1
 22.099609375 -1.400390625 l 1
 20.7998046875 -2.7001953125 l 1
 20.099609375 -2 l 1
 4 -2 l 1
 4 -0.900390625 4.900390625 0 6 0 c 2
 18.099609375 0 l 1
 17.099609375 1 l 1
 6 1 l 1
 6 9 l 2
 6 9.900390625 6.2001953125 10.7998046875 6.599609375 11.5 c 2
 1.099609375 17 l 1
13 19 m 1
 13 16 l 1
 11 16 l 1
 11 19 l 1
 13 19 l 1
EndSplineSet
EndChar

StartChar: alarm light outline
Encoding: 327 57398 85
Width: 24
Flags: HW
LayerCount: 2
Fore
SplineSet
6 13.099609375 m 1
 3.8701171875 15.2197265625 l 1
 5.2802734375 16.6298828125 l 1
 7.400390625 14.5 l 1
 6 13.099609375 l 1
13 19 m 1
 13 16 l 1
 11 16 l 1
 11 19 l 1
 13 19 l 1
20.1298828125 15.2197265625 m 1
 18 13.099609375 l 1
 16.599609375 14.5 l 1
 18.7197265625 16.6298828125 l 1
 20.1298828125 15.2197265625 l 1
4.5 9.5 m 1
 4.5 7.5 l 1
 1.5 7.5 l 1
 1.5 9.5 l 1
 4.5 9.5 l 1
19.5 9.5 m 1
 22.5 9.5 l 1
 22.5 7.5 l 1
 19.5 7.5 l 1
 19.5 9.5 l 1
6 0 m 2
 18 0 l 2
 19.103515625 0 20 -0.896484375 20 -2 c 1
 4 -2 l 1
 4 -0.896484375 4.896484375 0 6 0 c 2
12 15 m 0
 15.3115234375 15 18 12.3115234375 18 9 c 2
 18 1 l 1
 6 1 l 1
 6 9 l 2
 6 12.3115234375 8.6884765625 15 12 15 c 0
12 13 m 0
 9.7919921875 13 8 11.2080078125 8 9 c 2
 8 3 l 1
 16 3 l 1
 16 9 l 2
 16 11.2080078125 14.2080078125 13 12 13 c 0
EndSplineSet
EndChar

StartChar: alarm light off outline
Encoding: 328 57399 86
Width: 24
Flags: HW
LayerCount: 2
Fore
SplineSet
10.5 12.7001953125 m 2
 9 14.2001953125 l 1
 9.900390625 14.7001953125 10.900390625 15 12 15 c 0
 15.2998046875 15 18 12.2998046875 18 9 c 2
 18 5.2001953125 l 1
 16 7.2001953125 l 1
 16 9 l 2
 16 11.2001953125 14.2001953125 13 12 13 c 0
 11.5 13 11 12.900390625 10.5 12.7001953125 c 2
20.099609375 15.2001953125 m 1
 18.7001953125 16.599609375 l 1
 16.599609375 14.5 l 1
 18 13.099609375 l 1
 20.099609375 15.2001953125 l 1
19.5 9.5 m 1
 19.5 7.5 l 1
 22.5 7.5 l 1
 22.5 9.5 l 1
 19.5 9.5 l 1
4.5 9.5 m 1
 1.5 9.5 l 1
 1.5 7.5 l 1
 4.5 7.5 l 1
 4.5 9.5 l 1
2.400390625 18.2998046875 m 1
 22.099609375 -1.400390625 l 1
 20.7998046875 -2.7001953125 l 1
 20.099609375 -2 l 1
 4 -2 l 1
 4 -0.900390625 4.900390625 0 6 0 c 2
 18.099609375 0 l 1
 17.099609375 1 l 1
 6 1 l 1
 6 9 l 2
 6 9.900390625 6.2001953125 10.7998046875 6.599609375 11.5 c 2
 1.099609375 17 l 1
 2.400390625 18.2998046875 l 1
8 3 m 1
 15.099609375 3 l 1
 8.099609375 10 l 1
 8.099609375 9.7001953125 8 9.2998046875 8 9 c 2
 8 3 l 1
13 19 m 1
 13 16 l 1
 11 16 l 1
 11 19 l 1
 13 19 l 1
EndSplineSet
EndChar

StartChar: battery outline
Encoding: 329 57408 87
Width: 24
Flags: HW
LayerCount: 2
Fore
SplineSet
16 0 m 1
 16 14 l 1
 8 14 l 1
 8 0 l 1
 16 0 l 1
16.669921875 16 m 2
 17.400390625 16 18 15.400390625 18 14.669921875 c 2
 18 -0.669921875 l 2
 18 -1.404296875 17.404296875 -2 16.669921875 -2 c 2
 7.330078125 -2 l 2
 6.599609375 -2 6 -1.400390625 6 -0.669921875 c 2
 6 14.669921875 l 2
 6 15.404296875 6.595703125 16 7.330078125 16 c 2
 9 16 l 1
 9 18 l 1
 15 18 l 1
 15 16 l 1
 16.669921875 16 l 2
EndSplineSet
EndChar

StartChar: battery 10
Encoding: 330 57409 88
Width: 24
Flags: HW
LayerCount: 2
Fore
SplineSet
16 2 m 1
 16 14 l 1
 8 14 l 1
 8 2 l 1
 16 2 l 1
16.669921875 16 m 2
 17.400390625 16 18 15.400390625 18 14.669921875 c 2
 18 -0.669921875 l 2
 18 -1.404296875 17.404296875 -2 16.669921875 -2 c 2
 7.330078125 -2 l 2
 6.599609375 -2 6 -1.400390625 6 -0.669921875 c 2
 6 14.669921875 l 2
 6 15.404296875 6.595703125 16 7.330078125 16 c 2
 9 16 l 1
 9 18 l 1
 15 18 l 1
 15 16 l 1
 16.669921875 16 l 2
EndSplineSet
EndChar

StartChar: battery 20
Encoding: 331 57410 89
Width: 24
Flags: HW
LayerCount: 2
Fore
SplineSet
16 3 m 1
 16 14 l 1
 8 14 l 1
 8 3 l 1
 16 3 l 1
16.669921875 16 m 2
 17.400390625 16 18 15.400390625 18 14.669921875 c 2
 18 -0.669921875 l 2
 18 -1.404296875 17.404296875 -2 16.669921875 -2 c 2
 7.330078125 -2 l 2
 6.599609375 -2 6 -1.400390625 6 -0.669921875 c 2
 6 14.669921875 l 2
 6 15.404296875 6.595703125 16 7.330078125 16 c 2
 9 16 l 1
 9 18 l 1
 15 18 l 1
 15 16 l 1
 16.669921875 16 l 2
EndSplineSet
EndChar

StartChar: battery 30
Encoding: 332 57411 90
Width: 24
Flags: HW
LayerCount: 2
Fore
SplineSet
16 5 m 1
 16 14 l 1
 8 14 l 1
 8 5 l 1
 16 5 l 1
16.669921875 16 m 2
 17.400390625 16 18 15.400390625 18 14.669921875 c 2
 18 -0.669921875 l 2
 18 -1.404296875 17.404296875 -2 16.669921875 -2 c 2
 7.330078125 -2 l 2
 6.599609375 -2 6 -1.400390625 6 -0.669921875 c 2
 6 14.669921875 l 2
 6 15.404296875 6.595703125 16 7.330078125 16 c 2
 9 16 l 1
 9 18 l 1
 15 18 l 1
 15 16 l 1
 16.669921875 16 l 2
EndSplineSet
EndChar

StartChar: battery 40
Encoding: 333 57412 91
Width: 24
Flags: HW
LayerCount: 2
Fore
SplineSet
16 6 m 1
 16 14 l 1
 8 14 l 1
 8 6 l 1
 16 6 l 1
16.669921875 16 m 2
 17.400390625 16 18 15.400390625 18 14.669921875 c 2
 18 -0.669921875 l 2
 18 -1.404296875 17.404296875 -2 16.669921875 -2 c 2
 7.330078125 -2 l 2
 6.599609375 -2 6 -1.400390625 6 -0.669921875 c 2
 6 14.669921875 l 2
 6 15.404296875 6.595703125 16 7.330078125 16 c 2
 9 16 l 1
 9 18 l 1
 15 18 l 1
 15 16 l 1
 16.669921875 16 l 2
EndSplineSet
EndChar

StartChar: battery 50
Encoding: 334 57413 92
Width: 24
Flags: HW
LayerCount: 2
Fore
SplineSet
16 7 m 1
 16 14 l 1
 8 14 l 1
 8 7 l 1
 16 7 l 1
16.669921875 16 m 2
 17.400390625 16 18 15.400390625 18 14.669921875 c 2
 18 -0.669921875 l 2
 18 -1.404296875 17.404296875 -2 16.669921875 -2 c 2
 7.330078125 -2 l 2
 6.599609375 -2 6 -1.400390625 6 -0.669921875 c 2
 6 14.669921875 l 2
 6 15.404296875 6.595703125 16 7.330078125 16 c 2
 9 16 l 1
 9 18 l 1
 15 18 l 1
 15 16 l 1
 16.669921875 16 l 2
EndSplineSet
EndChar

StartChar: battery 60
Encoding: 335 57414 93
Width: 24
Flags: HW
LayerCount: 2
Fore
SplineSet
16 8 m 1
 16 14 l 1
 8 14 l 1
 8 8 l 1
 16 8 l 1
16.669921875 16 m 2
 17.400390625 16 18 15.400390625 18 14.669921875 c 2
 18 -0.669921875 l 2
 18 -1.404296875 17.404296875 -2 16.669921875 -2 c 2
 7.330078125 -2 l 2
 6.599609375 -2 6 -1.400390625 6 -0.669921875 c 2
 6 14.669921875 l 2
 6 15.404296875 6.595703125 16 7.330078125 16 c 2
 9 16 l 1
 9 18 l 1
 15 18 l 1
 15 16 l 1
 16.669921875 16 l 2
EndSplineSet
EndChar

StartChar: battery 70
Encoding: 336 57415 94
Width: 24
Flags: HW
LayerCount: 2
Fore
SplineSet
16 10 m 1
 16 14 l 1
 8 14 l 1
 8 10 l 1
 16 10 l 1
16.669921875 16 m 2
 17.400390625 16 18 15.400390625 18 14.669921875 c 2
 18 -0.669921875 l 2
 18 -1.404296875 17.404296875 -2 16.669921875 -2 c 2
 7.330078125 -2 l 2
 6.599609375 -2 6 -1.400390625 6 -0.669921875 c 2
 6 14.669921875 l 2
 6 15.404296875 6.595703125 16 7.330078125 16 c 2
 9 16 l 1
 9 18 l 1
 15 18 l 1
 15 16 l 1
 16.669921875 16 l 2
EndSplineSet
EndChar

StartChar: battery 80
Encoding: 337 57416 95
Width: 24
Flags: HW
LayerCount: 2
Fore
SplineSet
16 11 m 1
 16 14 l 1
 8 14 l 1
 8 11 l 1
 16 11 l 1
16.669921875 16 m 2
 17.400390625 16 18 15.400390625 18 14.669921875 c 2
 18 -0.669921875 l 2
 18 -1.404296875 17.404296875 -2 16.669921875 -2 c 2
 7.330078125 -2 l 2
 6.599609375 -2 6 -1.400390625 6 -0.669921875 c 2
 6 14.669921875 l 2
 6 15.404296875 6.595703125 16 7.330078125 16 c 2
 9 16 l 1
 9 18 l 1
 15 18 l 1
 15 16 l 1
 16.669921875 16 l 2
EndSplineSet
EndChar

StartChar: battery 90
Encoding: 338 57417 96
Width: 24
Flags: HW
LayerCount: 2
Fore
SplineSet
16 12 m 1
 16 14 l 1
 8 14 l 1
 8 12 l 1
 16 12 l 1
16.669921875 16 m 2
 17.400390625 16 18 15.400390625 18 14.669921875 c 2
 18 -0.669921875 l 2
 18 -1.404296875 17.404296875 -2 16.669921875 -2 c 2
 7.330078125 -2 l 2
 6.599609375 -2 6 -1.400390625 6 -0.669921875 c 2
 6 14.669921875 l 2
 6 15.404296875 6.595703125 16 7.330078125 16 c 2
 9 16 l 1
 9 18 l 1
 15 18 l 1
 15 16 l 1
 16.669921875 16 l 2
EndSplineSet
EndChar

StartChar: battery
Encoding: 339 57418 97
Width: 24
Flags: HW
LayerCount: 2
Fore
SplineSet
16.669921875 16 m 2
 17.400390625 16 18 15.400390625 18 14.669921875 c 2
 18 -0.669921875 l 2
 18 -1.404296875 17.404296875 -2 16.669921875 -2 c 2
 7.330078125 -2 l 2
 6.599609375 -2 6 -1.400390625 6 -0.669921875 c 2
 6 14.669921875 l 2
 6 15.404296875 6.595703125 16 7.330078125 16 c 2
 9 16 l 1
 9 18 l 1
 15 18 l 1
 15 16 l 1
 16.669921875 16 l 2
EndSplineSet
EndChar

StartChar: battery alert
Encoding: 340 57419 98
Width: 24
Flags: HW
LayerCount: 2
Fore
SplineSet
13 6 m 1
 13 12 l 1
 11 12 l 1
 11 6 l 1
 13 6 l 1
13 2 m 1
 13 4 l 1
 11 4 l 1
 11 2 l 1
 13 2 l 1
16.7001953125 16 m 2
 17.400390625 16 18 15.400390625 17.900390625 14.7001953125 c 2
 17.900390625 -0.7001953125 l 2
 17.900390625 -1.400390625 17.2998046875 -2 16.599609375 -2 c 2
 7.2998046875 -2 l 2
 6.599609375 -2 6 -1.400390625 6 -0.599609375 c 2
 6 14.7001953125 l 2
 6 15.400390625 6.599609375 16 7.2998046875 16 c 2
 9 16 l 1
 9 18 l 1
 15 18 l 1
 15 16 l 1
 16.7001953125 16 l 2
EndSplineSet
EndChar

StartChar: battery unknown
Encoding: 341 57420 99
Width: 24
Flags: HW
LayerCount: 2
Fore
SplineSet
15.0703125 7.75 m 2
 15.6396484375 8.3203125 16 9.1201171875 16 10 c 0
 16 12.2080078125 14.2080078125 14 12 14 c 0
 9.7919921875 14 8 12.2080078125 8 10 c 1
 10 10 l 1
 10 11.103515625 10.896484375 12 12 12 c 0
 13.099609375 12 14 11.1103515625 14 10 c 0
 14 9.4501953125 13.7802734375 8.9501953125 13.41015625 8.58984375 c 2
 12.169921875 7.330078125 l 2
 11.5595703125 6.7197265625 11.16015625 5.900390625 11.0498046875 5 c 1
 13.08984375 5 l 2
 13.25 5.8203125 13.6298828125 6.2900390625 14.169921875 6.830078125 c 2
 15.0703125 7.75 l 2
13 1 m 1
 13 3 l 1
 11 3 l 1
 11 1 l 1
 13 1 l 1
16.669921875 16 m 2
 17.400390625 16 18 15.41015625 18 14.669921875 c 2
 18 -0.66015625 l 2
 18 -1.400390625 17.400390625 -2 16.669921875 -2 c 2
 7.330078125 -2 l 2
 6.599609375 -2 6 -1.400390625 6 -0.66015625 c 2
 6 14.669921875 l 2
 6 15.404296875 6.595703125 16 7.330078125 16 c 2
 9 16 l 1
 9 18 l 1
 15 18 l 1
 15 16 l 1
 16.669921875 16 l 2
EndSplineSet
EndChar

StartChar: battery charging outline
Encoding: 342 57424 100
Width: 24
Flags: HW
LayerCount: 2
Fore
SplineSet
23.0498046875 9 m 1
 18.0498046875 -2 l 1
 18.0498046875 6 l 1
 15.0498046875 6 l 1
 20.0498046875 16 l 1
 20.0498046875 9 l 1
 23.0498046875 9 l 1
12 0 m 1
 12.0498046875 14 l 1
 4.0498046875 14 l 1
 4 0 l 1
 12 0 l 1
12.7197265625 16 m 2
 13.4541015625 16 14.0498046875 15.404296875 14.0498046875 14.669921875 c 2
 14.0498046875 -0.669921875 l 2
 14.0498046875 -1.400390625 13.4501953125 -2 12.7197265625 -2 c 2
 3.3798828125 -2 l 2
 2.650390625 -2 2.0498046875 -1.400390625 2.0498046875 -0.669921875 c 2
 2.0498046875 14.669921875 l 2
 2.0498046875 15.404296875 2.6455078125 16 3.3798828125 16 c 2
 5.0498046875 16 l 1
 5.0498046875 18 l 1
 11.0498046875 18 l 1
 11.0498046875 16 l 1
 12.7197265625 16 l 2
EndSplineSet
EndChar

StartChar: battery charging 10
Encoding: 343 57425 101
Width: 24
Flags: HW
LayerCount: 2
Fore
SplineSet
23.0498046875 9 m 1
 18.0498046875 -2 l 1
 18.0498046875 6 l 1
 15.0498046875 6 l 1
 20.0498046875 16 l 1
 20.0498046875 9 l 1
 23.0498046875 9 l 1
12 2 m 1
 12.0498046875 14 l 1
 4.0498046875 14 l 1
 4 2 l 1
 12 2 l 1
12.7197265625 16 m 2
 13.4541015625 16 14.0498046875 15.404296875 14.0498046875 14.669921875 c 2
 14.0498046875 -0.669921875 l 2
 14.0498046875 -1.400390625 13.4501953125 -2 12.7197265625 -2 c 2
 3.3798828125 -2 l 2
 2.650390625 -2 2.0498046875 -1.400390625 2.0498046875 -0.669921875 c 2
 2.0498046875 14.669921875 l 2
 2.0498046875 15.404296875 2.6455078125 16 3.3798828125 16 c 2
 5.0498046875 16 l 1
 5.0498046875 18 l 1
 11.0498046875 18 l 1
 11.0498046875 16 l 1
 12.7197265625 16 l 2
EndSplineSet
EndChar

StartChar: battery charging 20
Encoding: 344 57426 102
Width: 24
Flags: HW
LayerCount: 2
Fore
SplineSet
23.0498046875 9 m 1
 18.0498046875 -2 l 1
 18.0498046875 6 l 1
 15.0498046875 6 l 1
 20.0498046875 16 l 1
 20.0498046875 9 l 1
 23.0498046875 9 l 1
12.0498046875 3 m 1
 12.0498046875 14 l 1
 4.0498046875 14 l 1
 4.0498046875 3 l 1
 12.0498046875 3 l 1
12.7197265625 16 m 2
 13.4541015625 16 14.0498046875 15.404296875 14.0498046875 14.669921875 c 2
 14.0498046875 -0.669921875 l 2
 14.0498046875 -1.400390625 13.4501953125 -2 12.7197265625 -2 c 2
 3.3798828125 -2 l 2
 2.650390625 -2 2.0498046875 -1.400390625 2.0498046875 -0.669921875 c 2
 2.0498046875 14.669921875 l 2
 2.0498046875 15.404296875 2.6455078125 16 3.3798828125 16 c 2
 5.0498046875 16 l 1
 5.0498046875 18 l 1
 11.0498046875 18 l 1
 11.0498046875 16 l 1
 12.7197265625 16 l 2
EndSplineSet
EndChar

StartChar: battery charging 30
Encoding: 345 57427 103
Width: 24
Flags: HW
LayerCount: 2
Fore
SplineSet
12 5 m 1
 12 14 l 1
 4 14 l 1
 4 5 l 1
 12 5 l 1
12.669921875 16 m 2
 13.404296875 16 14 15.404296875 14 14.669921875 c 2
 14 -0.669921875 l 2
 14 -1.400390625 13.400390625 -2 12.669921875 -2 c 2
 3.330078125 -2 l 2
 2.599609375 -2 2 -1.400390625 2 -0.669921875 c 2
 2 14.669921875 l 2
 2 15.404296875 2.595703125 16 3.330078125 16 c 2
 5 16 l 1
 5 18 l 1
 11 18 l 1
 11 16 l 1
 12.669921875 16 l 2
23 9 m 1
 18 -2 l 1
 18 6 l 1
 15 6 l 1
 20 16 l 1
 20 9 l 1
 23 9 l 1
EndSplineSet
EndChar

StartChar: battery charging 40
Encoding: 346 57428 104
Width: 24
Flags: HW
LayerCount: 2
Fore
SplineSet
13 16 m 2
 13.599609375 16 14 15.599609375 14 15 c 2
 14 -1 l 2
 14 -1.599609375 13.599609375 -2 13 -2 c 2
 3 -2 l 2
 2.400390625 -2 2 -1.599609375 2 -1 c 2
 2 15 l 2
 2 15.599609375 2.400390625 16 3 16 c 2
 5 16 l 1
 5 18 l 1
 11 18 l 1
 11 16 l 1
 13 16 l 2
12 5.5 m 1
 12 14 l 1
 4 14 l 1
 4 5.5 l 1
 12 5.5 l 1
23 9 m 1
 18 -2 l 1
 18 6 l 1
 15 6 l 1
 20 16 l 1
 20 9 l 1
 23 9 l 1
EndSplineSet
EndChar

StartChar: battery charging 50
Encoding: 347 57429 105
Width: 24
Flags: HW
LayerCount: 2
Fore
SplineSet
23 9 m 1
 18 -2 l 1
 18 6 l 1
 15 6 l 1
 20 16 l 1
 20 9 l 1
 23 9 l 1
12 7 m 1
 12 14 l 1
 4 14 l 1
 4 7 l 1
 12 7 l 1
12.669921875 16 m 2
 13.404296875 16 14 15.404296875 14 14.669921875 c 2
 14 -0.669921875 l 2
 14 -1.400390625 13.400390625 -2 12.669921875 -2 c 2
 3.330078125 -2 l 2
 2.599609375 -2 2 -1.400390625 2 -0.669921875 c 2
 2 14.669921875 l 2
 2 15.404296875 2.595703125 16 3.330078125 16 c 2
 5 16 l 1
 5 18 l 1
 11 18 l 1
 11 16 l 1
 12.669921875 16 l 2
EndSplineSet
EndChar

StartChar: battery charging 60
Encoding: 348 57430 106
Width: 24
Flags: HW
LayerCount: 2
Fore
SplineSet
12 9 m 1
 12 14 l 1
 4 14 l 1
 4 9 l 1
 12 9 l 1
12.669921875 16 m 2
 13.404296875 16 14 15.404296875 14 14.669921875 c 2
 14 -0.669921875 l 2
 14 -1.400390625 13.400390625 -2 12.669921875 -2 c 2
 3.330078125 -2 l 2
 2.599609375 -2 2 -1.400390625 2 -0.669921875 c 2
 2 14.669921875 l 2
 2 15.404296875 2.595703125 16 3.330078125 16 c 2
 5 16 l 1
 5 18 l 1
 11 18 l 1
 11 16 l 1
 12.669921875 16 l 2
23 9 m 1
 18 -2 l 1
 18 6 l 1
 15 6 l 1
 20 16 l 1
 20 9 l 1
 23 9 l 1
EndSplineSet
EndChar

StartChar: battery charging 70
Encoding: 349 57431 107
Width: 24
Flags: HW
LayerCount: 2
Fore
SplineSet
12 10 m 1
 12 14 l 1
 4 14 l 1
 4 10 l 1
 12 10 l 1
12.669921875 16 m 2
 13.404296875 16 14 15.404296875 14 14.669921875 c 2
 14 -0.669921875 l 2
 14 -1.400390625 13.400390625 -2 12.669921875 -2 c 2
 3.330078125 -2 l 2
 2.599609375 -2 2 -1.400390625 2 -0.669921875 c 2
 2 14.669921875 l 2
 2 15.404296875 2.595703125 16 3.330078125 16 c 2
 5 16 l 1
 5 18 l 1
 11 18 l 1
 11 16 l 1
 12.669921875 16 l 2
23 9 m 1
 18 -2 l 1
 18 6 l 1
 15 6 l 1
 20 16 l 1
 20 9 l 1
 23 9 l 1
EndSplineSet
EndChar

StartChar: battery charging 80
Encoding: 350 57432 108
Width: 24
Flags: HW
LayerCount: 2
Fore
SplineSet
23 9 m 1
 18 -2 l 1
 18 6 l 1
 15 6 l 1
 20 16 l 1
 20 9 l 1
 23 9 l 1
12 11 m 1
 12 14 l 1
 4 14 l 1
 4 11 l 1
 12 11 l 1
12.669921875 16 m 2
 13.404296875 16 14 15.404296875 14 14.669921875 c 2
 14 -0.669921875 l 2
 14 -1.400390625 13.400390625 -2 12.669921875 -2 c 2
 3.330078125 -2 l 2
 2.599609375 -2 2 -1.400390625 2 -0.669921875 c 2
 2 14.669921875 l 2
 2 15.404296875 2.595703125 16 3.330078125 16 c 2
 5 16 l 1
 5 18 l 1
 11 18 l 1
 11 16 l 1
 12.669921875 16 l 2
EndSplineSet
EndChar

StartChar: battery charging 90
Encoding: 351 57433 109
Width: 24
Flags: HW
LayerCount: 2
Fore
SplineSet
23 9 m 1
 18 -2 l 1
 18 6 l 1
 15 6 l 1
 20 16 l 1
 20 9 l 1
 23 9 l 1
12 12 m 1
 12 14 l 1
 4 14 l 1
 4 12 l 1
 12 12 l 1
12.669921875 16 m 2
 13.404296875 16 14 15.404296875 14 14.669921875 c 2
 14 -0.669921875 l 2
 14 -1.400390625 13.400390625 -2 12.669921875 -2 c 2
 3.330078125 -2 l 2
 2.599609375 -2 2 -1.400390625 2 -0.669921875 c 2
 2 14.669921875 l 2
 2 15.404296875 2.595703125 16 3.330078125 16 c 2
 5 16 l 1
 5 18 l 1
 11 18 l 1
 11 16 l 1
 12.669921875 16 l 2
EndSplineSet
EndChar

StartChar: battery charging 100
Encoding: 352 57434 110
Width: 24
Flags: HW
LayerCount: 2
Fore
SplineSet
23 9 m 1
 18 -2 l 1
 18 6 l 1
 15 6 l 1
 20 16 l 1
 20 9 l 1
 23 9 l 1
12.669921875 16 m 2
 13.404296875 16 14 15.404296875 14 14.669921875 c 2
 14 -0.669921875 l 2
 14 -1.400390625 13.400390625 -2 12.669921875 -2 c 2
 3.330078125 -2 l 2
 2.599609375 -2 2 -1.400390625 2 -0.669921875 c 2
 2 14.669921875 l 2
 2 15.404296875 2.595703125 16 3.330078125 16 c 2
 5 16 l 1
 5 18 l 1
 11 18 l 1
 11 16 l 1
 12.669921875 16 l 2
EndSplineSet
EndChar

StartChar: battery charging
Encoding: 353 57435 111
Width: 24
Flags: HW
LayerCount: 2
Fore
SplineSet
16.669921875 16 m 2
 17.400390625 16 18 15.400390625 18 14.669921875 c 2
 18 -0.669921875 l 2
 18 -1.400390625 17.400390625 -2 16.66015625 -2 c 2
 7.330078125 -2 l 2
 6.599609375 -2 6 -1.400390625 6 -0.66015625 c 2
 6 14.669921875 l 2
 6 15.404296875 6.595703125 16 7.330078125 16 c 2
 9 16 l 1
 9 18 l 1
 15 18 l 1
 15 16 l 1
 16.669921875 16 l 2
11 0 m 1
 15 7.5 l 1
 13 7.5 l 1
 13 13 l 1
 9 5.5 l 1
 11 5.5 l 1
 11 0 l 1
EndSplineSet
EndChar

StartChar: lock
Encoding: 354 57440 112
Width: 24
Flags: HW
LayerCount: 2
Fore
SplineSet
12 3 m 0
 13.103515625 3 14 3.896484375 14 5 c 0
 14 6.1103515625 13.099609375 7 12 7 c 0
 10.896484375 7 10 6.103515625 10 5 c 0
 10 3.896484375 10.896484375 3 12 3 c 0
18 12 m 2
 19.103515625 12 20 11.103515625 20 10 c 2
 20 0 l 2
 20 -1.103515625 19.103515625 -2 18 -2 c 2
 6 -2 l 2
 4.896484375 -2 4 -1.103515625 4 0 c 2
 4 10 l 2
 4 11.1103515625 4.900390625 12 6 12 c 2
 7 12 l 1
 7 14 l 2
 7 16.759765625 9.240234375 19 12 19 c 0
 14.759765625 19 17 16.759765625 17 14 c 2
 17 12 l 1
 18 12 l 2
12 17 m 0
 10.3447265625 17 9 15.6552734375 9 14 c 2
 9 12 l 1
 15 12 l 1
 15 14 l 2
 15 15.6552734375 13.6552734375 17 12 17 c 0
EndSplineSet
EndChar

StartChar: lock outline
Encoding: 355 57441 113
Width: 24
Flags: HW
LayerCount: 2
Fore
SplineSet
12 3 m 0
 10.8896484375 3 10 3.900390625 10 5 c 0
 10 6.1103515625 10.8896484375 7 12 7 c 0
 13.103515625 7 14 6.103515625 14 5 c 0
 14 3.896484375 13.103515625 3 12 3 c 0
18 0 m 1
 18 10 l 1
 6 10 l 1
 6 0 l 1
 18 0 l 1
18 12 m 2
 19.103515625 12 20 11.103515625 20 10 c 2
 20 0 l 2
 20 -1.103515625 19.103515625 -2 18 -2 c 2
 6 -2 l 2
 4.8896484375 -2 4 -1.099609375 4 0 c 2
 4 10 l 2
 4 11.1103515625 4.8896484375 12 6 12 c 2
 7 12 l 1
 7 14 l 2
 7 16.759765625 9.240234375 19 12 19 c 0
 14.759765625 19 17 16.759765625 17 14 c 2
 17 12 l 1
 18 12 l 2
12 17 m 0
 10.3447265625 17 9 15.6552734375 9 14 c 2
 9 12 l 1
 15 12 l 1
 15 14 l 2
 15 15.6552734375 13.6552734375 17 12 17 c 0
EndSplineSet
EndChar

StartChar: lock open
Encoding: 356 57442 114
Width: 24
Flags: HW
LayerCount: 2
Fore
SplineSet
18 12 m 2
 19.103515625 12 20 11.103515625 20 10 c 2
 20 0 l 2
 20 -1.103515625 19.103515625 -2 18 -2 c 2
 6 -2 l 2
 4.8896484375 -2 4 -1.099609375 4 0 c 2
 4 10 l 2
 4 11.103515625 4.896484375 12 6 12 c 2
 15 12 l 1
 15 14 l 2
 15 15.6552734375 13.6552734375 17 12 17 c 0
 10.3447265625 17 9 15.6552734375 9 14 c 1
 7 14 l 1
 7 16.759765625 9.240234375 19 12 19 c 0
 14.759765625 19 17 16.759765625 17 14 c 2
 17 12 l 1
 18 12 l 2
12 3 m 0
 13.103515625 3 14 3.896484375 14 5 c 0
 14 6.103515625 13.103515625 7 12 7 c 0
 10.896484375 7 10 6.103515625 10 5 c 0
 10 3.896484375 10.896484375 3 12 3 c 0
EndSplineSet
EndChar

StartChar: lock open outline
Encoding: 357 57443 115
Width: 24
Flags: HW
LayerCount: 2
Fore
SplineSet
18 0 m 1
 18 10 l 1
 6 10 l 1
 6 0 l 1
 18 0 l 1
18 12 m 2
 19.103515625 12 20 11.103515625 20 10 c 2
 20 0 l 2
 20 -1.103515625 19.103515625 -2 18 -2 c 2
 6 -2 l 2
 4.8896484375 -2 4 -1.099609375 4 0 c 2
 4 10 l 2
 4 11.103515625 4.896484375 12 6 12 c 2
 15 12 l 1
 15 14 l 2
 15 15.6552734375 13.6552734375 17 12 17 c 0
 10.3447265625 17 9 15.6552734375 9 14 c 1
 7 14 l 1
 7 16.759765625 9.240234375 19 12 19 c 0
 14.759765625 19 17 16.759765625 17 14 c 2
 17 12 l 1
 18 12 l 2
12 3 m 0
 10.896484375 3 10 3.896484375 10 5 c 0
 10 6.103515625 10.896484375 7 12 7 c 0
 13.103515625 7 14 6.103515625 14 5 c 0
 14 3.896484375 13.103515625 3 12 3 c 0
EndSplineSet
EndChar

StartChar: lock alert
Encoding: 358 57444 116
Width: 24
Flags: HW
LayerCount: 2
Fore
SplineSet
10 3 m 0
 11.099609375 3 12 3.900390625 12 5 c 0
 12 6.099609375 11.099609375 7 10 7 c 0
 8.900390625 7 8 6.099609375 8 5 c 0
 8 3.900390625 8.900390625 3 10 3 c 0
16 12 m 2
 17.099609375 12 18 11.099609375 18 10 c 2
 18 0 l 2
 18 -1.099609375 17.099609375 -2 16 -2 c 2
 4 -2 l 2
 2.900390625 -2 2 -1.099609375 2 0 c 2
 2 10 l 2
 2 11.099609375 2.900390625 12 4 12 c 2
 5 12 l 1
 5 14 l 2
 5 16.7998046875 7.2001953125 19 10 19 c 0
 12.7998046875 19 15 16.7998046875 15 14 c 2
 15 12 l 1
 16 12 l 2
10 17 m 0
 8.2998046875 17 7 15.7001953125 7 14 c 2
 7 12 l 1
 13 12 l 1
 13 14 l 2
 13 15.7001953125 11.7001953125 17 10 17 c 0
22 7 m 1
 20 7 l 1
 20 13 l 1
 22 13 l 1
 22 7 l 1
22 3 m 1
 20 3 l 1
 20 5 l 1
 22 5 l 1
 22 3 l 1
EndSplineSet
EndChar

StartChar: lock alert outline
Encoding: 359 57445 117
Width: 24
Flags: HW
LayerCount: 2
Fore
SplineSet
10 3 m 0
 8.900390625 3 8 3.900390625 8 5 c 0
 8 6.099609375 8.900390625 7 10 7 c 0
 11.099609375 7 12 6.099609375 12 5 c 0
 12 3.900390625 11.099609375 3 10 3 c 0
16 0 m 1
 16 10 l 1
 4 10 l 1
 4 0 l 1
 16 0 l 1
16 12 m 2
 17.099609375 12 18 11.099609375 18 10 c 2
 18 0 l 2
 18 -1.099609375 17.099609375 -2 16 -2 c 2
 4 -2 l 2
 2.900390625 -2 2 -1.099609375 2 0 c 2
 2 10 l 2
 2 11.099609375 2.900390625 12 4 12 c 2
 5 12 l 1
 5 14 l 2
 5 16.7998046875 7.2001953125 19 10 19 c 0
 12.7998046875 19 15 16.7998046875 15 14 c 2
 15 12 l 1
 16 12 l 2
10 17 m 0
 8.2998046875 17 7 15.7001953125 7 14 c 2
 7 12 l 1
 13 12 l 1
 13 14 l 2
 13 15.7001953125 11.7001953125 17 10 17 c 0
22 13 m 1
 22 7 l 1
 20 7 l 1
 20 13 l 1
 22 13 l 1
22 5 m 1
 22 3 l 1
 20 3 l 1
 20 5 l 1
 22 5 l 1
EndSplineSet
EndChar

StartChar: map
Encoding: 360 57456 118
Width: 24
Flags: HW
LayerCount: 2
Fore
SplineSet
15 1 m 1
 15 12.8896484375 l 1
 9 15 l 1
 9 3.1103515625 l 1
 15 1 l 1
20.5 17 m 0
 20.7763671875 17 21 16.7763671875 21 16.5 c 2
 21 1.3798828125 l 2
 21 1.150390625 20.849609375 1 20.6396484375 0.900390625 c 2
 15 -1 l 1
 9 1.099609375 l 1
 3.66015625 -0.9697265625 l 2
 3.6103515625 -1 3.5498046875 -1 3.5 -1 c 0
 3.2236328125 -1 3 -0.7763671875 3 -0.5 c 2
 3 14.6201171875 l 2
 3 14.849609375 3.150390625 15.0302734375 3.3603515625 15.099609375 c 2
 9 17 l 1
 15 14.900390625 l 1
 20.33984375 17 l 2
 20.3896484375 17 20.4404296875 17 20.5 17 c 0
EndSplineSet
EndChar

StartChar: map marker
Encoding: 361 57457 119
Width: 24
Flags: HW
LayerCount: 2
Fore
SplineSet
12 8.5 m 0
 13.3798828125 8.5 14.5 9.6201171875 14.5 11 c 0
 14.5 12.3798828125 13.3798828125 13.5 12 13.5 c 0
 10.6201171875 13.5 9.5 12.3798828125 9.5 11 c 0
 9.5 9.6201171875 10.6201171875 8.5 12 8.5 c 0
12 18 m 0
 15.86328125 18 19 14.86328125 19 11 c 0
 19 5.75 12 -2 12 -2 c 1
 12 -2 5 5.75 5 11 c 0
 5 14.86328125 8.13671875 18 12 18 c 0
EndSplineSet
EndChar

StartChar: map marker outline
Encoding: 362 57458 120
Width: 24
Flags: HW
LayerCount: 2
Fore
SplineSet
12 13.5 m 0
 13.3798828125 13.5 14.5 12.3798828125 14.5 11 c 0
 14.5 9.6201171875 13.3798828125 8.5 12 8.5 c 0
 10.6201171875 8.5 9.5 9.6201171875 9.5 11 c 0
 9.5 12.3798828125 10.6201171875 13.5 12 13.5 c 0
12 18 m 0
 15.86328125 18 19 14.86328125 19 11 c 0
 19 5.75 12 -2 12 -2 c 1
 12 -2 5 5.75 5 11 c 0
 5 14.86328125 8.13671875 18 12 18 c 0
12 16 m 0
 9.240234375 16 7 13.759765625 7 11 c 0
 7 10 7 8 12 1.2900390625 c 1
 17 8 17 10 17 11 c 0
 17 13.759765625 14.759765625 16 12 16 c 0
EndSplineSet
EndChar

StartChar: map marker check
Encoding: 363 57459 121
Width: 24
Flags: HW
LayerCount: 2
Fore
SplineSet
12 18 m 0
 15.8603515625 18 19 14.8603515625 19 11 c 0
 19 5.75 12 -2 12 -2 c 1
 12 -2 5 5.75 5 11 c 0
 5 14.8603515625 8.1396484375 18 12 18 c 0
10.4697265625 6 m 1
 17 12.58984375 l 1
 15.599609375 14 l 1
 10.4697265625 8.8203125 l 1
 8.400390625 10.91015625 l 1
 7 9.5 l 1
 10.4697265625 6 l 1
EndSplineSet
EndChar

StartChar: map marker check outline
Encoding: 364 57460 122
Width: 24
Flags: HW
LayerCount: 2
Fore
SplineSet
12 16 m 0
 9.2001953125 16 7 13.7998046875 7 11 c 0
 7 8.099609375 9.900390625 3.7998046875 12 1.099609375 c 1
 14.099609375 3.7998046875 17 8.099609375 17 11 c 0
 17 13.7998046875 14.7998046875 16 12 16 c 0
12 18 m 0
 15.900390625 18 19 14.900390625 19 11 c 0
 19 5.7998046875 12 -2 12 -2 c 1
 12 -2 5 5.7998046875 5 11 c 0
 5 14.900390625 8.099609375 18 12 18 c 0
11.2998046875 6 m 1
 8.2998046875 9 l 1
 9.7001953125 10.400390625 l 1
 11.2998046875 8.7998046875 l 1
 14.7998046875 12.400390625 l 1
 16.2001953125 11 l 1
 11.2998046875 6 l 1
EndSplineSet
EndChar

StartChar: map marker alert
Encoding: 365 57461 123
Width: 24
Flags: HW
LayerCount: 2
Fore
SplineSet
12 18 m 0
 15.900390625 18 19 14.900390625 19 11 c 0
 19 5.7998046875 12 -2 12 -2 c 1
 12 -2 5 5.7998046875 5 11 c 0
 5 14.900390625 8.099609375 18 12 18 c 0
11 14 m 1
 11 8 l 1
 13 8 l 1
 13 14 l 1
 11 14 l 1
11 6 m 1
 11 4 l 1
 13 4 l 1
 13 6 l 1
 11 6 l 1
EndSplineSet
EndChar

StartChar: map marker alert outline
Encoding: 366 57462 124
Width: 24
Flags: HW
LayerCount: 2
Fore
SplineSet
12 18 m 0
 15.86328125 18 19 14.86328125 19 11 c 0
 19 5.75 12 -2 12 -2 c 1
 12 -2 5 5.75 5 11 c 0
 5 14.86328125 8.13671875 18 12 18 c 0
12 16 m 0
 9.240234375 16 7 13.759765625 7 11 c 0
 7 10 7 8 12 1.2900390625 c 1
 17 8 17 10 17 11 c 0
 17 13.759765625 14.759765625 16 12 16 c 0
11 14 m 1
 13 14 l 1
 13 9 l 1
 11 9 l 1
 11 14 l 1
11 7 m 1
 13 7 l 1
 13 5 l 1
 11 5 l 1
 11 7 l 1
EndSplineSet
EndChar

StartChar: map marker question
Encoding: 367 57463 125
Width: 24
Flags: HW
LayerCount: 2
Fore
SplineSet
12 18 m 0
 15.8603515625 18 19 14.8603515625 19 11 c 0
 19 5.75 12 -2 12 -2 c 1
 12 -2 5 5.75 5 11 c 0
 5 14.8603515625 8.1396484375 18 12 18 c 0
12.8798828125 4.25 m 1
 12.8798828125 6 l 1
 11.1298828125 6 l 1
 11.1298828125 4.25 l 1
 12.8798828125 4.25 l 1
12.8798828125 7.1201171875 m 1
 12.8798828125 9.08984375 15.5 9.3095703125 15.5 11.5 c 0
 15.5 13.431640625 13.931640625 15 12 15 c 0
 10.068359375 15 8.5 13.431640625 8.5 11.5 c 1
 10.25 11.5 l 1
 10.25 12.4658203125 11.0341796875 13.25 12 13.25 c 0
 12.9658203125 13.25 13.75 12.4658203125 13.75 11.5 c 0
 13.75 9.740234375 11.1298828125 9.9599609375 11.1298828125 7.1201171875 c 1
 12.8798828125 7.1201171875 l 1
EndSplineSet
EndChar

StartChar: map marker question outline
Encoding: 368 57464 126
Width: 24
Flags: HW
LayerCount: 2
Fore
SplineSet
12 19 m 0
 16.41015625 19 20 15.41015625 20 11 c 0
 20 5.4296875 13.0400390625 -2.33984375 12.740234375 -2.669921875 c 2
 12 -3.5 l 1
 11.259765625 -2.669921875 l 2
 10.9599609375 -2.33984375 4 5.4296875 4 11 c 0
 4 15.41015625 7.58984375 19 12 19 c 0
12 -0.4697265625 m 1
 13.75 1.6396484375 18 7.169921875 18 11 c 0
 18 14.3115234375 15.3115234375 17 12 17 c 0
 8.6884765625 17 6 14.3115234375 6 11 c 0
 6 7.4599609375 9.8203125 2.1396484375 12 -0.4697265625 c 1
11.1298828125 6 m 1
 12.8798828125 6 l 1
 12.8798828125 4.25 l 1
 11.1298828125 4.25 l 1
 11.1298828125 6 l 1
12 15 m 0
 13.931640625 15 15.5 13.431640625 15.5 11.5 c 0
 15.5 9.3095703125 12.8798828125 9.08984375 12.8798828125 7.1201171875 c 1
 11.1298828125 7.1201171875 l 1
 11.1298828125 9.9599609375 13.75 9.740234375 13.75 11.5 c 0
 13.75 12.4658203125 12.9658203125 13.25 12 13.25 c 0
 11.0341796875 13.25 10.25 12.4658203125 10.25 11.5 c 1
 8.5 11.5 l 1
 8.5 13.431640625 10.068359375 15 12 15 c 0
EndSplineSet
EndChar

StartChar: navigation
Encoding: 369 57465 127
Width: 24
Flags: HW
LayerCount: 2
Fore
SplineSet
12 18 m 1
 19.5 -0.2900390625 l 1
 18.7900390625 -1 l 1
 12 2 l 1
 5.2099609375 -1 l 1
 4.5 -0.2900390625 l 1
 12 18 l 1
EndSplineSet
EndChar

StartChar: crosshairs gps
Encoding: 370 57466 128
Width: 24
Flags: HW
LayerCount: 2
Fore
SplineSet
12 12 m 0
 14.2080078125 12 16 10.2080078125 16 8 c 0
 16 5.7919921875 14.2080078125 4 12 4 c 0
 9.7919921875 4 8 5.7919921875 8 8 c 0
 8 10.2080078125 9.7919921875 12 12 12 c 0
3.0498046875 7 m 1
 1 7 l 1
 1 9 l 1
 3.0498046875 9 l 1
 3.5 13.169921875 6.830078125 16.5 11 16.9501953125 c 1
 11 19 l 1
 13 19 l 1
 13 16.9501953125 l 1
 17.169921875 16.5 20.5 13.169921875 20.9501953125 9 c 1
 23 9 l 1
 23 7 l 1
 20.9501953125 7 l 1
 20.5 2.830078125 17.169921875 -0.5 13 -0.9501953125 c 1
 13 -3 l 1
 11 -3 l 1
 11 -0.9501953125 l 1
 6.830078125 -0.5 3.5 2.830078125 3.0498046875 7 c 1
12 15 m 0
 8.13671875 15 5 11.86328125 5 8 c 0
 5 4.13671875 8.13671875 1 12 1 c 0
 15.86328125 1 19 4.13671875 19 8 c 0
 19 11.86328125 15.86328125 15 12 15 c 0
EndSplineSet
EndChar

StartChar: crosshairs question
Encoding: 371 57467 129
Width: 24
Flags: HW
LayerCount: 2
Fore
SplineSet
3.0498046875 7 m 1
 1 7 l 1
 1 9 l 1
 3.0498046875 9 l 1
 3.5 13.169921875 6.830078125 16.5 11 16.9501953125 c 1
 11 19 l 1
 13 19 l 1
 13 16.9501953125 l 1
 17.169921875 16.5 20.5 13.169921875 20.9501953125 9 c 1
 23 9 l 1
 23 7 l 1
 20.9501953125 7 l 1
 20.5 2.830078125 17.169921875 -0.5 13 -0.9501953125 c 1
 13 -3 l 1
 11 -3 l 1
 11 -0.9501953125 l 1
 6.830078125 -0.5 3.5 2.830078125 3.0498046875 7 c 1
12 15 m 0
 8.1298828125 15 5 11.8701171875 5 8 c 0
 5 4.1298828125 8.1298828125 1 12 1 c 0
 15.8701171875 1 19 4.1298828125 19 8 c 0
 19 11.8701171875 15.8701171875 15 12 15 c 0
11.1298828125 2.75 m 1
 11.1298828125 4.5 l 1
 12.8798828125 4.5 l 1
 12.8798828125 2.75 l 1
 11.1298828125 2.75 l 1
12 13.25 m 0
 13.9296875 13.25 15.5 11.6796875 15.5 9.75 c 0
 15.5 7.5595703125 12.8798828125 7.33984375 12.8798828125 5.3701171875 c 1
 11.1298828125 5.3701171875 l 1
 11.1298828125 8.2197265625 13.75 8 13.75 9.75 c 0
 13.75 10.7197265625 12.9697265625 11.5 12 11.5 c 0
 11.0302734375 11.5 10.25 10.7197265625 10.25 9.75 c 1
 8.5 9.75 l 1
 8.5 11.6796875 10.0703125 13.25 12 13.25 c 0
EndSplineSet
EndChar

StartChar: navigation outline
Encoding: 372 57468 130
Width: 24
Flags: HW
LayerCount: 2
Fore
SplineSet
12 12.7001953125 m 1
 7.7001953125 2.2998046875 l 1
 11.2001953125 3.7998046875 l 1
 12 4.2001953125 l 1
 12.7998046875 3.7998046875 l 1
 16.2998046875 2.2998046875 l 1
 12 12.7001953125 l 1
12 18 m 1
 19.5 -0.2998046875 l 1
 18.7998046875 -1 l 1
 12 2 l 1
 5.2001953125 -1 l 1
 4.5 -0.2998046875 l 1
 12 18 l 1
EndSplineSet
EndChar

StartChar: cloud
Encoding: 373 57472 131
Width: 24
Flags: HW
LayerCount: 2
Fore
SplineSet
6.5 0 m 2
 4.97981770833 0 3.68326822917 0.5234375 2.6103515625 1.5703125 c 0
 1.53678385417 2.62369791667 1 3.90690104167 1 5.419921875 c 0
 1 6.72005208333 1.38997395833 7.88020833333 2.169921875 8.900390625 c 0
 2.95638020833 9.919921875 3.98307291667 10.5696614583 5.25 10.849609375 c 0
 5.669921875 12.3834635417 6.50325520833 13.6236979167 7.75 14.5703125 c 0
 9.00325520833 15.5234375 10.419921875 16 12 16 c 0
 13.953125 16 15.6064453125 15.3199869792 16.9599609375 13.9599609375 c 0
 18.3199869792 12.6064453125 19 10.953125 19 9 c 0
 20.1536458333 8.86653645833 21.1070963542 8.36653645833 21.8603515625 7.5 c 0
 22.6201171875 6.646484375 23 5.646484375 23 4.5 c 0
 23 3.24674479167 22.5634765625 2.18326822917 21.6904296875 1.3095703125 c 0
 20.8167317708 0.4365234375 19.7532552083 0 18.5 0 c 2
 6.5 0 l 2
EndSplineSet
EndChar

StartChar: cloud outline
Encoding: 374 57473 132
Width: 24
Flags: HW
LayerCount: 2
Fore
SplineSet
6.5 0 m 2
 4.97981770833 0 3.68326822917 0.5234375 2.6103515625 1.5703125 c 0
 1.53678385417 2.62369791667 1 3.90690104167 1 5.419921875 c 0
 1 6.72005208333 1.38997395833 7.88020833333 2.169921875 8.900390625 c 0
 2.95638020833 9.919921875 3.98307291667 10.5696614583 5.25 10.849609375 c 0
 5.669921875 12.3834635417 6.50325520833 13.6236979167 7.75 14.5703125 c 0
 9.00325520833 15.5234375 10.419921875 16 12 16 c 0
 13.953125 16 15.6064453125 15.3199869792 16.9599609375 13.9599609375 c 0
 18.3199869792 12.6064453125 19 10.953125 19 9 c 0
 20.1536458333 8.86653645833 21.1070963542 8.36653645833 21.8603515625 7.5 c 0
 22.6201171875 6.646484375 23 5.646484375 23 4.5 c 0
 23 3.24674479167 22.5634765625 2.18326822917 21.6904296875 1.3095703125 c 0
 20.8167317708 0.4365234375 19.7532552083 0 18.5 0 c 2
 6.5 0 l 2
6.5 2 m 2
 18.5 2 l 2
 19.1998697917 2 19.7897135417 2.24348958333 20.26953125 2.73046875 c 0
 20.7565104167 3.21028645833 21 3.80013020833 21 4.5 c 0
 21 5.19986979167 20.7565104167 5.78971354167 20.26953125 6.26953125 c 0
 19.7897135417 6.75651041667 19.1998697917 7 18.5 7 c 2
 17 7 l 1
 17 9 l 2
 17 10.3802083333 16.5133463542 11.5602213542 15.5400390625 12.5400390625 c 0
 14.5667317708 13.5133463542 13.38671875 14 12 14 c 0
 10.6197916667 14 9.43977864583 13.5133463542 8.4599609375 12.5400390625 c 0
 7.48665364583 11.5602213542 7 10.3802083333 7 9 c 1
 6.5 9 l 2
 5.533203125 9 4.7099609375 8.65657552083 4.0302734375 7.9697265625 c 0
 3.34342447917 7.2900390625 3 6.466796875 3 5.5 c 0
 3 4.533203125 3.34342447917 3.69986979167 4.0302734375 3 c 0
 4.7099609375 2.33333333333 5.533203125 2 6.5 2 c 2
12 8 m 1024
EndSplineSet
EndChar

StartChar: cloud off outline
Encoding: 375 57475 133
Width: 24
Flags: HW
LayerCount: 2
Fore
SplineSet
19.7998046875 -2.599609375 m 1
 17.150390625 0 l 1
 6.5 0 l 2
 4.966796875 0 3.66666666667 0.533203125 2.599609375 1.599609375 c 0
 1.533203125 2.66666666667 1 3.966796875 1 5.5 c 0
 1 6.77994791667 1.39680989583 7.919921875 2.1904296875 8.919921875 c 0
 2.9833984375 9.92643229167 4.00325520833 10.5696614583 5.25 10.849609375 c 0
 5.30338541667 10.9830729167 5.353515625 11.11328125 5.400390625 11.240234375 c 0
 5.466796875 11.3665364583 5.5166015625 11.5032552083 5.5498046875 11.650390625 c 2
 1.400390625 15.7998046875 l 1
 2.7998046875 17.2001953125 l 1
 21.2001953125 -1.2001953125 l 1
 19.7998046875 -2.599609375 l 1
6.5 2 m 2
 15.150390625 2 l 1
 7.099609375 10.0498046875 l 1
 7.06640625 9.86295572917 7.04329427083 9.6796875 7.0302734375 9.5 c 0
 7.01009114583 9.34635416667 7 9.1796875 7 9 c 1
 6.5 9 l 2
 5.533203125 9 4.7099609375 8.65657552083 4.0302734375 7.9697265625 c 0
 3.34342447917 7.2900390625 3 6.466796875 3 5.5 c 0
 3 4.533203125 3.34342447917 3.69986979167 4.0302734375 3 c 0
 4.7099609375 2.33333333333 5.533203125 2 6.5 2 c 2
11.1298828125 6 m 1024
21.599609375 1.25 m 2
 20.150390625 2.650390625 l 1
 20.4368489583 2.88346354167 20.6500651042 3.1533203125 20.7900390625 3.4599609375 c 0
 20.9300130208 3.7666015625 21 4.11328125 21 4.5 c 0
 21 5.19986979167 20.7565104167 5.78971354167 20.26953125 6.26953125 c 0
 19.7897135417 6.75651041667 19.1998697917 7 18.5 7 c 2
 17 7 l 1
 17 9 l 2
 17 10.3802083333 16.5133463542 11.5602213542 15.5400390625 12.5400390625 c 0
 14.5667317708 13.5133463542 13.38671875 14 12 14 c 0
 11.5533854167 14 11.1201171875 13.9466145833 10.7001953125 13.83984375 c 0
 10.2802734375 13.7265625 9.88020833333 13.5533854167 9.5 13.3203125 c 2
 8.0498046875 14.76953125 l 1
 8.63639322917 15.169921875 9.25651041667 15.4768880208 9.91015625 15.6904296875 c 0
 10.5703125 15.8968098958 11.2669270833 16 12 16 c 0
 13.953125 16 15.6064453125 15.3199869792 16.9599609375 13.9599609375 c 0
 18.3199869792 12.6064453125 19 10.953125 19 9 c 0
 20.1536458333 8.86653645833 21.1070963542 8.36653645833 21.8603515625 7.5 c 0
 22.6201171875 6.646484375 23 5.646484375 23 4.5 c 0
 23 3.83333333333 22.8766276042 3.23014322917 22.6298828125 2.6904296875 c 0
 22.3766276042 2.1298828125 22.033203125 1.64973958333 21.599609375 1.25 c 2
14.830078125 7.9697265625 m 1024
EndSplineSet
EndChar

StartChar: power
Encoding: 376 57488 134
Width: 24
Flags: HW
LayerCount: 2
Fore
SplineSet
16.5595703125 14.5595703125 m 2
 18.6396484375 13.1201171875 20 10.7197265625 20 8 c 0
 20 3.5849609375 16.4150390625 0 12 0 c 0
 7.5849609375 0 4 3.5849609375 4 8 c 0
 4 10.7197265625 5.3603515625 13.1201171875 7.4404296875 14.5595703125 c 2
 8.8798828125 13.1201171875 l 1
 7.16015625 12.0595703125 6 10.169921875 6 8 c 0
 6 4.6884765625 8.6884765625 2 12 2 c 0
 15.3115234375 2 18 4.6884765625 18 8 c 0
 18 10.169921875 16.83984375 12.0595703125 15.1103515625 13.1103515625 c 1
 16.5595703125 14.5595703125 l 2
13 17 m 1
 13 7 l 1
 11 7 l 1
 11 17 l 1
 13 17 l 1
EndSplineSet
EndChar

StartChar: power off
Encoding: 377 57489 135
Width: 24
Flags: HW
LayerCount: 2
Fore
SplineSet
12 17 m 0
 16.966796875 17 21 12.966796875 21 8 c 0
 21 3.033203125 16.966796875 -1 12 -1 c 0
 7.033203125 -1 3 3.033203125 3 8 c 0
 3 12.966796875 7.033203125 17 12 17 c 0
12 1 m 0
 15.86328125 1 19 4.13671875 19 8 c 0
 19 11.86328125 15.86328125 15 12 15 c 0
 8.13671875 15 5 11.86328125 5 8 c 0
 5 4.13671875 8.13671875 1 12 1 c 0
EndSplineSet
EndChar

StartChar: power on
Encoding: 378 57490 136
Width: 24
Flags: HW
LayerCount: 2
Fore
SplineSet
11 17 m 1
 13 17 l 1
 13 -1 l 1
 11 -1 l 1
 11 17 l 1
EndSplineSet
EndChar

StartChar: message
Encoding: 379 57616 137
Width: 24
Flags: HW
LayerCount: 2
Fore
SplineSet
20 18 m 2
 21.099609375 18 22 17.1103515625 22 16 c 2
 22 4 l 2
 22 2.896484375 21.103515625 2 20 2 c 2
 6 2 l 1
 2 -2 l 1
 2 16 l 2
 2 17.103515625 2.896484375 18 4 18 c 2
 20 18 l 2
EndSplineSet
EndChar

StartChar: message off
Encoding: 380 57617 138
Width: 24
Flags: HW
LayerCount: 2
Fore
SplineSet
20.9501953125 2.25 m 2
 5.2001953125 18 l 1
 20 18 l 2
 21.099609375 18 22 17.1103515625 22 16 c 2
 22 4 l 2
 22 3.240234375 21.5703125 2.58984375 20.9501953125 2.25 c 2
2.3896484375 18.26953125 m 1
 22.1103515625 -1.4599609375 l 1
 20.83984375 -2.73046875 l 1
 16.1103515625 2 l 1
 6 2 l 1
 2 -2 l 1
 2 16 l 2
 2 16.0302734375 2 16.0703125 2 16.099609375 c 2
 1.1103515625 17 l 1
 2.3896484375 18.26953125 l 1
EndSplineSet
EndChar

StartChar: message alert
Encoding: 381 57618 139
Width: 24
Flags: HW
LayerCount: 2
Fore
SplineSet
13 9 m 1
 13 15 l 1
 11 15 l 1
 11 9 l 1
 13 9 l 1
13 5 m 1
 13 7 l 1
 11 7 l 1
 11 5 l 1
 13 5 l 1
20 18 m 2
 21.099609375 18 22 17.099609375 22 16 c 2
 22 4 l 2
 22 2.900390625 21.099609375 2 20 2 c 2
 6 2 l 1
 2 -2 l 1
 2 16 l 2
 2 17.099609375 2.900390625 18 4 18 c 2
 20 18 l 2
EndSplineSet
EndChar

StartChar: message question
Encoding: 382 57619 140
Width: 24
Flags: HW
LayerCount: 2
Fore
SplineSet
20 18 m 2
 21.099609375 18 22 17.099609375 22 16 c 2
 22 4 l 2
 22 2.900390625 21.099609375 2 20 2 c 2
 6 2 l 1
 2 -2 l 1
 2 16 l 2
 2 17.099609375 2.900390625 18 4 18 c 2
 20 18 l 2
13 6 m 1
 13 8 l 1
 11 8 l 1
 11 6 l 1
 13 6 l 1
14.7998046875 11 m 0
 14.5 10.599609375 14.099609375 10.400390625 13.7001953125 10.2001953125 c 0
 13.400390625 10 13.2998046875 9.900390625 13.2001953125 9.7001953125 c 0
 13 9.5 13 9.2998046875 13 9 c 1
 11 9 l 1
 11 9.5 11.099609375 9.7998046875 11.2998046875 10.099609375 c 0
 11.5 10.2998046875 11.900390625 10.599609375 12.400390625 10.900390625 c 0
 12.7001953125 11 12.900390625 11.2001953125 13 11.400390625 c 0
 13.099609375 11.599609375 13.2001953125 11.900390625 13.2001953125 12.099609375 c 0
 13.2001953125 12.400390625 13.099609375 12.599609375 12.900390625 12.7998046875 c 0
 12.7001953125 13 12.400390625 13.099609375 12.099609375 13.099609375 c 0
 11.7998046875 13.099609375 11.599609375 13 11.400390625 12.900390625 c 0
 11.2001953125 12.7998046875 11.099609375 12.599609375 11.099609375 12.2998046875 c 1
 9.099609375 12.2998046875 l 1
 9.2001953125 13 9.5 13.599609375 10 14 c 0
 10.5 14.400390625 11.2001953125 14.5 12.099609375 14.5 c 0
 13 14.5 13.7998046875 14.2998046875 14.2998046875 13.900390625 c 0
 14.7998046875 13.5 15.099609375 12.900390625 15.099609375 12.2001953125 c 0
 15.2001953125 11.7998046875 15.099609375 11.400390625 14.7998046875 11 c 0
EndSplineSet
EndChar

StartChar: message plus
Encoding: 383 57620 141
Width: 24
Flags: HW
LayerCount: 2
Fore
SplineSet
20 18 m 2
 21.103515625 18 22 17.103515625 22 16 c 2
 22 4 l 2
 22 2.896484375 21.103515625 2 20 2 c 2
 6 2 l 1
 2 -2 l 1
 2 16 l 2
 2 17.1103515625 2.900390625 18 4 18 c 2
 20 18 l 2
11 14 m 1
 11 11 l 1
 8 11 l 1
 8 9 l 1
 11 9 l 1
 11 6 l 1
 13 6 l 1
 13 9 l 1
 16 9 l 1
 16 11 l 1
 13 11 l 1
 13 14 l 1
 11 14 l 1
EndSplineSet
EndChar

StartChar: message minus
Encoding: 384 57621 142
Width: 24
Flags: HW
LayerCount: 2
Fore
SplineSet
20 18 m 2
 21.1103515625 18 22 17.099609375 22 16 c 2
 22 4 l 2
 22 2.8896484375 21.1103515625 2 20 2 c 2
 6 2 l 1
 2 -2 l 1
 2 16 l 2
 2 17.1103515625 2.900390625 18 4 18 c 2
 20 18 l 2
8 11 m 1
 8 9 l 1
 16 9 l 1
 16 11 l 1
 8 11 l 1
EndSplineSet
EndChar

StartChar: message outline
Encoding: 385 57622 143
Width: 24
Flags: HW
LayerCount: 2
Fore
SplineSet
20 18 m 2
 21.099609375 18 22 17.099609375 22 16 c 2
 22 4 l 2
 22 2.900390625 21.099609375 2 20 2 c 2
 6 2 l 1
 2 -2 l 1
 2 16 l 2
 2 17.099609375 2.900390625 18 4 18 c 2
 20 18 l 2
20 4 m 1
 20 16 l 1
 4 16 l 1
 4 2.7998046875 l 1
 5.2001953125 4 l 1
 20 4 l 1
EndSplineSet
EndChar

StartChar: message off outline
Encoding: 386 57623 144
Width: 24
Flags: HW
LayerCount: 2
Fore
SplineSet
7.2001953125 16 m 1
 5.2001953125 18 l 1
 20 18 l 2
 21.1103515625 18 22 17.099609375 22 16 c 2
 22 4 l 2
 22 3.240234375 21.5703125 2.58984375 20.9501953125 2.25 c 2
 19.2001953125 4 l 1
 20 4 l 1
 20 16 l 1
 7.2001953125 16 l 1
22.1103515625 -1.4599609375 m 1
 20.83984375 -2.73046875 l 1
 16.1103515625 2 l 1
 6 2 l 1
 2 -2 l 1
 2 16 l 2
 2 16.0302734375 2 16.0703125 2 16.099609375 c 2
 1.1103515625 17 l 1
 2.3896484375 18.26953125 l 1
 6.099609375 14.5595703125 l 1
 16.650390625 4 l 1
 16.66015625 4 l 1
 18.66015625 2 l 1
 18.650390625 2 l 1
 22.1103515625 -1.4599609375 l 1
14.1103515625 4 m 1
 4 14.1103515625 l 1
 4 2 l 1
 6 4 l 1
 14.1103515625 4 l 1
EndSplineSet
EndChar

StartChar: message alert outline
Encoding: 387 57624 145
Width: 24
Flags: HW
LayerCount: 2
Fore
SplineSet
13 10 m 1
 11 10 l 1
 11 14 l 1
 13 14 l 1
 13 10 l 1
13 8 m 1
 13 6 l 1
 11 6 l 1
 11 8 l 1
 13 8 l 1
22 16 m 2
 22 4 l 2
 22 2.896484375 21.103515625 2 20 2 c 2
 6 2 l 1
 2 -2 l 1
 2 16 l 2
 2 17.103515625 2.896484375 18 4 18 c 2
 20 18 l 2
 21.103515625 18 22 17.103515625 22 16 c 2
20 16 m 1
 4 16 l 1
 4 2.7998046875 l 1
 5.2001953125 4 l 1
 20 4 l 1
 20 16 l 1
EndSplineSet
EndChar

StartChar: message question outline
Encoding: 388 57625 146
Width: 24
Flags: HW
LayerCount: 2
Fore
SplineSet
20 18 m 2
 21.099609375 18 22 17.099609375 22 16 c 2
 22 4 l 2
 22 2.900390625 21.099609375 2 20 2 c 2
 6 2 l 1
 2 -2 l 1
 2 16 l 2
 2 17.099609375 2.900390625 18 4 18 c 2
 20 18 l 2
20 4 m 1
 20 16 l 1
 4 16 l 1
 4 2.7998046875 l 1
 5.2001953125 4 l 1
 20 4 l 1
12.2001953125 14.5 m 0
 11.2998046875 14.5 10.599609375 14.2998046875 10.099609375 14 c 0
 9.5 13.599609375 9.2001953125 13 9.2998046875 12.2998046875 c 2
 11.2998046875 12.2998046875 l 1
 11.2998046875 12.599609375 11.400390625 12.7998046875 11.599609375 12.900390625 c 0
 11.7998046875 13 12 13.099609375 12.2998046875 13.099609375 c 0
 12.599609375 13.099609375 12.900390625 13 13.099609375 12.7998046875 c 0
 13.2998046875 12.599609375 13.400390625 12.400390625 13.400390625 12.099609375 c 0
 13.400390625 11.7998046875 13.2998046875 11.599609375 13.2001953125 11.400390625 c 0
 13 11.2001953125 12.7998046875 11 12.599609375 10.900390625 c 0
 12.099609375 10.599609375 11.7001953125 10.2998046875 11.5 10.099609375 c 0
 11.099609375 9.7998046875 11 9.5 11 9 c 1
 13 9 l 1
 13 9.2998046875 13.099609375 9.5 13.099609375 9.7001953125 c 0
 13.2001953125 9.900390625 13.400390625 10 13.599609375 10.2001953125 c 0
 14.099609375 10.400390625 14.400390625 10.7001953125 14.7001953125 11.099609375 c 0
 15 11.5 15.099609375 11.900390625 15.099609375 12.2998046875 c 0
 15.099609375 13 14.7998046875 13.599609375 14.2998046875 14 c 0
 13.900390625 14.2998046875 13.099609375 14.5 12.2001953125 14.5 c 0
11 8 m 1
 13 8 l 1
 13 6 l 1
 11 6 l 1
 11 8 l 1
EndSplineSet
EndChar

StartChar: message plus outline
Encoding: 389 57626 147
Width: 24
Flags: HW
LayerCount: 2
Fore
SplineSet
20 18 m 2
 21.099609375 18 22 17.099609375 22 16 c 2
 22 4 l 2
 22 2.900390625 21.099609375 2 20 2 c 2
 6 2 l 1
 2 -2 l 1
 2 16 l 2
 2 17.099609375 2.900390625 18 4 18 c 2
 20 18 l 2
20 4 m 1
 20 16 l 1
 4 16 l 1
 4 2.7998046875 l 1
 5.2001953125 4 l 1
 20 4 l 1
16 11 m 1
 16 9 l 1
 13 9 l 1
 13 6 l 1
 11 6 l 1
 11 9 l 1
 8 9 l 1
 8 11 l 1
 11 11 l 1
 11 14 l 1
 13 14 l 1
 13 11 l 1
 16 11 l 1
EndSplineSet
EndChar

StartChar: message minus outline
Encoding: 390 57627 148
Width: 24
Flags: HW
LayerCount: 2
Fore
SplineSet
20 18 m 2
 21.099609375 18 22 17.099609375 22 16 c 2
 22 4 l 2
 22 2.900390625 21.099609375 2 20 2 c 2
 6 2 l 1
 2 -2 l 1
 2 16 l 2
 2 17.099609375 2.900390625 18 4 18 c 2
 20 18 l 2
20 4 m 1
 20 16 l 1
 4 16 l 1
 4 2.7998046875 l 1
 5.2001953125 4 l 1
 20 4 l 1
8 11 m 1
 16 11 l 1
 16 9 l 1
 8 9 l 1
 8 11 l 1
EndSplineSet
EndChar

StartChar: gas station
Encoding: 391 57664 149
Width: 24
Flags: HW
LayerCount: 2
Fore
SplineSet
18 10 m 0
 18.5517578125 10 19 10.4482421875 19 11 c 0
 19 11.5517578125 18.5517578125 12 18 12 c 0
 17.4482421875 12 17 11.5517578125 17 11 c 0
 17 10.4482421875 17.4482421875 10 18 10 c 0
12 10 m 1
 12 15 l 1
 6 15 l 1
 6 10 l 1
 12 10 l 1
19.76953125 12.76953125 m 1
 20.2197265625 12.3203125 20.5 11.6904296875 20.5 11 c 2
 20.5 1.5 l 2
 20.5 0.1201171875 19.3798828125 -1 18 -1 c 0
 16.6201171875 -1 15.5 0.1201171875 15.5 1.5 c 2
 15.5 6.5 l 1
 14 6.5 l 1
 14 -1 l 1
 4 -1 l 1
 4 15 l 2
 4 16.1103515625 4.8896484375 17 6 17 c 2
 12 17 l 2
 13.099609375 17 14 16.1103515625 14 15 c 2
 14 8 l 1
 15 8 l 2
 16.099609375 8 17 7.1103515625 17 6 c 2
 17 1.5 l 2
 17 0.9482421875 17.4482421875 0.5 18 0.5 c 0
 18.5517578125 0.5 19 0.9482421875 19 1.5 c 2
 19 8.7099609375 l 1
 18.6904296875 8.580078125 18.3603515625 8.5 18 8.5 c 0
 16.6201171875 8.5 15.5 9.6201171875 15.5 11 c 0
 15.5 12.0703125 16.169921875 13 17.1103515625 13.330078125 c 1
 15 15.4404296875 l 1
 16.0595703125 16.5 l 1
 19.7802734375 12.7802734375 l 1
 19.76953125 12.76953125 l 1
EndSplineSet
EndChar

StartChar: gas station outline
Encoding: 392 57665 150
Width: 24
Flags: HW
LayerCount: 2
Fore
SplineSet
19.76953125 12.76953125 m 1
 20.2197265625 12.3203125 20.5 11.6904296875 20.5 11 c 2
 20.5 1.5 l 2
 20.5 0.1201171875 19.3798828125 -1 18 -1 c 0
 16.6201171875 -1 15.5 0.1201171875 15.5 1.5 c 2
 15.5 6.5 l 1
 14 6.5 l 1
 14 -1 l 1
 4 -1 l 1
 4 15 l 2
 4 16.103515625 4.896484375 17 6 17 c 2
 12 17 l 2
 13.103515625 17 14 16.103515625 14 15 c 2
 14 8 l 1
 15 8 l 2
 16.103515625 8 17 7.103515625 17 6 c 2
 17 1.5 l 2
 17 0.9482421875 17.4482421875 0.5 18 0.5 c 0
 18.5517578125 0.5 19 0.9482421875 19 1.5 c 2
 19 8.7099609375 l 1
 18.6904296875 8.580078125 18.3603515625 8.5 18 8.5 c 0
 16.6201171875 8.5 15.5 9.6201171875 15.5 11 c 0
 15.5 12.0703125 16.169921875 12.9697265625 17.1103515625 13.330078125 c 1
 15 15.4404296875 l 1
 16.0595703125 16.5 l 1
 19.7802734375 12.7802734375 l 1
 19.76953125 12.76953125 l 1
12 6.5 m 1
 12 8 l 1
 6 8 l 1
 6 1 l 1
 12 1 l 1
 12 6.5 l 1
12 10 m 1
 12 15 l 1
 6 15 l 1
 6 10 l 1
 12 10 l 1
18 10 m 0
 18.5517578125 10 19 10.4482421875 19 11 c 0
 19 11.5517578125 18.5517578125 12 18 12 c 0
 17.4482421875 12 17 11.5517578125 17 11 c 0
 17 10.4482421875 17.4482421875 10 18 10 c 0
EndSplineSet
EndChar

StartChar: gas station off
Encoding: 393 57666 151
Width: 24
Flags: HW
LayerCount: 2
Fore
SplineSet
1 15.73046875 m 1
 2.2802734375 17 l 1
 21 -1.7197265625 l 1
 19.73046875 -3 l 1
 17.7099609375 -1 l 2
 16.5595703125 -0.849609375 15.650390625 0.0595703125 15.5 1.2197265625 c 2
 14 2.73046875 l 1
 14 -1 l 1
 4 -1 l 1
 4 12.73046875 l 1
 1 15.73046875 l 1
18 10 m 0
 18.5498046875 10 19 10.4501953125 19 11 c 0
 19 11.5498046875 18.5498046875 12 18 12 c 0
 17.4501953125 12 17 11.5498046875 17 11 c 0
 17 10.4501953125 17.4501953125 10 18 10 c 0
12 10 m 1
 12 15 l 1
 6.8203125 15 l 1
 5.0595703125 16.76953125 l 1
 5.33984375 16.919921875 5.66015625 17 6 17 c 2
 12 17 l 2
 13.099609375 17 14 16.1103515625 14 15 c 2
 14 8 l 1
 15 8 l 2
 16.099609375 8 17 7.1103515625 17 6 c 2
 17 4.8203125 l 1
 11.8203125 10 l 1
 12 10 l 1
6 10 m 1
 6.73046875 10 l 1
 6 10.73046875 l 1
 6 10 l 1
19.76953125 12.76953125 m 1
 20.2197265625 12.3203125 20.5 11.6904296875 20.5 11 c 2
 20.5 1.330078125 l 1
 19 2.8203125 l 1
 19 8.7099609375 l 1
 18.6904296875 8.580078125 18.3603515625 8.5 18 8.5 c 0
 16.6201171875 8.5 15.5 9.6201171875 15.5 11 c 0
 15.5 12.0703125 16.169921875 12.9697265625 17.1103515625 13.330078125 c 1
 15 15.4404296875 l 1
 16.0595703125 16.5 l 1
 19.7802734375 12.7802734375 l 1
 19.76953125 12.76953125 l 1
EndSplineSet
EndChar

StartChar: gas station off outline
Encoding: 394 57667 152
Width: 24
Flags: HW
LayerCount: 2
Fore
SplineSet
1 15.73046875 m 1
 2.2802734375 17 l 1
 6 13.2802734375 l 1
 21 -1.7197265625 l 1
 19.73046875 -3 l 1
 17.7197265625 -1 l 2
 16.5595703125 -0.849609375 15.650390625 0.0595703125 15.5 1.2197265625 c 2
 14 2.73046875 l 1
 14 -1 l 1
 4 -1 l 1
 4 12.73046875 l 1
 1 15.73046875 l 1
19.76953125 12.76953125 m 1
 20.2197265625 12.3203125 20.5 11.6904296875 20.5 11 c 2
 20.5 1.330078125 l 1
 19 2.8203125 l 1
 19 8.7099609375 l 1
 18.6904296875 8.580078125 18.3603515625 8.5 18 8.5 c 0
 16.6201171875 8.5 15.5 9.6201171875 15.5 11 c 0
 15.5 12.0703125 16.169921875 12.9697265625 17.1103515625 13.330078125 c 1
 15 15.4404296875 l 1
 16.0595703125 16.5 l 1
 19.7802734375 12.7802734375 l 1
 19.76953125 12.76953125 l 1
11.8203125 10 m 1
 12 10 l 1
 12 15 l 1
 6.8203125 15 l 1
 5.0595703125 16.759765625 l 1
 5.33984375 16.91015625 5.66015625 17 6 17 c 2
 12 17 l 2
 13.099609375 17 14 16.099609375 14 15 c 2
 14 8 l 1
 15 8 l 2
 16.099609375 8 17 7.099609375 17 6 c 2
 17 4.8203125 l 1
 11.8203125 10 l 1
6 10 m 1
 6.73046875 10 l 1
 6 10.73046875 l 1
 6 10 l 1
6 8 m 1
 6 1 l 1
 12 1 l 1
 12 4.73046875 l 1
 8.73046875 8 l 1
 6 8 l 1
18 10 m 0
 18.5498046875 10 19 10.4501953125 19 11 c 0
 19 11.5498046875 18.5498046875 12 18 12 c 0
 17.4501953125 12 17 11.5498046875 17 11 c 0
 17 10.4501953125 17.4501953125 10 18 10 c 0
EndSplineSet
EndChar

StartChar: engine outline
Encoding: 395 57668 153
Width: 24
Flags: HW
LayerCount: 2
Fore
SplineSet
8 10 m 1
 7 9 l 1
 7 4 l 1
 9 4 l 1
 11 2 l 1
 16 2 l 1
 16 10 l 1
 8 10 l 1
7 16 m 1
 15 16 l 1
 15 14 l 1
 12 14 l 1
 12 12 l 1
 18 12 l 1
 18 8 l 1
 20 8 l 1
 20 11 l 1
 23 11 l 1
 23 1 l 1
 20 1 l 1
 20 4 l 1
 18 4 l 1
 18 0 l 1
 10 0 l 1
 8 2 l 1
 5 2 l 1
 5 5 l 1
 3 5 l 1
 3 2 l 1
 1 2 l 1
 1 10 l 1
 3 10 l 1
 3 7 l 1
 5 7 l 1
 5 10 l 1
 7 12 l 1
 10 12 l 1
 10 14 l 1
 7 14 l 1
 7 16 l 1
EndSplineSet
EndChar

StartChar: engine off outline
Encoding: 396 57669 154
Width: 24
Flags: HW
LayerCount: 2
Fore
SplineSet
2.5 16.23046875 m 1
 3.7802734375 17.5 l 1
 22.5 -1.2197265625 l 1
 21.23046875 -2.5 l 1
 18 0.73046875 l 1
 18 0 l 1
 10 0 l 1
 8 2 l 1
 5 2 l 1
 5 5 l 1
 3 5 l 1
 3 2 l 1
 1 2 l 1
 1 10 l 1
 3 10 l 1
 3 7 l 1
 5 7 l 1
 5 10 l 1
 6.8701171875 11.8603515625 l 1
 2.5 16.23046875 l 1
16 2 m 1
 16 2.73046875 l 1
 8.73046875 10 l 1
 8 10 l 1
 7 9 l 1
 7 4 l 1
 9 4 l 1
 11 2 l 1
 16 2 l 1
23 11 m 1
 23 1 l 1
 22.8203125 1 l 1
 16 7.8203125 l 1
 16 10 l 1
 13.8203125 10 l 1
 7.8203125 16 l 1
 15 16 l 1
 15 14 l 1
 12 14 l 1
 12 12 l 1
 18 12 l 1
 18 8 l 1
 20 8 l 1
 20 11 l 1
 23 11 l 1
EndSplineSet
EndChar

StartChar: autorenew off
Encoding: 397 57354 155
Width: 24
Flags: HW
LayerCount: 2
Fore
SplineSet
18 8 m 0
 18 9 17.740234375 9.9599609375 17.2998046875 10.7998046875 c 2
 18.759765625 12.259765625 l 1
 19.5361328125 11.0341796875 19.9853515625 9.58203125 19.9853515625 8.025390625 c 0
 19.9853515625 6.6376953125 19.6279296875 5.3154296875 19 4.1796875 c 1
 17.5 5.6796875 l 2
 17.8203125 6.400390625 18 7.169921875 18 8 c 0
2.3896484375 18.26953125 m 1
 22.1103515625 -1.4599609375 l 1
 20.83984375 -2.73046875 l 1
 16.6298828125 1.5 l 2
 15.3203125 0.5498046875 13.73046875 0 12 0 c 1
 12 -3 l 1
 8 1 l 1
 12 5 l 1
 12 2 l 1
 13.1689453125 2.0009765625 14.267578125 2.33984375 15.1904296875 2.919921875 c 1
 6.919921875 11.1904296875 l 1
 6.3330078125 10.2734375 5.9921875 9.1708984375 5.9921875 8.001953125 c 0
 5.9921875 6.98828125 6.2490234375 6.0341796875 6.7001953125 5.2001953125 c 2
 5.240234375 3.740234375 l 1
 4.4599609375 4.9677734375 4.0068359375 6.439453125 4.0068359375 8 c 0
 4.0068359375 9.7275390625 4.560546875 11.3271484375 5.5 12.6298828125 c 2
 1.1103515625 17 l 1
 2.3896484375 18.26953125 l 1
12 14 m 1
 11.1796875 14 10.400390625 13.8203125 9.6796875 13.5 c 2
 8.1796875 15 l 1
 9.3203125 15.6396484375 10.6201171875 16 12 16 c 1
 12 19 l 1
 16 15 l 1
 12.099609375 11.099609375 l 1
 12 11.2001953125 l 1
 12 14 l 1
EndSplineSet
EndChar

StartChar: clipboard text clock
Encoding: 398 57369 156
Width: 24
Flags: HW
LayerCount: 2
Fore
SplineSet
21 8.8896484375 m 2
 22.140625 7.64453125 22.8359375 5.9833984375 22.8359375 4.162109375 c 0
 22.8359375 0.298828125 19.69921875 -2.837890625 15.8359375 -2.837890625 c 0
 14.0146484375 -2.837890625 12.35546875 -2.140625 11.1103515625 -1 c 2
 5 -1 l 2
 3.896484375 -1 3 -0.103515625 3 1 c 2
 3 15 l 2
 3 16.103515625 3.896484375 17 5 17 c 2
 9.1796875 17 l 2
 9.599609375 18.16015625 10.7001953125 19 12 19 c 0
 13.2998046875 19 14.400390625 18.16015625 14.8203125 17 c 2
 19 17 l 2
 20.103515625 17 21 16.103515625 21 15 c 2
 21 8.8896484375 l 2
12 17 m 0
 12.5498046875 17 13 16.5498046875 13 16 c 0
 13 15.4501953125 12.5498046875 15 12 15 c 0
 11.4501953125 15 11 15.4501953125 11 16 c 0
 11 16.5498046875 11.4501953125 17 12 17 c 0
6 13 m 1
 6 11 l 1
 18 11 l 1
 18 13 l 1
 6 13 l 1
9.080078125 3 m 1
 6 3 l 1
 6 5 l 1
 9.080078125 5 l 1
 9.0302734375 4.671875 9.00390625 4.3359375 9.00390625 3.9931640625 c 0
 9.00390625 3.6513671875 9.0302734375 3.328125 9.080078125 3 c 1
6 7 m 1
 9.6796875 7 l 2
 10.0302734375 7.7568359375 10.5146484375 8.4306640625 11.1103515625 9 c 1
 6 9 l 1
 6 7 l 1
16 -1 m 0
 18.759765625 -1 21 1.240234375 21 4 c 0
 21 6.759765625 18.759765625 9 16 9 c 0
 13.240234375 9 11 6.759765625 11 4 c 0
 11 1.240234375 13.240234375 -1 16 -1 c 0
16.5 3.75 m 1
 19.3603515625 2.0595703125 l 1
 18.6103515625 0.83984375 l 1
 15 3 l 1
 15 8 l 1
 16.5 8 l 1
 16.5 3.75 l 1
EndSplineSet
EndChar

StartChar: clipboard text clock outline
Encoding: 399 57385 157
Width: 24
Flags: HW
LayerCount: 2
Fore
SplineSet
21 8.8896484375 m 2
 22.140625 7.64453125 22.8359375 5.9833984375 22.8359375 4.162109375 c 0
 22.8359375 0.298828125 19.69921875 -2.837890625 15.8359375 -2.837890625 c 0
 14.0146484375 -2.837890625 12.35546875 -2.140625 11.1103515625 -1 c 2
 5 -1 l 2
 3.896484375 -1 3 -0.103515625 3 1 c 2
 3 15 l 2
 3 16.103515625 3.896484375 17 5 17 c 2
 9.1796875 17 l 2
 9.599609375 18.16015625 10.7001953125 19 12 19 c 0
 13.2998046875 19 14.400390625 18.16015625 14.8203125 17 c 2
 19 17 l 2
 20.103515625 17 21 16.103515625 21 15 c 2
 21 8.8896484375 l 2
12 17 m 0
 12.5498046875 17 13 16.5498046875 13 16 c 0
 13 15.4501953125 12.5498046875 15 12 15 c 0
 11.4501953125 15 11 15.4501953125 11 16 c 0
 11 16.5498046875 11.4501953125 17 12 17 c 0
5 1 m 1
 9.6796875 1 l 1
 9.2431640625 1.8837890625 8.994140625 2.87890625 8.994140625 3.9306640625 c 0
 8.994140625 4.294921875 9.0234375 4.6513671875 9.080078125 5 c 1
 7 5 l 1
 7 7 l 1
 9.6796875 7 l 2
 10.0302734375 7.75390625 10.5107421875 8.427734375 11.099609375 9 c 1
 7 9 l 1
 7 11 l 1
 16 11 l 2
 17.0712890625 10.9990234375 18.0927734375 10.7529296875 19 10.3203125 c 1
 19 15 l 1
 17 15 l 1
 17 13 l 1
 7 13 l 1
 7 15 l 1
 5 15 l 1
 5 1 l 1
16 -1 m 0
 18.759765625 -1 21 1.240234375 21 4 c 0
 21 6.759765625 18.759765625 9 16 9 c 0
 13.240234375 9 11 6.759765625 11 4 c 0
 11 1.240234375 13.240234375 -1 16 -1 c 0
16.5 3.75 m 1
 19.3603515625 2.0595703125 l 1
 18.6103515625 0.83984375 l 1
 15 3 l 1
 15 8 l 1
 16.5 8 l 1
 16.5 3.75 l 1
EndSplineSet
EndChar

StartChar: swap horizontal
Encoding: 400 57480 158
Width: 24
Flags: HW
LayerCount: 2
Fore
SplineSet
21 11 m 1
 17 7 l 1
 17 10 l 1
 10 10 l 1
 10 12 l 1
 17 12 l 1
 17 15 l 1
 21 11 l 1
7 9 m 1
 7 6 l 1
 14 6 l 1
 14 4 l 1
 7 4 l 1
 7 1 l 1
 3 5 l 1
 7 9 l 1
EndSplineSet
EndChar

StartChar: swap horizontal bold
Encoding: 401 57481 159
Width: 24
Flags: HW
LayerCount: 2
Fore
SplineSet
8 10 m 1
 8 7 l 1
 14 7 l 1
 14 2 l 1
 8 2 l 1
 8 -1 l 1
 2 4.5 l 1
 8 10 l 1
22 11.5 m 1
 16 6 l 1
 16 9 l 1
 10 9 l 1
 10 14 l 1
 16 14 l 1
 16 17 l 1
 22 11.5 l 1
EndSplineSet
EndChar

StartChar: swap vertical
Encoding: 402 57482 160
Width: 24
Flags: HW
LayerCount: 2
Fore
SplineSet
9 17 m 1
 13 13 l 1
 10 13 l 1
 10 6 l 1
 8 6 l 1
 8 13 l 1
 5 13 l 1
 9 17 l 1
16 3 m 1
 19 3 l 1
 15 -1 l 1
 11 3 l 1
 14 3 l 1
 14 10 l 1
 16 10 l 1
 16 3 l 1
EndSplineSet
EndChar

StartChar: swap vertical bold
Encoding: 403 57483 161
Width: 24
Flags: HW
LayerCount: 2
Fore
SplineSet
14 12 m 1
 11 12 l 1
 11 6 l 1
 6 6 l 1
 6 12 l 1
 3 12 l 1
 8.5 18 l 1
 14 12 l 1
15.5 -2 m 1
 10 4 l 1
 13 4 l 1
 13 10 l 1
 18 10 l 1
 18 4 l 1
 21 4 l 1
 15.5 -2 l 1
EndSplineSet
EndChar

StartChar: power cycle
Encoding: 404 57491 162
Width: 24
Flags: HW
LayerCount: 2
Fore
SplineSet
12 17 m 0
 16.966796875 17 21 12.966796875 21 8 c 0
 21 3.033203125 16.966796875 -1 12 -1 c 0
 7.033203125 -1 3 3.033203125 3 8 c 0
 3 12.966796875 7.033203125 17 12 17 c 0
12 1 m 0
 15.86328125 1 19 4.13671875 19 8 c 0
 19 11.86328125 15.86328125 15 12 15 c 0
 8.13671875 15 5 11.86328125 5 8 c 0
 5 4.13671875 8.13671875 1 12 1 c 0
13 3 m 1
 11 3 l 1
 11 13 l 1
 13 13 l 1
 13 3 l 1
EndSplineSet
EndChar

StartChar: power sleep
Encoding: 405 57492 163
Width: 24
Flags: HW
LayerCount: 2
Fore
SplineSet
18.73046875 2 m 1
 17.08203125 0.1767578125 14.7001953125 -0.9697265625 12.0517578125 -0.9697265625 c 0
 7.083984375 -0.9697265625 3.0517578125 3.0634765625 3.0517578125 8.0302734375 c 0
 3.0517578125 12.7314453125 6.6728515625 16.5986328125 11.26953125 17 c 1
 9.8310546875 15.4072265625 8.9541015625 13.296875 8.9541015625 10.9833984375 c 0
 8.9541015625 6.02734375 12.9775390625 2.00390625 17.9345703125 2.00390625 c 0
 17.95703125 2.00390625 17.9775390625 2 18 2 c 2
 18.73046875 2 l 1
EndSplineSet
EndChar

StartChar: plus box
Encoding: 406 57657 164
Width: 24
Flags: HW
LayerCount: 2
Fore
SplineSet
17 7 m 1
 17 9 l 1
 13 9 l 1
 13 13 l 1
 11 13 l 1
 11 9 l 1
 7 9 l 1
 7 7 l 1
 11 7 l 1
 11 3 l 1
 13 3 l 1
 13 7 l 1
 17 7 l 1
19 17 m 2
 20.103515625 17 21 16.103515625 21 15 c 2
 21 1 l 2
 21 -0.103515625 20.103515625 -1 19 -1 c 2
 5 -1 l 2
 3.896484375 -1 3 -0.103515625 3 1 c 2
 3 15 l 2
 3 16.103515625 3.896484375 17 5 17 c 2
 19 17 l 2
EndSplineSet
EndChar

StartChar: plus box multiple
Encoding: 407 57658 165
Width: 24
Flags: HW
LayerCount: 2
Fore
SplineSet
19 9 m 1
 19 11 l 1
 15 11 l 1
 15 15 l 1
 13 15 l 1
 13 11 l 1
 9 11 l 1
 9 9 l 1
 13 9 l 1
 13 5 l 1
 15 5 l 1
 15 9 l 1
 19 9 l 1
20 18 m 2
 21.103515625 18 22 17.103515625 22 16 c 2
 22 4 l 2
 22 2.896484375 21.103515625 2 20 2 c 2
 8 2 l 2
 6.896484375 2 6 2.896484375 6 4 c 2
 6 16 l 2
 6 17.103515625 6.896484375 18 8 18 c 2
 20 18 l 2
4 14 m 1
 4 0 l 1
 18 0 l 1
 18 -2 l 1
 4 -2 l 2
 2.896484375 -2 2 -1.103515625 2 0 c 2
 2 14 l 1
 4 14 l 1
EndSplineSet
EndChar

StartChar: plus box outline
Encoding: 408 57659 166
Width: 24
Flags: HW
LayerCount: 2
Fore
SplineSet
19 1 m 1
 19 15 l 1
 5 15 l 1
 5 1 l 1
 19 1 l 1
19 17 m 2
 20.103515625 17 21 16.103515625 21 15 c 2
 21 1 l 2
 21 -0.103515625 20.103515625 -1 19 -1 c 2
 5 -1 l 2
 3.896484375 -1 3 -0.103515625 3 1 c 2
 3 15 l 2
 3 16.103515625 3.896484375 17 5 17 c 2
 19 17 l 2
11 13 m 1
 13 13 l 1
 13 9 l 1
 17 9 l 1
 17 7 l 1
 13 7 l 1
 13 3 l 1
 11 3 l 1
 11 7 l 1
 7 7 l 1
 7 9 l 1
 11 9 l 1
 11 13 l 1
EndSplineSet
EndChar

StartChar: plus box multiple outline
Encoding: 409 57660 167
Width: 24
Flags: HW
LayerCount: 2
Fore
SplineSet
18 9 m 1
 15 9 l 1
 15 6 l 1
 13 6 l 1
 13 9 l 1
 10 9 l 1
 10 11 l 1
 13 11 l 1
 13 14 l 1
 15 14 l 1
 15 11 l 1
 18 11 l 1
 18 9 l 1
20 16 m 1
 8 16 l 1
 8 4 l 1
 20 4 l 1
 20 16 l 1
20 18 m 2
 21.103515625 18 22 17.103515625 22 16 c 2
 22 4 l 2
 22 2.896484375 21.103515625 2 20 2 c 2
 8 2 l 2
 6.896484375 2 6 2.896484375 6 4 c 2
 6 16 l 2
 6 17.103515625 6.896484375 18 8 18 c 2
 20 18 l 2
4 14 m 1
 4 0 l 1
 18 0 l 1
 18 -2 l 1
 4 -2 l 2
 2.896484375 -2 2 -1.103515625 2 0 c 2
 2 14 l 1
 4 14 l 1
EndSplineSet
EndChar

StartChar: history
Encoding: 410 57700 168
Width: 24
Flags: HW
LayerCount: 2
Fore
SplineSet
13.5 12 m 1
 13.5 7.75 l 1
 17 5.669921875 l 1
 16.2802734375 4.4599609375 l 1
 12 7 l 1
 12 12 l 1
 13.5 12 l 1
13 17 m 0
 17.966796875 17 22 12.966796875 22 8 c 0
 22 3.033203125 17.966796875 -1 13 -1 c 0
 12.98828125 -1 12.9765625 -1.001953125 12.9658203125 -1.001953125 c 0
 10.4921875 -1.001953125 8.25390625 0.009765625 6.6396484375 1.6396484375 c 2
 8.0595703125 3.0595703125 l 1
 9.318359375 1.7880859375 11.0654296875 1 12.994140625 1 c 0
 12.99609375 1 12.998046875 1 13 1 c 0
 16.86328125 1 20 4.13671875 20 8 c 0
 20 11.86328125 16.86328125 15 13 15 c 0
 9.13671875 15 6 11.86328125 6 8 c 1
 9 8 l 1
 4.9599609375 3.9697265625 l 1
 1 8 l 1
 4 8 l 1
 4 12.966796875 8.033203125 17 13 17 c 0
EndSplineSet
EndChar

StartChar: radar
Encoding: 411 57469 169
Width: 24
Flags: HW
LayerCount: 2
Fore
SplineSet
19.0703125 15.0703125 m 2
 20.880859375 13.2646484375 22 10.7666015625 22 8.0107421875 c 0
 22 8.0068359375 22 8.00390625 22 8 c 0
 22 2.48046875 17.51953125 -2 12 -2 c 0
 6.48046875 -2 2 2.48046875 2 8 c 0
 2 13.51953125 6.48046875 18 12 18 c 2
 13 18 l 1
 13 9.7197265625 l 2
 13.599609375 9.3798828125 14 8.740234375 14 8 c 0
 14 6.896484375 13.103515625 6 12 6 c 0
 10.896484375 6 10 6.896484375 10 8 c 0
 10 8.740234375 10.400390625 9.3701171875 11 9.7197265625 c 2
 11 11.8603515625 l 1
 9.2802734375 11.416015625 8.005859375 9.8564453125 8 8 c 0
 8 5.7919921875 9.7919921875 4 12 4 c 0
 14.2080078125 4 16 5.7919921875 16 8 c 0
 15.9970703125 9.103515625 15.5517578125 10.103515625 14.830078125 10.830078125 c 2
 16.240234375 12.240234375 l 2
 17.330078125 11.16015625 18 9.66015625 18 8 c 0
 18 4.6884765625 15.3115234375 2 12 2 c 0
 8.6884765625 2 6 4.6884765625 6 8 c 0
 6.0029296875 10.9658203125 8.1689453125 13.431640625 11 13.91015625 c 2
 11 15.9296875 l 1
 7.060546875 15.4384765625 4 12.0732421875 4 8.001953125 c 2
 4 8 l 2
 4 3.5849609375 7.5849609375 0 12 0 c 0
 16.4150390625 0 20 3.5849609375 20 8 c 2
 20.0009765625 8.0029296875 l 2
 20.0009765625 10.2109375 19.1064453125 12.2109375 17.66015625 13.66015625 c 2
 19.0703125 15.0703125 l 2
EndSplineSet
EndChar

StartChar: temperature celsius
Encoding: 412 57672 170
Width: 24
Flags: HW
LayerCount: 2
Fore
SplineSet
16.5 15 m 0
 18.0498046875 15 19.5 14.5302734375 20.6904296875 13.7197265625 c 2
 19.5302734375 10.830078125 l 1
 18.73046875 11.5732421875 17.658203125 12.0283203125 16.4814453125 12.0283203125 c 0
 14.0087890625 12.0283203125 12.0009765625 10.021484375 12.0009765625 7.548828125 c 0
 12.0009765625 7.5322265625 12 7.5166015625 12 7.5 c 0
 12 7.4853515625 12 7.470703125 12 7.4560546875 c 0
 12 4.9833984375 14.0068359375 2.9755859375 16.4794921875 2.9755859375 c 0
 17.5146484375 2.9755859375 18.4716796875 3.330078125 19.23046875 3.919921875 c 1
 20.3701171875 1.0703125 l 2
 19.2470703125 0.3935546875 17.931640625 0.0048828125 16.525390625 0.0048828125 c 0
 16.51953125 0.0048828125 16.505859375 -0 16.5 0 c 0
 12.3603515625 0 9 3.3603515625 9 7.5 c 0
 9 11.6396484375 12.3603515625 15 16.5 15 c 0
6 17 m 0
 7.6552734375 17 9 15.6552734375 9 14 c 0
 9 12.3447265625 7.6552734375 11 6 11 c 0
 4.3447265625 11 3 12.3447265625 3 14 c 0
 3 15.6552734375 4.3447265625 17 6 17 c 0
6 15 m 0
 5.4482421875 15 5 14.5517578125 5 14 c 0
 5 13.4482421875 5.4482421875 13 6 13 c 0
 6.5517578125 13 7 13.4482421875 7 14 c 0
 7 14.5517578125 6.5517578125 15 6 15 c 0
EndSplineSet
EndChar

StartChar: temperature fahrenheit
Encoding: 413 57673 171
Width: 24
Flags: HW
LayerCount: 2
Fore
SplineSet
11 0 m 1
 11 15 l 1
 20 15 l 1
 20 12 l 1
 14 12 l 1
 14 9 l 1
 19 9 l 1
 19 6 l 1
 14 6 l 1
 14 0 l 1
 11 0 l 1
6 17 m 0
 7.6552734375 17 9 15.6552734375 9 14 c 0
 9 12.3447265625 7.6552734375 11 6 11 c 0
 4.3447265625 11 3 12.3447265625 3 14 c 0
 3 15.6552734375 4.3447265625 17 6 17 c 0
6 15 m 0
 5.4482421875 15 5 14.5517578125 5 14 c 0
 5 13.4482421875 5.4482421875 13 6 13 c 0
 6.5517578125 13 7 13.4482421875 7 14 c 0
 7 14.5517578125 6.5517578125 15 6 15 c 0
EndSplineSet
EndChar

StartChar: map marker path
Encoding: 414 57470 172
Width: 24
Flags: HW
LayerCount: 2
Fore
SplineSet
18 5 m 0
 19.6552734375 5 21 3.6552734375 21 2 c 0
 21 0.3447265625 19.6552734375 -1 18 -1 c 0
 17.9970703125 -1 17.994140625 -1 17.9912109375 -1 c 0
 16.6875 -1 15.5791015625 -0.1650390625 15.169921875 1 c 2
 14 1 l 1
 14 3 l 1
 15.169921875 3 l 2
 15.580078125 4.169921875 16.6904296875 5 18 5 c 0
18 3 m 0
 17.4482421875 3 17 2.5517578125 17 2 c 0
 17 1.4482421875 17.4482421875 1 18 1 c 0
 18.5517578125 1 19 1.4482421875 19 2 c 0
 19 2.5517578125 18.5517578125 3 18 3 c 0
18 12 m 0
 18.7890625 12 19.4296875 12.640625 19.4296875 13.4296875 c 0
 19.4296875 14.2197265625 18.7890625 14.8603515625 18 14.8603515625 c 0
 17.2109375 14.8603515625 16.5703125 14.2197265625 16.5703125 13.4296875 c 0
 16.5703125 12.640625 17.2109375 12 18 12 c 0
18 17.4296875 m 0
 20.2080078125 17.4296875 22 15.6376953125 22 13.4296875 c 0
 22 10.4404296875 18 6 18 6 c 1
 18 6 14 10.4404296875 14 13.4296875 c 0
 14 15.6376953125 15.7919921875 17.4296875 18 17.4296875 c 0
8.830078125 3 m 2
 10 3 l 1
 10 1 l 1
 8.830078125 1 l 2
 8.4208984375 -0.1650390625 7.3115234375 -1.0009765625 6.0078125 -1.0009765625 c 0
 6.0048828125 -1.0009765625 6.0029296875 -1 6 -1 c 0
 4.3447265625 -1 3 0.3447265625 3 2 c 0
 3 3.3095703125 3.830078125 4.419921875 5 4.830078125 c 2
 5 6 l 1
 7 6 l 1
 7 4.830078125 l 2
 7.849609375 4.5302734375 8.5302734375 3.849609375 8.830078125 3 c 2
6 3 m 0
 5.4482421875 3 5 2.5517578125 5 2 c 0
 5 1.4482421875 5.4482421875 1 6 1 c 0
 6.5517578125 1 7 1.4482421875 7 2 c 0
 7 2.5517578125 6.5517578125 3 6 3 c 0
6 17 m 0
 7.6552734375 17 9 15.6552734375 9 14 c 0
 9 12.6904296875 8.169921875 11.580078125 7 11.169921875 c 2
 7 10 l 1
 5 10 l 1
 5 11.169921875 l 2
 3.8349609375 11.5791015625 2.9990234375 12.6884765625 2.9990234375 13.9921875 c 0
 2.9990234375 13.9951171875 3 13.9970703125 3 14 c 0
 3 15.6552734375 4.3447265625 17 6 17 c 0
6 15 m 0
 5.4482421875 15 5 14.5517578125 5 14 c 0
 5 13.4482421875 5.4482421875 13 6 13 c 0
 6.5517578125 13 7 13.4482421875 7 14 c 0
 7 14.5517578125 6.5517578125 15 6 15 c 0
11 1 m 1
 11 3 l 1
 13 3 l 1
 13 1 l 1
 11 1 l 1
7 7 m 1
 5 7 l 1
 5 9 l 1
 7 9 l 1
 7 7 l 1
EndSplineSet
EndChar

StartChar: satellite variant
Encoding: 415 57476 173
Width: 24
Flags: HW
LayerCount: 2
Fore
SplineSet
11.6201171875 19 m 1
 17.2802734375 13.330078125 l 1
 15.16015625 11.2099609375 l 1
 13.0400390625 13.330078125 l 1
 11.6201171875 11.91015625 l 1
 13.9501953125 9.58984375 l 1
 12.7900390625 8.419921875 l 1
 13.240234375 7.9599609375 l 2
 13.5615234375 8.1103515625 13.9189453125 8.1943359375 14.296875 8.1943359375 c 0
 14.98828125 8.1943359375 15.6171875 7.9140625 16.0703125 7.4599609375 c 2
 12.5400390625 3.9296875 l 2
 12.0859375 4.3828125 11.8046875 5.0087890625 11.8046875 5.7001953125 c 0
 11.8046875 6.078125 11.8896484375 6.4384765625 12.0400390625 6.759765625 c 2
 11.580078125 7.2099609375 l 1
 10.41015625 6.0498046875 l 1
 8.08984375 8.3798828125 l 1
 6.669921875 6.9599609375 l 1
 8.7900390625 4.83984375 l 1
 6.669921875 2.7197265625 l 1
 1 8.3798828125 l 1
 3.1396484375 10.5 l 1
 5.259765625 8.3798828125 l 1
 6.669921875 9.7900390625 l 1
 3.83984375 12.6201171875 l 2
 3.4775390625 12.982421875 3.2529296875 13.482421875 3.2529296875 14.03515625 c 0
 3.2529296875 14.5869140625 3.4775390625 15.087890625 3.83984375 15.4501953125 c 2
 4.5498046875 16.16015625 l 2
 4.912109375 16.5224609375 5.412109375 16.7470703125 5.96484375 16.7470703125 c 0
 6.5166015625 16.7470703125 7.017578125 16.5224609375 7.3798828125 16.16015625 c 2
 10.2099609375 13.330078125 l 1
 11.6201171875 14.740234375 l 1
 9.5 16.8603515625 l 1
 11.6201171875 19 l 1
18 6 m 1
 18 3.7919921875 16.2080078125 2 14 2 c 1
 14 4 l 1
 15.103515625 4 16 4.896484375 16 6 c 1
 18 6 l 1
22 6 m 1
 22 1.5849609375 18.4150390625 -2 14 -2 c 1
 14 0 l 1
 17.3115234375 0 20 2.6884765625 20 6 c 1
 22 6 l 1
EndSplineSet
EndChar

StartChar: oil
Encoding: 417 57670 174
Width: 24
Flags: HW
LayerCount: 2
Fore
SplineSet
22 7.5 m 1
 22 7.5 24 5.330078125 24 4 c 0
 24 2.896484375 23.103515625 2 22 2 c 0
 20.896484375 2 20 2.896484375 20 4 c 0
 20 5.330078125 22 7.5 22 7.5 c 1
6 14 m 2
 10 14 l 2
 10.5517578125 14 11 13.5517578125 11 13 c 0
 11 12.4482421875 10.5517578125 12 10 12 c 2
 9 12 l 1
 9 10 l 1
 11 10 l 2
 11.740234375 10 12.3896484375 9.599609375 12.73046875 9 c 1
 19.240234375 12.759765625 l 1
 22.5 10.8701171875 l 2
 23 10.599609375 23.1396484375 10 22.8701171875 9.5 c 0
 22.58984375 9.0302734375 22 8.8603515625 21.5 9.1396484375 c 2
 19.400390625 10.349609375 l 1
 15.75 4.0302734375 l 2
 15.41015625 3.419921875 14.75 3 14 3 c 2
 5 3 l 2
 3.896484375 3 3 3.896484375 3 5 c 2
 3 8 l 2
 3 9.103515625 3.896484375 10 5 10 c 2
 7 10 l 1
 7 12 l 1
 6 12 l 2
 5.4482421875 12 5 12.4482421875 5 13 c 0
 5 13.5517578125 5.4482421875 14 6 14 c 2
5 8 m 1
 5 5 l 1
 14 5 l 1
 16.0595703125 8.5703125 l 1
 12.599609375 6.5703125 l 1
 11.6904296875 8 l 1
 5 8 l 1
0.3798828125 10.7900390625 m 2
 2.08984375 12.5 l 2
 2.5 12.8896484375 3.1103515625 12.8896484375 3.5 12.5 c 0
 3.8896484375 12.1103515625 3.8896484375 11.5 3.5 11.08984375 c 2
 1.7900390625 9.3798828125 l 2
 1.400390625 9 0.76953125 9 0.3798828125 9.3798828125 c 0
 0 9.76953125 0 10.400390625 0.3798828125 10.7900390625 c 2
EndSplineSet
EndChar

StartChar: oil level
Encoding: 418 57671 175
Width: 24
Flags: HW
LayerCount: 2
Fore
SplineSet
8 2 m 0
 9.330078125 2 10.2099609375 1.2099609375 10.7099609375 0.7099609375 c 0
 11.0498046875 0.3701171875 11.2197265625 0.1796875 11.5 0.080078125 c 0
 11.6298828125 0.0302734375 11.7802734375 0 12 0 c 0
 12.669921875 0 12.7900390625 0.2099609375 13.2900390625 0.7099609375 c 0
 13.7900390625 1.2099609375 14.669921875 2 16 2 c 0
 17.330078125 2 18.2099609375 1.2099609375 18.7099609375 0.7099609375 c 0
 19.2099609375 0.2099609375 19.330078125 0 20 0 c 0
 20.669921875 0 20.7900390625 0.2099609375 21.2900390625 0.7099609375 c 0
 21.650390625 1.0703125 22.2099609375 1.580078125 23 1.83984375 c 1
 23 -0.41015625 l 2
 22.91015625 -0.5 22.8203125 -0.58984375 22.7099609375 -0.7099609375 c 0
 22.2099609375 -1.2099609375 21.330078125 -2 20 -2 c 0
 18.669921875 -2 17.7900390625 -1.2099609375 17.2900390625 -0.7099609375 c 0
 16.7900390625 -0.2099609375 16.669921875 0 16 0 c 0
 15.330078125 0 15.2099609375 -0.2099609375 14.7099609375 -0.7099609375 c 0
 14.2099609375 -1.2099609375 13.330078125 -2 12 -2 c 0
 11.830078125 -2 11.66015625 -2 11.5 -1.9599609375 c 0
 10.4404296875 -1.7998046875 9.73046875 -1.1396484375 9.2900390625 -0.7099609375 c 0
 8.7900390625 -0.2099609375 8.669921875 0 8 0 c 0
 7.330078125 0 7.2099609375 -0.2099609375 6.7099609375 -0.7099609375 c 0
 6.2099609375 -1.2099609375 5.330078125 -2 4 -2 c 0
 2.669921875 -2 1.7900390625 -1.2099609375 1.2900390625 -0.7099609375 c 0
 1.1796875 -0.58984375 1.08984375 -0.5 1 -0.41015625 c 2
 1 1.83984375 l 1
 1.7900390625 1.580078125 2.349609375 1.0703125 2.7099609375 0.7099609375 c 0
 3.2099609375 0.2099609375 3.330078125 0 4 0 c 0
 4.669921875 0 4.7900390625 0.2099609375 5.2900390625 0.7099609375 c 0
 5.7900390625 1.2099609375 6.669921875 2 8 2 c 0
22 9.5 m 1
 22 9.5 24 7.330078125 24 6 c 0
 24 4.900390625 23.099609375 4 22 4 c 0
 20.900390625 4 20 4.900390625 20 6 c 0
 20 7.330078125 22 9.5 22 9.5 c 1
22.5 12.8701171875 m 2
 23 12.599609375 23.1396484375 12 22.8701171875 11.5 c 0
 22.58984375 11.0302734375 22 10.8603515625 21.5 11.1396484375 c 2
 19.400390625 12.349609375 l 1
 15.75 6.0302734375 l 2
 15.41015625 5.419921875 14.75 5 14 5 c 2
 5 5 l 2
 3.900390625 5 3 5.900390625 3 7 c 2
 3 10 l 2
 3 11.099609375 3.900390625 12 5 12 c 2
 7 12 l 1
 7 14 l 1
 6 14 l 2
 5.4501953125 14 5 14.4501953125 5 15 c 0
 5 15.5498046875 5.4501953125 16 6 16 c 2
 10 16 l 2
 10.5498046875 16 11 15.5498046875 11 15 c 0
 11 14.4501953125 10.5498046875 14 10 14 c 2
 9 14 l 1
 9 12 l 1
 11 12 l 2
 11.740234375 12 12.3896484375 11.599609375 12.73046875 11 c 1
 19.240234375 14.759765625 l 1
 22.5 12.8701171875 l 2
14 7 m 1
 16.0595703125 10.5703125 l 1
 12.599609375 8.5703125 l 1
 11.6904296875 10 l 1
 5 10 l 1
 5 7 l 1
 14 7 l 1
3.5 13.080078125 m 2
 1.7900390625 11.3798828125 l 2
 1.615234375 11.23046875 1.3876953125 11.1396484375 1.1396484375 11.1396484375 c 0
 0.587890625 11.1396484375 0.1396484375 11.587890625 0.1396484375 12.1396484375 c 0
 0.1396484375 12.3876953125 0.23046875 12.615234375 0.3798828125 12.7900390625 c 2
 2.08984375 14.5 l 2
 2.2705078125 14.6796875 2.51953125 14.791015625 2.794921875 14.791015625 c 0
 3.0693359375 14.791015625 3.3193359375 14.6796875 3.5 14.5 c 0
 3.8896484375 14.1103515625 3.8896484375 13.5 3.5 13.080078125 c 2
EndSplineSet
EndChar

StartChar: coolant temperature
Encoding: 419 57674 176
Width: 24
Flags: HW
LayerCount: 2
Fore
SplineSet
11.5 19 m 0
 12.328125 19 13 18.328125 13 17.5 c 2
 13 17 l 1
 17 17 l 1
 17 15 l 1
 13 15 l 1
 13 13 l 1
 17 13 l 1
 17 11 l 1
 13 11 l 1
 13 9 l 1
 17 9 l 1
 17 7 l 1
 13 7 l 1
 13 5.5 l 2
 13.6298828125 5 14 4.2900390625 14 3.5 c 0
 14 2.1201171875 12.8798828125 1 11.5 1 c 0
 10.1201171875 1 9 2.1201171875 9 3.5 c 0
 9 4.2900390625 9.3701171875 5.0302734375 10 5.5 c 2
 10 17.5 l 2
 10 18.328125 10.671875 19 11.5 19 c 0
0 5 m 1
 1.330078125 5 2.2099609375 4.2099609375 2.7099609375 3.7099609375 c 0
 3.2099609375 3.2099609375 3.330078125 3 4 3 c 0
 4.669921875 3 4.7900390625 3.2099609375 5.2900390625 3.7099609375 c 0
 5.650390625 4.0703125 6.2099609375 4.580078125 7 4.83984375 c 1
 7 2.58984375 l 2
 6.91015625 2.5 6.8203125 2.41015625 6.7099609375 2.2900390625 c 0
 6.2099609375 1.7900390625 5.330078125 1 4 1 c 0
 2.669921875 1 1.7900390625 1.7900390625 1.2900390625 2.2900390625 c 0
 0.7900390625 2.7900390625 0.669921875 3 0 3 c 1
 0 5 l 1
16 5 m 1
 17.330078125 5 18.2099609375 4.2099609375 18.7099609375 3.7099609375 c 0
 19.2099609375 3.2099609375 19.330078125 3 20 3 c 0
 20.669921875 3 20.7900390625 3.2099609375 21.2900390625 3.7099609375 c 0
 21.7900390625 4.2099609375 22.669921875 5 24 5 c 1
 24 3 l 1
 23.330078125 3 23.2099609375 2.7900390625 22.7099609375 2.2900390625 c 0
 22.2099609375 1.7900390625 21.330078125 1 20 1 c 0
 18.669921875 1 17.7900390625 1.7900390625 17.2900390625 2.2900390625 c 0
 16.7900390625 2.7900390625 16.669921875 3 16 3 c 1
 16 5 l 1
8 0 m 0
 9.330078125 0 10.2099609375 -0.7900390625 10.7099609375 -1.2900390625 c 0
 11.0498046875 -1.6298828125 11.2197265625 -1.8203125 11.5 -1.919921875 c 0
 11.6298828125 -1.9697265625 11.7802734375 -2 12 -2 c 0
 12.669921875 -2 12.7900390625 -1.7900390625 13.2900390625 -1.2900390625 c 0
 13.7900390625 -0.7900390625 14.669921875 0 16 0 c 0
 17.330078125 0 18.2099609375 -0.7900390625 18.7099609375 -1.2900390625 c 0
 19.2099609375 -1.7900390625 19.330078125 -2 20 -2 c 0
 20.669921875 -2 20.7900390625 -1.7900390625 21.2900390625 -1.2900390625 c 0
 21.650390625 -0.9296875 22.2099609375 -0.419921875 23 -0.16015625 c 1
 23 -2.41015625 l 2
 22.91015625 -2.5 22.8203125 -2.58984375 22.7099609375 -2.7099609375 c 0
 22.2099609375 -3.2099609375 21.330078125 -4 20 -4 c 0
 18.669921875 -4 17.7900390625 -3.2099609375 17.2900390625 -2.7099609375 c 0
 16.7900390625 -2.2099609375 16.669921875 -2 16 -2 c 0
 15.330078125 -2 15.2099609375 -2.2099609375 14.7099609375 -2.7099609375 c 0
 14.2099609375 -3.2099609375 13.330078125 -4 12 -4 c 0
 11.830078125 -4 11.66015625 -4 11.5 -3.9599609375 c 0
 10.4404296875 -3.7998046875 9.73046875 -3.1396484375 9.2900390625 -2.7099609375 c 0
 8.7900390625 -2.2099609375 8.669921875 -2 8 -2 c 0
 7.330078125 -2 7.2099609375 -2.2099609375 6.7099609375 -2.7099609375 c 0
 6.2099609375 -3.2099609375 5.330078125 -4 4 -4 c 0
 2.669921875 -4 1.7900390625 -3.2099609375 1.2900390625 -2.7099609375 c 0
 1.1796875 -2.58984375 1.08984375 -2.5 1 -2.41015625 c 2
 1 -0.16015625 l 1
 1.7900390625 -0.419921875 2.349609375 -0.9296875 2.7099609375 -1.2900390625 c 0
 3.2099609375 -1.7900390625 3.330078125 -2 4 -2 c 0
 4.669921875 -2 4.7900390625 -1.7900390625 5.2900390625 -1.2900390625 c 0
 5.7900390625 -0.7900390625 6.669921875 0 8 0 c 0
EndSplineSet
EndChar

StartChar: oil temperature
Encoding: 420 57675 177
Width: 24
Flags: HW
LayerCount: 2
Fore
SplineSet
10 15 m 1
 10 13 l 1
 13 13 l 1
 13 11 l 1
 10 11 l 1
 10 9 l 1
 13 9 l 1
 13 7 l 1
 10 7 l 1
 10 4.7001953125 l 2
 10.599609375 4.400390625 11 3.7001953125 11 3 c 0
 11 1.900390625 10.099609375 1 9 1 c 0
 7.900390625 1 7 1.900390625 7 3 c 0
 7 3.7001953125 7.400390625 4.400390625 8 4.7001953125 c 2
 8 18 l 2
 8 18.599609375 8.400390625 19 9 19 c 0
 9.599609375 19 10 18.599609375 10 18 c 2
 10 17 l 1
 13 17 l 1
 13 15 l 1
 10 15 l 1
22 2.5 m 1
 22 2.5 24 0.2998046875 24 -1 c 0
 24 -2.099609375 23.099609375 -3 22 -3 c 0
 20.900390625 -3 20 -2.099609375 20 -1 c 0
 20 0.2998046875 22 2.5 22 2.5 c 1
22.900390625 4.5 m 0
 22.599609375 4 22 3.900390625 21.5 4.099609375 c 2
 19.400390625 5.2998046875 l 1
 15.7998046875 -1 l 2
 15.5 -1.599609375 14.7998046875 -2 14 -2 c 2
 5 -2 l 2
 3.900390625 -2 3 -1.099609375 3 0 c 2
 3 3 l 2
 3 4.099609375 3.900390625 5 5 5 c 1
 5 0 l 1
 14 0 l 1
 16.099609375 3.599609375 l 1
 13 1.7998046875 l 1
 13 4.2001953125 l 1
 19.2001953125 7.7998046875 l 1
 22.5 5.900390625 l 2
 23 5.599609375 23.099609375 5 22.900390625 4.5 c 0
3.5 6.099609375 m 2
 1.7998046875 4.400390625 l 2
 1.400390625 4 0.7998046875 4 0.400390625 4.400390625 c 0
 0 4.7998046875 0 5.400390625 0.400390625 5.7998046875 c 2
 2.099609375 7.5 l 2
 2.5 7.900390625 3.099609375 7.900390625 3.5 7.5 c 0
 3.900390625 7.099609375 3.900390625 6.5 3.5 6.099609375 c 2
EndSplineSet
EndChar

StartChar: view grid
Encoding: 421 57688 178
Width: 24
Flags: HW
LayerCount: 2
Fore
SplineSet
3 9 m 1
 3 17 l 1
 11 17 l 1
 11 9 l 1
 3 9 l 1
3 -1 m 1
 3 7 l 1
 11 7 l 1
 11 -1 l 1
 3 -1 l 1
13 -1 m 1
 13 7 l 1
 21 7 l 1
 21 -1 l 1
 13 -1 l 1
13 17 m 1
 21 17 l 1
 21 9 l 1
 13 9 l 1
 13 17 l 1
EndSplineSet
EndChar

StartChar: view grid outline
Encoding: 422 57689 179
Width: 24
Flags: HW
LayerCount: 2
Fore
SplineSet
3 9 m 1
 3 17 l 1
 11 17 l 1
 11 9 l 1
 3 9 l 1
5 15 m 1
 5 11 l 1
 9 11 l 1
 9 15 l 1
 5 15 l 1
13 -1 m 1
 13 7 l 1
 21 7 l 1
 21 -1 l 1
 13 -1 l 1
15 5 m 1
 15 1 l 1
 19 1 l 1
 19 5 l 1
 15 5 l 1
3 -1 m 1
 3 7 l 1
 11 7 l 1
 11 -1 l 1
 3 -1 l 1
5 5 m 1
 5 1 l 1
 9 1 l 1
 9 5 l 1
 5 5 l 1
13 17 m 1
 21 17 l 1
 21 9 l 1
 13 9 l 1
 13 17 l 1
19 11 m 1
 19 15 l 1
 15 15 l 1
 15 11 l 1
 19 11 l 1
EndSplineSet
EndChar

StartChar: view grid plus
Encoding: 423 57690 180
Width: 24
Flags: HW
LayerCount: 2
Fore
SplineSet
13 17 m 1
 21 17 l 1
 21 9 l 1
 13 9 l 1
 13 17 l 1
3 -1 m 1
 3 7 l 1
 11 7 l 1
 11 -1 l 1
 3 -1 l 1
3 17 m 1
 11 17 l 1
 11 9 l 1
 3 9 l 1
 3 17 l 1
13 4 m 1
 16 4 l 1
 16 7 l 1
 18 7 l 1
 18 4 l 1
 21 4 l 1
 21 2 l 1
 18 2 l 1
 18 -1 l 1
 16 -1 l 1
 16 2 l 1
 13 2 l 1
 13 4 l 1
EndSplineSet
EndChar

StartChar: view grid plus outline
Encoding: 424 57691 181
Width: 24
Flags: HW
LayerCount: 2
Fore
SplineSet
3 -1 m 1
 3 7 l 1
 11 7 l 1
 11 -1 l 1
 3 -1 l 1
5 5 m 1
 5 1 l 1
 9 1 l 1
 9 5 l 1
 5 5 l 1
3 9 m 1
 3 17 l 1
 11 17 l 1
 11 9 l 1
 3 9 l 1
5 15 m 1
 5 11 l 1
 9 11 l 1
 9 15 l 1
 5 15 l 1
13 17 m 1
 21 17 l 1
 21 9 l 1
 13 9 l 1
 13 17 l 1
19 11 m 1
 19 15 l 1
 15 15 l 1
 15 11 l 1
 19 11 l 1
18 4 m 1
 21 4 l 1
 21 2 l 1
 18 2 l 1
 18 -1 l 1
 16 -1 l 1
 16 2 l 1
 13 2 l 1
 13 4 l 1
 16 4 l 1
 16 7 l 1
 18 7 l 1
 18 4 l 1
EndSplineSet
EndChar

StartChar: cog outline
Encoding: 425 57359 182
Width: 24
Flags: HW
LayerCount: 2
Fore
SplineSet
12 12 m 0
 14.2080078125 12 16 10.2080078125 16 8 c 0
 16 5.7919921875 14.2080078125 4 12 4 c 0
 9.7919921875 4 8 5.7919921875 8 8 c 0
 8 10.2080078125 9.7919921875 12 12 12 c 0
12 10 m 0
 10.896484375 10 10 9.103515625 10 8 c 0
 10 6.896484375 10.896484375 6 12 6 c 0
 13.103515625 6 14 6.896484375 14 8 c 0
 14 9.103515625 13.103515625 10 12 10 c 0
10 -2 m 2
 9.75 -2 9.5400390625 -1.8203125 9.5 -1.580078125 c 2
 9.1298828125 1.0703125 l 2
 8.5 1.3203125 7.9599609375 1.66015625 7.4404296875 2.0595703125 c 2
 4.9501953125 1.0498046875 l 2
 4.73046875 0.9697265625 4.4599609375 1.0498046875 4.33984375 1.26953125 c 2
 2.33984375 4.73046875 l 2
 2.2099609375 4.9501953125 2.26953125 5.2197265625 2.4599609375 5.3701171875 c 2
 4.5703125 7.0302734375 l 1
 4.5 8 l 1
 4.5703125 9 l 1
 2.4599609375 10.6298828125 l 2
 2.26953125 10.7802734375 2.2099609375 11.0498046875 2.33984375 11.26953125 c 2
 4.33984375 14.73046875 l 2
 4.4599609375 14.9501953125 4.73046875 15.0400390625 4.9501953125 14.9501953125 c 2
 7.4404296875 13.9501953125 l 2
 7.9599609375 14.33984375 8.5 14.6796875 9.1298828125 14.9296875 c 2
 9.5 17.580078125 l 2
 9.5400390625 17.8203125 9.75 18 10 18 c 2
 14 18 l 2
 14.25 18 14.4599609375 17.8203125 14.5 17.580078125 c 2
 14.8701171875 14.9296875 l 2
 15.5 14.6796875 16.0400390625 14.33984375 16.5595703125 13.9501953125 c 2
 19.0498046875 14.9501953125 l 2
 19.26953125 15.0400390625 19.5400390625 14.9501953125 19.66015625 14.73046875 c 2
 21.66015625 11.26953125 l 2
 21.7900390625 11.0498046875 21.73046875 10.7802734375 21.5400390625 10.6298828125 c 2
 19.4296875 9 l 1
 19.5 8 l 1
 19.4296875 7 l 1
 21.5400390625 5.3701171875 l 2
 21.73046875 5.2197265625 21.7900390625 4.9501953125 21.66015625 4.73046875 c 2
 19.66015625 1.26953125 l 2
 19.5400390625 1.0498046875 19.26953125 0.9599609375 19.0498046875 1.0498046875 c 2
 16.5595703125 2.0498046875 l 2
 16.0400390625 1.66015625 15.5 1.3203125 14.8701171875 1.0703125 c 2
 14.5 -1.580078125 l 2
 14.4599609375 -1.8203125 14.25 -2 14 -2 c 2
 10 -2 l 2
11.25 16 m 1
 10.8798828125 13.3896484375 l 2
 9.6796875 13.1396484375 8.6201171875 12.5 7.849609375 11.6103515625 c 2
 5.4404296875 12.650390625 l 1
 4.6904296875 11.349609375 l 1
 6.7998046875 9.7998046875 l 2
 6.400390625 8.6298828125 6.400390625 7.3603515625 6.7998046875 6.2001953125 c 2
 4.6796875 4.6396484375 l 1
 5.4296875 3.33984375 l 1
 7.8603515625 4.3798828125 l 2
 8.6298828125 3.5 9.6796875 2.8603515625 10.8701171875 2.6201171875 c 2
 11.240234375 0 l 1
 12.759765625 0 l 1
 13.1298828125 2.6103515625 l 2
 14.3203125 2.8603515625 15.3701171875 3.5 16.1396484375 4.3798828125 c 2
 18.5703125 3.33984375 l 1
 19.3203125 4.6396484375 l 1
 17.2001953125 6.1904296875 l 2
 17.599609375 7.3603515625 17.599609375 8.6298828125 17.2001953125 9.7998046875 c 2
 19.3095703125 11.349609375 l 1
 18.5595703125 12.650390625 l 1
 16.150390625 11.6103515625 l 2
 15.3798828125 12.5 14.3203125 13.1396484375 13.1201171875 13.3798828125 c 2
 12.75 16 l 1
 11.25 16 l 1
EndSplineSet
EndChar

StartChar: star cog
Encoding: 426 57374 183
Width: 24
Flags: HW
LayerCount: 2
Fore
SplineSet
18.7998046875 8 m 2
 15.58984375 7.900390625 12.91015625 5.6298828125 12.1904296875 2.6103515625 c 1
 12 2.73046875 l 1
 5.8203125 -1 l 1
 7.4501953125 6.0302734375 l 1
 2 10.759765625 l 1
 9.1904296875 11.3798828125 l 1
 12 18 l 1
 14.8095703125 11.3798828125 l 1
 22 10.759765625 l 1
 18.7998046875 8 l 2
23.830078125 -0.6396484375 m 2
 22.830078125 -2.3701171875 l 2
 22.759765625 -2.5 22.6298828125 -2.5 22.5 -2.5 c 2
 21.26953125 -2 l 2
 21 -2.1796875 20.73046875 -2.33984375 20.4296875 -2.4697265625 c 2
 20.240234375 -3.7900390625 l 2
 20.2197265625 -3.91015625 20.1103515625 -4 20 -4 c 2
 18 -4 l 2
 17.8603515625 -4 17.759765625 -3.91015625 17.740234375 -3.7900390625 c 2
 17.5498046875 -2.4697265625 l 2
 17.240234375 -2.349609375 16.9599609375 -2.1796875 16.7001953125 -2 c 2
 15.4599609375 -2.5 l 2
 15.33984375 -2.5 15.2099609375 -2.5 15.150390625 -2.3701171875 c 2
 14.150390625 -0.6396484375 l 2
 14.08984375 -0.5302734375 14.1201171875 -0.400390625 14.2099609375 -0.3203125 c 2
 15.26953125 0.5 l 2
 15.25 0.669921875 15.240234375 0.830078125 15.240234375 1 c 0
 15.240234375 1.169921875 15.25 1.330078125 15.26953125 1.5 c 2
 14.2099609375 2.3203125 l 2
 14.1103515625 2.400390625 14.08984375 2.5302734375 14.150390625 2.6396484375 c 2
 15.150390625 4.3701171875 l 2
 15.2197265625 4.5 15.349609375 4.5 15.4599609375 4.5 c 2
 16.7001953125 4 l 2
 16.9599609375 4.1796875 17.25 4.33984375 17.5498046875 4.4697265625 c 2
 17.740234375 5.7900390625 l 2
 17.759765625 5.91015625 17.8701171875 6 18 6 c 2
 20 6 l 2
 20.1103515625 6 20.2197265625 5.91015625 20.23046875 5.7900390625 c 2
 20.419921875 4.4697265625 l 2
 20.73046875 4.349609375 21 4.1796875 21.26953125 4 c 2
 22.5 4.5 l 2
 22.6298828125 4.5 22.759765625 4.5 22.8203125 4.3701171875 c 2
 23.8203125 2.6396484375 l 2
 23.8798828125 2.5302734375 23.849609375 2.400390625 23.759765625 2.3203125 c 2
 22.7001953125 1.5 l 2
 22.73046875 1.330078125 22.740234375 1.169921875 22.740234375 1 c 0
 22.740234375 0.830078125 22.7197265625 0.669921875 22.7001953125 0.5 c 2
 23.76953125 -0.3203125 l 2
 23.8603515625 -0.400390625 23.8896484375 -0.5302734375 23.830078125 -0.6396484375 c 2
20.5 1 m 0
 20.5 1.830078125 19.830078125 2.5 19 2.5 c 0
 18.169921875 2.5 17.5 1.830078125 17.5 1 c 0
 17.5 0.169921875 18.16015625 -0.5 19 -0.5 c 0
 19.830078125 -0.5 20.5 0.169921875 20.5 1 c 0
EndSplineSet
EndChar

StartChar: star cog outline
Encoding: 427 57375 184
Width: 24
Flags: HW
LayerCount: 2
Fore
SplineSet
10.2900390625 9.8701171875 m 1
 5.91015625 9.5 l 1
 9.23046875 6.6201171875 l 1
 8.240234375 2.33984375 l 1
 12 4.6103515625 l 1
 12.759765625 4.150390625 l 2
 12.5 3.669921875 12.3203125 3.150390625 12.1904296875 2.6103515625 c 1
 12 2.73046875 l 1
 5.8203125 -1 l 1
 7.4501953125 6.0302734375 l 1
 2 10.759765625 l 1
 9.1904296875 11.3701171875 l 1
 12 18 l 1
 14.8095703125 11.3701171875 l 1
 22 10.759765625 l 1
 18.7998046875 8 l 2
 17.2900390625 7.9501953125 15.91015625 7.4296875 14.7802734375 6.5703125 c 1
 14.76953125 6.6201171875 l 1
 18.08984375 9.5 l 1
 13.7099609375 9.8701171875 l 1
 12 13.91015625 l 1
 10.2900390625 9.8701171875 l 1
23.830078125 -0.6396484375 m 2
 22.830078125 -2.3701171875 l 2
 22.759765625 -2.5 22.6298828125 -2.5 22.5 -2.5 c 2
 21.26953125 -2 l 2
 21 -2.1796875 20.73046875 -2.33984375 20.4296875 -2.4697265625 c 2
 20.240234375 -3.7900390625 l 2
 20.2197265625 -3.91015625 20.1103515625 -4 20 -4 c 2
 18 -4 l 2
 17.8603515625 -4 17.759765625 -3.91015625 17.740234375 -3.7900390625 c 2
 17.5498046875 -2.4697265625 l 2
 17.240234375 -2.349609375 16.9599609375 -2.1796875 16.7001953125 -2 c 2
 15.4599609375 -2.5 l 2
 15.33984375 -2.5 15.2099609375 -2.5 15.150390625 -2.3701171875 c 2
 14.150390625 -0.6396484375 l 2
 14.08984375 -0.5302734375 14.1201171875 -0.400390625 14.2099609375 -0.3203125 c 2
 15.26953125 0.5 l 2
 15.25 0.669921875 15.240234375 0.830078125 15.240234375 1 c 0
 15.240234375 1.169921875 15.25 1.330078125 15.26953125 1.5 c 2
 14.2099609375 2.3203125 l 2
 14.1103515625 2.400390625 14.08984375 2.5302734375 14.150390625 2.6396484375 c 2
 15.150390625 4.3701171875 l 2
 15.2197265625 4.5 15.349609375 4.5 15.4599609375 4.5 c 2
 16.7001953125 4 l 2
 16.9599609375 4.1796875 17.25 4.33984375 17.5498046875 4.4697265625 c 2
 17.740234375 5.7900390625 l 2
 17.759765625 5.91015625 17.8701171875 6 18 6 c 2
 20 6 l 2
 20.1103515625 6 20.2197265625 5.91015625 20.23046875 5.7900390625 c 2
 20.419921875 4.4697265625 l 2
 20.73046875 4.349609375 21 4.1796875 21.26953125 4 c 2
 22.5 4.5 l 2
 22.6298828125 4.5 22.759765625 4.5 22.8203125 4.3701171875 c 2
 23.8203125 2.6396484375 l 2
 23.8798828125 2.5302734375 23.849609375 2.400390625 23.759765625 2.3203125 c 2
 22.7001953125 1.5 l 2
 22.73046875 1.330078125 22.740234375 1.169921875 22.740234375 1 c 0
 22.740234375 0.830078125 22.7197265625 0.669921875 22.7001953125 0.5 c 2
 23.76953125 -0.3203125 l 2
 23.8603515625 -0.400390625 23.8896484375 -0.5302734375 23.830078125 -0.6396484375 c 2
20.5 1 m 0
 20.5 1.830078125 19.830078125 2.5 19 2.5 c 0
 18.169921875 2.5 17.5 1.830078125 17.5 1 c 0
 17.5 0.169921875 18.16015625 -0.5 19 -0.5 c 0
 19.830078125 -0.5 20.5 0.169921875 20.5 1 c 0
EndSplineSet
EndChar

StartChar: car light high
Encoding: 428 57712 185
Width: 24
Flags: HW
LayerCount: 2
Fore
SplineSet
13 15.2001953125 m 0
 17 15.2001953125 22 12.5 22 8 c 0
 22 3.5 17 0.7998046875 13 0.7998046875 c 0
 9 0.7998046875 9 15.2001953125 13 15.2001953125 c 0
13.099609375 2.7998046875 m 0
 16 2.900390625 20 4.7001953125 20 8 c 0
 20 11.2998046875 16 13.099609375 13.099609375 13.2001953125 c 0
 12.7001953125 12.7998046875 12 11 12 8 c 0
 12 5 12.7001953125 3.2001953125 13.099609375 2.7998046875 c 0
2 15 m 1
 9.5 15 l 1
 9.2998046875 14.599609375 9 14.2001953125 8.900390625 13.599609375 c 0
 8.7998046875 13.400390625 8.7998046875 13.2001953125 8.7001953125 13 c 2
 2 13 l 1
 2 15 l 1
8 9 m 2
 2 9 l 1
 2 11 l 1
 8.2001953125 11 l 1
 8.099609375 10.400390625 8.099609375 9.7001953125 8 9 c 2
8.7001953125 3 m 2
 8.900390625 2.2001953125 9.2001953125 1.599609375 9.599609375 1 c 1
 2.099609375 1 l 1
 2.099609375 3 l 1
 8.7001953125 3 l 2
8.2001953125 5 m 1
 2 5 l 1
 2 7 l 1
 8 7 l 2
 8.099609375 6.2998046875 8.099609375 5.599609375 8.2001953125 5 c 1
EndSplineSet
EndChar

StartChar: car light alert
Encoding: 429 57713 186
Width: 24
Flags: HW
LayerCount: 2
Fore
SplineSet
23 13 m 1
 23 7 l 1
 21 7 l 1
 21 13 l 1
 23 13 l 1
21 3 m 1
 21 5 l 1
 23 5 l 1
 23 3 l 1
 21 3 l 1
1 11 m 1
 5.2001953125 11 l 1
 5.099609375 10.400390625 5.099609375 9.7001953125 5 9 c 2
 1 9 l 1
 1 11 l 1
5 7 m 2
 5.099609375 6.2998046875 5.099609375 5.599609375 5.2001953125 5 c 1
 1 5 l 1
 1 7 l 1
 5 7 l 2
5.900390625 13.599609375 m 0
 5.7998046875 13.400390625 5.7998046875 13.2001953125 5.7001953125 13 c 2
 1 13 l 1
 1 15 l 1
 6.5 15 l 1
 6.2998046875 14.599609375 6 14.2001953125 5.900390625 13.599609375 c 0
1 3 m 1
 5.7001953125 3 l 2
 5.900390625 2.2001953125 6.2001953125 1.599609375 6.599609375 1 c 1
 1 1 l 1
 1 3 l 1
10 15.2001953125 m 0
 14 15.2001953125 19 12.5 19 8 c 0
 19 3.5 14 0.7998046875 10 0.7998046875 c 0
 6 0.7998046875 6 15.2001953125 10 15.2001953125 c 0
10.099609375 2.7998046875 m 0
 9.7001953125 3.2001953125 9 5 9 8 c 0
 9 11 9.7001953125 12.7998046875 10.099609375 13.2001953125 c 0
 13 13.099609375 17 11.2998046875 17 8 c 0
 17 4.7001953125 13 2.900390625 10.099609375 2.7998046875 c 1024
EndSplineSet
EndChar

StartChar: car light dimmed
Encoding: 430 57714 187
Width: 24
Flags: HW
LayerCount: 2
Fore
SplineSet
13 15.2001953125 m 0
 17 15.2001953125 22 12.5 22 8 c 0
 22 3.5 17 0.7998046875 13 0.7998046875 c 0
 9 0.7998046875 9 15.2001953125 13 15.2001953125 c 0
13.099609375 2.7998046875 m 0
 15.900390625 2.900390625 20 4.7001953125 20 8 c 0
 20 11.2998046875 16 13.099609375 13.099609375 13.2001953125 c 0
 12.7001953125 12.7998046875 12 11 12 8 c 0
 12 5 12.7001953125 3.2001953125 13.099609375 2.7998046875 c 0
8 9.5 m 1
 8 9 7.900390625 8.5 7.900390625 8 c 0
 7.900390625 7.7998046875 7.900390625 7.599609375 7.900390625 7.400390625 c 2
 2.400390625 6 l 1
 1.900390625 7.900390625 l 1
 8 9.5 l 1
2 13 m 1
 9.400390625 14.900390625 l 1
 9.2001953125 14.599609375 9 14.2001953125 8.900390625 13.7001953125 c 0
 8.7998046875 13.400390625 8.7001953125 13 8.599609375 12.599609375 c 2
 2.5 11.099609375 l 1
 2 13 l 1
8.2001953125 4.5 m 1
 8.2998046875 3.7998046875 8.5 3.099609375 8.7001953125 2.599609375 c 1
 2.400390625 1 l 1
 1.900390625 2.900390625 l 1
 8.2001953125 4.5 l 1
EndSplineSet
EndChar

StartChar: car light fog
Encoding: 431 57715 188
Width: 24
Flags: HW
LayerCount: 2
Fore
SplineSet
13 15.2001953125 m 0
 17 15.2001953125 22 12.5 22 8 c 0
 22 3.5 17 0.7998046875 13 0.7998046875 c 0
 9 0.7998046875 9 15.2001953125 13 15.2001953125 c 0
13.099609375 2.7998046875 m 0
 16 2.900390625 20 4.7001953125 20 8 c 0
 20 11.2998046875 16 13.099609375 13.099609375 13.2001953125 c 0
 12.7001953125 12.7998046875 12 11 12 8 c 0
 12 5 12.7001953125 3.2001953125 13.099609375 2.7998046875 c 0
6 12 m 1
 6 9 l 1
 8 9 l 1
 8 8.7001953125 8 8.2998046875 8 8 c 0
 8 7.7001953125 8 7.2998046875 8 7 c 1
 6 7 l 1
 6 4 l 1
 8.400390625 4 l 2
 8.599609375 3.2998046875 8.7998046875 2.599609375 9 2 c 1
 6 2 l 1
 6 -1 l 1
 4 -1 l 1
 4 2 l 1
 2 2 l 1
 2 4 l 1
 4 4 l 1
 4 7 l 1
 2 7 l 1
 2 9 l 1
 4 9 l 1
 4 12 l 1
 2 12 l 1
 2 14 l 1
 4 14 l 1
 4 17 l 1
 6 17 l 1
 6 14 l 1
 9 14 l 1
 9 13.900390625 8.900390625 13.7998046875 8.900390625 13.599609375 c 0
 8.7001953125 13.099609375 8.5 12.599609375 8.400390625 12 c 2
 6 12 l 1
EndSplineSet
EndChar

StartChar: car parking lights
Encoding: 432 57716 189
Width: 24
Flags: HW
LayerCount: 2
Fore
SplineSet
7.2998046875 10.7998046875 m 1
 6.900390625 9.400390625 6.900390625 6.599609375 7.2998046875 5.2001953125 c 1
 8.099609375 5.599609375 9 6.5 9 8 c 0
 9 9.5 8.099609375 10.400390625 7.2998046875 10.7998046875 c 1
6.5 13 m 0
 8.5 13 11 11.099609375 11 8 c 0
 11 4.900390625 8.5 3 6.5 3 c 0
 4.5 3 4.5 13 6.5 13 c 0
16.7001953125 10.7998046875 m 1
 15.900390625 10.400390625 15 9.5 15 8 c 0
 15 6.5 15.900390625 5.599609375 16.7001953125 5.2001953125 c 1
 17 6.599609375 17 9.400390625 16.7001953125 10.7998046875 c 1
17.5 13 m 0
 19.5 13 19.5 3 17.5 3 c 0
 15.5 3 13 4.900390625 13 8 c 0
 13 11.099609375 15.5 13 17.5 13 c 0
4.900390625 13.7998046875 m 1
 4.5 13.400390625 4.2001953125 12.7001953125 4 12 c 1
 1.400390625 13.7001953125 l 1
 2.5 15.400390625 l 1
 4.900390625 13.7998046875 l 1
20 12 m 1
 19.7998046875 12.7998046875 19.400390625 13.400390625 19.099609375 13.7998046875 c 1
 21.5 15.400390625 l 1
 22.599609375 13.7001953125 l 1
 20 12 l 1
4 4 m 1
 4.2001953125 3.2001953125 4.599609375 2.599609375 4.900390625 2.2001953125 c 1
 2.5 0.599609375 l 1
 1.400390625 2.2998046875 l 1
 4 4 l 1
20.5 9 m 1
 24 9 l 1
 24 7 l 1
 20.5 7 l 1
 20.5 7.400390625 20.5 7.7001953125 20.5 8 c 0
 20.5 8.2998046875 20.5 8.7001953125 20.5 9 c 1
19.099609375 2.2001953125 m 1
 19.5 2.599609375 19.7998046875 3.2998046875 20 4 c 1
 22.599609375 2.2998046875 l 1
 21.5 0.599609375 l 1
 19.099609375 2.2001953125 l 1
3.5 8 m 0
 3.5 7.7001953125 3.5 7.2998046875 3.5 7 c 1
 0 7 l 1
 0 9 l 1
 3.5 9 l 1
 3.5 8.599609375 3.5 8.2998046875 3.5 8 c 0
EndSplineSet
EndChar

StartChar: car seat
Encoding: 433 57720 190
Width: 24
Flags: HW
LayerCount: 2
Fore
SplineSet
7 2 m 1
 7 2 4 10 4 14 c 0
 4 18 6 18 6 18 c 1
 7 18 l 1
 7 18 8 18 8 17 c 0
 8 16 7 16 7 14 c 0
 7 12 10 10 10 7 c 0
 10 4 7 2 7 2 c 1
12 3 m 1
 12 2.900390625 l 1
 17 2.900390625 l 2
 18.099609375 2.900390625 19 2 19 0.900390625 c 2
 19 -0.099609375 l 2
 19 -1.2001953125 18.099609375 -2.099609375 17 -2.099609375 c 2
 11 -2.099609375 l 2
 9 -2.099609375 8 -0.2998046875 8 -0.2998046875 c 2
 7.7998046875 0 7.7001953125 0.2998046875 8 0.5 c 2
 8 0.5 11 3 12 3 c 1
EndSplineSet
EndChar

StartChar: car seat heater
Encoding: 434 57721 191
Width: 24
Flags: HW
LayerCount: 2
Fore
SplineSet
5 2 m 1
 5 2 2 10 2 14 c 0
 2 18 4 18 4 18 c 1
 5 18 l 1
 5 18 6 18 6 17 c 0
 6 16 5 16 5 14 c 0
 5 12 8 10 8 7 c 0
 8 4 5 2 5 2 c 1
15 3 m 0
 16.099609375 3 17 2.099609375 17 1 c 2
 17 0 l 2
 17 -1.099609375 16.099609375 -2 15 -2 c 2
 9 -2 l 2
 7 -2 6 -0.2001953125 6 -0.2001953125 c 2
 5.7998046875 0 5.7001953125 0.400390625 6 0.599609375 c 2
 6 0.599609375 9 3.099609375 10 3.099609375 c 2
 15 3.099609375 l 1025
13.7001953125 16.599609375 m 1
 12.2998046875 13.2001953125 l 1
 13.7001953125 9.7998046875 l 1
 11.7001953125 5 l 1
 10 6.400390625 l 1
 11.400390625 9.7998046875 l 1
 10 13.2001953125 l 1
 12 18 l 1
 13.7001953125 16.599609375 l 1
17.900390625 16.599609375 m 1
 16.5 13.2001953125 l 1
 17.900390625 9.7998046875 l 1
 15.900390625 5 l 1
 14.2001953125 6.400390625 l 1
 15.599609375 9.7998046875 l 1
 14.2001953125 13.2001953125 l 1
 16.2001953125 18 l 1
 17.900390625 16.599609375 l 1
22 16.599609375 m 1
 20.599609375 13.2001953125 l 1
 22 9.7998046875 l 1
 20 5 l 1
 18.2998046875 6.400390625 l 1
 19.7001953125 9.7998046875 l 1
 18.2998046875 13.2001953125 l 1
 20.2998046875 18 l 1
 22 16.599609375 l 1025
EndSplineSet
EndChar

StartChar: car seat cooler
Encoding: 435 57722 192
Width: 24
Flags: HW
LayerCount: 2
Fore
SplineSet
20.7998046875 9.7998046875 m 1
 19.400390625 9.400390625 l 1
 18.2001953125 10.099609375 l 1
 18.2001953125 11.7998046875 l 1
 19.400390625 12.5 l 1
 20.7998046875 12.099609375 l 1
 21.099609375 13.2001953125 l 1
 20 13.5 l 1
 20.2998046875 14.599609375 l 1
 19.2001953125 14.900390625 l 1
 18.7998046875 13.5 l 1
 17.599609375 12.7998046875 l 1
 16.099609375 13.7001953125 l 1
 16.099609375 15 l 1
 17.099609375 16 l 1
 16.2998046875 16.7998046875 l 1
 15.5 16 l 1
 14.7001953125 16.7998046875 l 1
 13.900390625 16 l 1
 14.900390625 15 l 1
 14.900390625 13.7001953125 l 1
 13.400390625 12.7998046875 l 1
 12.2001953125 13.5 l 1
 11.900390625 14.900390625 l 1
 10.7998046875 14.599609375 l 1
 11.099609375 13.5 l 1
 10 13.2998046875 l 1
 10.2998046875 12.2001953125 l 1
 11.7001953125 12.599609375 l 1
 12.900390625 11.900390625 l 1
 12.900390625 10.2001953125 l 1
 11.7001953125 9.5 l 1
 10.2998046875 9.900390625 l 1
 10 8.599609375 l 1
 11.099609375 8.2998046875 l 1
 10.7998046875 7.2998046875 l 1
 11.900390625 7 l 1
 12.2998046875 8.400390625 l 1
 13.5 9.099609375 l 1
 15 8.2001953125 l 1
 15 6.900390625 l 1
 14 5.900390625 l 1
 14.7998046875 5.099609375 l 1
 15.599609375 5.900390625 l 1
 16.400390625 5.099609375 l 1
 17.2001953125 5.900390625 l 1
 16.2001953125 6.900390625 l 1
 16.2001953125 8.2001953125 l 1
 17.7001953125 9.099609375 l 1
 18.900390625 8.400390625 l 1
 19.2998046875 7 l 1
 20.400390625 7.2998046875 l 1
 20 8.400390625 l 1
 21.099609375 8.7001953125 l 1
 20.7998046875 9.7998046875 l 1
14 11.7998046875 m 1
 15.5 12.7001953125 l 1
 17 11.7998046875 l 1
 17 10.099609375 l 1
 15.5 9.2001953125 l 1
 14 10.099609375 l 1
 14 11.7998046875 l 1
5 2 m 1
 5 2 2 10 2 14 c 0
 2 18 4 18 4 18 c 1
 5 18 l 1
 5 18 6 18 6 17 c 0
 6 16 5 16 5 14 c 0
 5 12 8 10 8 7 c 0
 8 4 5 2 5 2 c 1
15 3 m 1
 16.099609375 3 17 2.099609375 17 1 c 2
 17 0 l 2
 17 -1.099609375 16.099609375 -2 15 -2 c 2
 9 -2 l 2
 7 -2 6 -0.2001953125 6 -0.2001953125 c 2
 5.7998046875 0 5.7001953125 0.400390625 6 0.599609375 c 2
 6 0.599609375 9 3.099609375 10 3.099609375 c 2
 15 3.099609375 l 1
 15 3 l 1
EndSplineSet
EndChar

StartChar: car door
Encoding: 436 57726 193
Width: 24
Flags: HW
LayerCount: 2
Fore
SplineSet
19 6 m 1
 16 6 l 1
 16 4 l 1
 19 4 l 1
 19 6 l 1
22 -1 m 1
 3 -1 l 1
 3 9 l 1
 11 17 l 1
 21 17 l 2
 21.5517578125 17 22 16.5517578125 22 16 c 2
 22 -1 l 1
11.830078125 15 m 1
 5.830078125 9 l 1
 20 9 l 1
 20 15 l 1
 11.830078125 15 l 1
EndSplineSet
EndChar

StartChar: car door lock
Encoding: 437 57727 194
Width: 24
Flags: HW
LayerCount: 2
Fore
SplineSet
7.7998046875 3 m 1
 8.400390625 3 9 2.400390625 9 1.7001953125 c 2
 9 -1.7998046875 l 2
 9 -2.400390625 8.400390625 -3 7.7001953125 -3 c 2
 2.2001953125 -3 l 2
 1.599609375 -3 1 -2.400390625 1 -1.7001953125 c 2
 1 1.7998046875 l 2
 1 2.400390625 1.599609375 3 2.2001953125 3 c 1
 2.2001953125 4.5 l 2
 2.2001953125 5.900390625 3.599609375 7 5 7 c 0
 6.400390625 7 7.7998046875 5.900390625 7.7998046875 4.5 c 2
 7.7998046875 3 l 1
6.5 3 m 1
 3.5 3 l 1
 3.5 4.5 l 2
 3.5 5.2998046875 4.2001953125 5.7998046875 5 5.7998046875 c 0
 5.7998046875 5.7998046875 6.5 5.2998046875 6.5 4.5 c 2
 6.5 3 l 1
21 17 m 2
 21.5498046875 17 22 16.5498046875 22 16 c 2
 22 -1 l 1
 11 -1 l 1
 11 1.7001953125 l 2
 11 2.7197265625 10.5302734375 3.6396484375 9.7998046875 4.25 c 2
 9.7998046875 4.5 l 2
 9.7998046875 6.9404296875 7.599609375 9 5 9 c 0
 4.2900390625 9 3.6103515625 8.830078125 3 8.5595703125 c 1
 3 9 l 1
 11 17 l 1
 21 17 l 2
19 4 m 1
 19 6 l 1
 16 6 l 1
 16 4 l 1
 19 4 l 1
20 9 m 1
 20 15 l 1
 11.830078125 15 l 1
 5.830078125 9 l 1
 20 9 l 1
EndSplineSet
EndChar

StartChar: car battery
Encoding: 438 57704 195
Width: 24
Flags: HW
LayerCount: 2
Fore
SplineSet
4 17 m 1
 10 17 l 1
 10 14 l 1
 14 14 l 1
 14 17 l 1
 20 17 l 1
 20 14 l 1
 23 14 l 1
 23 0 l 1
 1 0 l 1
 1 14 l 1
 4 14 l 1
 4 17 l 1
3 12 m 1
 3 2 l 1
 21 2 l 1
 21 12 l 1
 3 12 l 1
15 10 m 1
 17 10 l 1
 17 8 l 1
 19 8 l 1
 19 6 l 1
 17 6 l 1
 17 4 l 1
 15 4 l 1
 15 6 l 1
 13 6 l 1
 13 8 l 1
 15 8 l 1
 15 10 l 1
5 8 m 1
 11 8 l 1
 11 6 l 1
 5 6 l 1
 5 8 l 1
EndSplineSet
EndChar

StartChar: satellite alert 01
Encoding: 439 57477 196
Width: 24
Flags: HW
LayerCount: 2
Fore
SplineSet
11.599609375 19 m 1
 17.2998046875 13.2998046875 l 1
 15.2001953125 11.2001953125 l 1
 13 13.2998046875 l 1
 11.599609375 11.900390625 l 1
 13.900390625 9.599609375 l 1
 12.7001953125 8.400390625 l 1
 13.099609375 7.900390625 l 2
 14 8.2998046875 15.2001953125 8.2001953125 15.900390625 7.400390625 c 2
 12.400390625 3.900390625 l 1
 11.599609375 4.7001953125 11.5 5.7998046875 11.900390625 6.7001953125 c 2
 11.400390625 7.099609375 l 1
 10.2001953125 5.900390625 l 1
 7.900390625 8.2001953125 l 1
 6.7001953125 7 l 1
 8.7998046875 4.900390625 l 1
 6.7001953125 2.7998046875 l 1
 1 8.400390625 l 1
 3.099609375 10.5 l 1
 5.2001953125 8.400390625 l 1
 6.599609375 9.7998046875 l 1
 3.7998046875 12.599609375 l 2
 3 13.400390625 3 14.7001953125 3.7998046875 15.400390625 c 2
 4.5 16.099609375 l 2
 5.2998046875 16.900390625 6.5 16.900390625 7.2998046875 16.099609375 c 2
 10.099609375 13.2998046875 l 1
 11.5 14.7001953125 l 1
 9.5 16.900390625 l 1
 11.599609375 19 l 1
21 10 m 1
 19 10 l 1
 19 4 l 1
 21 4 l 1
 21 10 l 1
21 2 m 1
 21 0 l 1
 19 0 l 1
 19 2 l 1
 21 2 l 1
EndSplineSet
EndChar

StartChar: satellite off
Encoding: 440 57478 197
Width: 24
Flags: HW
LayerCount: 2
Fore
SplineSet
16.2998046875 7.7001953125 m 1
 15.400390625 8.599609375 14.400390625 8.7001953125 13.5 8.2998046875 c 1
 15.2001953125 6.599609375 l 1
 16.2998046875 7.7001953125 l 1
15.400390625 11.5 m 1
 13.2001953125 13.599609375 l 1
 11.900390625 12.2001953125 l 1
 14.2001953125 9.900390625 l 1
 13 8.7001953125 l 1
 5 16.7001953125 l 1
 5.7998046875 17.2001953125 6.900390625 17.2001953125 7.599609375 16.5 c 2
 10.400390625 13.7001953125 l 1
 11.7998046875 15.099609375 l 1
 9.7001953125 17.2001953125 l 1
 11.7998046875 19.2998046875 l 1
 17.5 13.599609375 l 1
 15.400390625 11.5 l 1
1.7001953125 18.2998046875 m 1
 19.900390625 0.2001953125 l 1
 18.7001953125 -1 l 1
 13.2001953125 4.5 l 1
 12 3.2998046875 l 2
 11.2001953125 4 11.099609375 5.2001953125 11.5 6.099609375 c 2
 11 6.599609375 l 1
 9.900390625 5.5 l 1
 7.599609375 7.7998046875 l 1
 6.2001953125 6.400390625 l 1
 8.2998046875 4.2001953125 l 1
 6.2001953125 2.099609375 l 1
 0.5 7.7998046875 l 1
 2.7001953125 10 l 1
 4.7998046875 7.900390625 l 1
 6.2001953125 9.2998046875 l 1
 3.400390625 12.099609375 l 2
 2.7001953125 12.7998046875 2.599609375 13.7998046875 3.099609375 14.599609375 c 2
 0.599609375 17.099609375 l 1
 1.7001953125 18.2998046875 l 1
EndSplineSet
EndChar

StartChar: satellite sync
Encoding: 441 57479 198
Width: 24
Flags: HW
LayerCount: 2
Fore
SplineSet
11.599609375 19 m 1
 17.2998046875 13.2998046875 l 1
 15.2001953125 11.2001953125 l 1
 13 13.2998046875 l 1
 11.599609375 11.900390625 l 1
 13.900390625 9.599609375 l 1
 12.7001953125 8.400390625 l 1
 13.099609375 7.900390625 l 2
 14 8.2998046875 15.2001953125 8.2001953125 15.900390625 7.400390625 c 2
 12.400390625 3.900390625 l 1
 11.599609375 4.7001953125 11.5 5.7998046875 11.900390625 6.7001953125 c 2
 11.400390625 7.099609375 l 1
 10.2001953125 5.900390625 l 1
 7.900390625 8.2001953125 l 1
 6.7001953125 7 l 1
 8.7998046875 4.900390625 l 1
 6.7001953125 2.7998046875 l 1
 1 8.400390625 l 1
 3.099609375 10.5 l 1
 5.2001953125 8.400390625 l 1
 6.599609375 9.7998046875 l 1
 3.7998046875 12.599609375 l 2
 3 13.400390625 3 14.7001953125 3.7998046875 15.400390625 c 2
 4.5 16.099609375 l 2
 5.2998046875 16.900390625 6.5 16.900390625 7.2998046875 16.099609375 c 2
 10.099609375 13.2998046875 l 1
 11.5 14.7001953125 l 1
 9.5 16.900390625 l 1
 11.599609375 19 l 1
18.5 -1.900390625 m 2
 15.900390625 -1.7001953125 14.5 1.599609375 16.099609375 3.599609375 c 1
 17.099609375 2.599609375 l 2
 16.2998046875 1.400390625 17.099609375 -0.400390625 18.5 -0.599609375 c 1
 18.5 1 l 1
 20.7998046875 -1.2998046875 l 1
 18.5 -3.599609375 l 1
 18.5 -1.900390625 l 2
20.5 0.400390625 m 2
 21.2998046875 1.599609375 20.5 3.400390625 19.099609375 3.599609375 c 1
 19.099609375 2 l 1
 16.7998046875 4.2998046875 l 1
 19.099609375 6.599609375 l 1
 19.099609375 5 l 2
 21.7001953125 4.7998046875 23.099609375 1.5 21.5 -0.5 c 1
 20.5 0.400390625 l 2
EndSplineSet
EndChar

StartChar: sports car icon
Encoding: 442 57708 199
Width: 24
Flags: HW
LayerCount: 2
Fore
SplineSet
19.2001953125 8.7001953125 m 1
 20.2998046875 8.7001953125 21.2001953125 7.7998046875 21.2001953125 6.7001953125 c 0
 21.2001953125 5.599609375 20.2998046875 4.7001953125 19.2001953125 4.7001953125 c 0
 18.099609375 4.7001953125 17.2001953125 5.599609375 17.2001953125 6.7001953125 c 0
 17.2001953125 7.7998046875 18.099609375 8.7001953125 19.2001953125 8.7001953125 c 1
 19.2001953125 8.7001953125 l 1
15.2998046875 10.400390625 m 1
 15.2001953125 10.2001953125 15.099609375 9.900390625 15 9.599609375 c 0
 14.7998046875 9.099609375 15.099609375 9 15.599609375 9.2001953125 c 0
 16 9.400390625 16.400390625 9.7001953125 16.7998046875 9.900390625 c 0
 17 10 17.099609375 10.2001953125 17.099609375 10.2998046875 c 0
 17 10.599609375 16.5 10.7001953125 16.099609375 10.7998046875 c 0
 15.599609375 10.900390625 15.599609375 10.900390625 15.2998046875 10.400390625 c 1
 15.2998046875 10.400390625 l 1
4.900390625 7.7001953125 m 1
 5.400390625 7.7001953125 5.7998046875 7.2998046875 5.7998046875 6.7998046875 c 0
 5.7998046875 6.2998046875 5.400390625 5.900390625 4.900390625 5.900390625 c 0
 4.400390625 5.900390625 4 6.2998046875 4 6.7998046875 c 0
 4 7.2998046875 4.400390625 7.7001953125 4.900390625 7.7001953125 c 1
 4.900390625 7.7001953125 l 1
19.2001953125 7.7001953125 m 1
 19.7001953125 7.7001953125 20.099609375 7.2998046875 20.099609375 6.7998046875 c 0
 20.099609375 6.2998046875 19.7001953125 5.900390625 19.2001953125 5.900390625 c 0
 18.7001953125 5.900390625 18.2998046875 6.2998046875 18.2998046875 6.7998046875 c 0
 18.2998046875 7.2998046875 18.7001953125 7.7001953125 19.2001953125 7.7001953125 c 1
 19.2001953125 7.7001953125 l 1
9.099609375 9 m 1
 9.599609375 9.599609375 10.2001953125 9.900390625 10.900390625 10.2998046875 c 0
 12.5 11 13.400390625 10.900390625 15 10.900390625 c 1
 14.5 9.5 l 2
 14.2998046875 9.2001953125 14 9 13.599609375 9 c 2
 9.099609375 9 l 1
 9.099609375 9 l 1
4.900390625 8.7001953125 m 1
 6 8.7001953125 6.900390625 7.7998046875 6.900390625 6.7001953125 c 0
 6.900390625 5.599609375 6 4.7001953125 4.900390625 4.7001953125 c 0
 3.7998046875 4.7001953125 2.900390625 5.599609375 2.900390625 6.7001953125 c 0
 2.7998046875 7.7998046875 3.7998046875 8.7001953125 4.900390625 8.7001953125 c 1
 4.900390625 8.7001953125 l 1
8.099609375 9.400390625 m 1
 8.7998046875 9.7998046875 9.5 10.2001953125 10.2998046875 10.5 c 0
 12.7001953125 11.5 14.599609375 11.599609375 17.2001953125 10.900390625 c 0
 18 10.599609375 18.7001953125 10.2998046875 19.5 10.099609375 c 0
 20.2998046875 9.900390625 23.599609375 9.7001953125 23.7001953125 9.2001953125 c 2
 22.900390625 8.2001953125 l 2
 23.2001953125 7.900390625 23.400390625 7.599609375 23.5 7.099609375 c 0
 23.5 6.7998046875 23.400390625 6.5 23.2001953125 6.2998046875 c 0
 23 5.900390625 22.2001953125 5.599609375 21.900390625 5.7998046875 c 0
 21.7998046875 5.900390625 21.7001953125 6 21.7001953125 6.2001953125 c 0
 21.7001953125 10.7001953125 16.2001953125 10.2001953125 16.7001953125 5.7001953125 c 1
 7.099609375 5.7001953125 l 1
 8.900390625 10.2998046875 1.2998046875 10.2998046875 2.7001953125 5.900390625 c 0
 2.2001953125 5.400390625 1.099609375 6.2001953125 0.400390625 7.7998046875 c 0
 0.599609375 8 0.7998046875 8.099609375 1 8.2998046875 c 1
 1 8.2998046875 1 8.2998046875 1 8.2998046875 c 1
 1 8.400390625 1.099609375 8.7001953125 1.400390625 8.7998046875 c 0
 2.7998046875 9.7001953125 6.400390625 9.7001953125 8.099609375 9.400390625 c 1
 8.099609375 9.400390625 l 1
EndSplineSet
EndChar

StartChar: token
Encoding: 443 57372 200
Width: 24
Flags: HW
LayerCount: 2
Fore
SplineSet
12 -2 m 1
 3 3.099609375 l 1
 3 13.099609375 l 1
 12 18 l 1
 21 13.099609375 l 1
 21 3.099609375 l 1
 12 -2 l 1
9.099609375 10.400390625 m 2
 9.5 10.7998046875 9.900390625 11.099609375 10.400390625 11.2998046875 c 0
 10.900390625 11.5 11.400390625 11.7001953125 11.900390625 11.7001953125 c 0
 12.400390625 11.7001953125 12.900390625 11.599609375 13.400390625 11.2998046875 c 0
 13.900390625 11 14.2998046875 10.7001953125 14.7001953125 10.400390625 c 2
 18.5 12.599609375 l 1
 12 16.2001953125 l 1
 5.2998046875 12.7001953125 l 1
 9.099609375 10.400390625 l 2
11.2001953125 0.099609375 m 1
 11.2001953125 4.2998046875 l 2
 10.2998046875 4.5 9.599609375 5 9.099609375 5.7001953125 c 0
 8.5 6.400390625 8.2001953125 7.099609375 8.2001953125 8 c 0
 8.2001953125 8.2001953125 8.2001953125 8.400390625 8.2001953125 8.599609375 c 0
 8.2001953125 8.7998046875 8.2998046875 9 8.2998046875 9.2001953125 c 2
 4.5 11.400390625 l 1
 4.5 4 l 1
 11.2001953125 0.099609375 l 1
12 5.7998046875 m 0
 12.599609375 5.7998046875 13.2001953125 6 13.599609375 6.400390625 c 0
 14 6.7998046875 14.2001953125 7.400390625 14.2001953125 8 c 0
 14.2001953125 8.599609375 14 9.2001953125 13.599609375 9.599609375 c 0
 13.2001953125 10 12.599609375 10.2001953125 12 10.2001953125 c 0
 11.400390625 10.2001953125 10.7998046875 10 10.400390625 9.599609375 c 0
 10 9.2001953125 9.7998046875 8.599609375 9.7998046875 8 c 0
 9.7998046875 7.400390625 10 6.7998046875 10.400390625 6.400390625 c 0
 10.7998046875 6 11.400390625 5.7998046875 12 5.7998046875 c 0
12.7998046875 0.099609375 m 1
 19.599609375 4 l 1
 19.599609375 11.400390625 l 1
 15.7001953125 9.099609375 l 2
 15.7998046875 8.900390625 15.7998046875 8.7001953125 15.7998046875 8.5 c 0
 15.7998046875 8.2998046875 15.7998046875 8.099609375 15.7998046875 7.900390625 c 0
 15.7998046875 7 15.5 6.2001953125 14.900390625 5.599609375 c 0
 14.2998046875 4.900390625 13.599609375 4.5 12.7998046875 4.2001953125 c 2
 12.7998046875 0.099609375 l 1
EndSplineSet
EndChar

StartChar: settings suggest
Encoding: 444 57373 201
Width: 24
Flags: HW
LayerCount: 2
Fore
SplineSet
19.5 11.099609375 m 1
 18.400390625 13.400390625 l 1
 16 14.599609375 l 1
 18.400390625 15.7001953125 l 1
 19.5 18 l 1
 20.599609375 15.7001953125 l 1
 23 14.599609375 l 1
 20.599609375 13.5 l 1
 19.5 11.099609375 l 1
21.599609375 3.900390625 m 1
 20.7998046875 5.5 l 1
 19.2001953125 6.2998046875 l 1
 20.7998046875 7.099609375 l 1
 21.599609375 8.7001953125 l 1
 22.400390625 7.099609375 l 1
 24 6.2998046875 l 1
 22.400390625 5.5 l 1
 21.599609375 3.900390625 l 1
8.5 -2 m 1
 8.2998046875 0.2998046875 l 2
 8.099609375 0.2998046875 7.7998046875 0.400390625 7.599609375 0.5 c 0
 7.400390625 0.599609375 7.099609375 0.7998046875 7 0.900390625 c 2
 5 0.099609375 l 1
 2.7998046875 3.7001953125 l 1
 4.599609375 5 l 2
 4.5 5.2998046875 4.5 5.5 4.5 5.7998046875 c 0
 4.5 6.099609375 4.5 6.2998046875 4.599609375 6.599609375 c 2
 2.7001953125 7.7998046875 l 1
 4.900390625 11.400390625 l 1
 6.7998046875 10.599609375 l 2
 7 10.7998046875 7.2001953125 10.900390625 7.5 11 c 0
 7.7998046875 11.099609375 8 11.099609375 8.2998046875 11.099609375 c 2
 8.5 13.400390625 l 1
 12.7001953125 13.400390625 l 1
 13 11.099609375 l 2
 13.2001953125 11.099609375 13.5 11 13.7001953125 10.900390625 c 0
 13.900390625 10.7998046875 14.2001953125 10.599609375 14.2998046875 10.5 c 2
 16.2998046875 11.2998046875 l 1
 18.5 7.7001953125 l 1
 16.599609375 6.5 l 2
 16.7001953125 6.2001953125 16.7001953125 6 16.7001953125 5.7001953125 c 0
 16.7001953125 5.400390625 16.7001953125 5.2001953125 16.599609375 4.900390625 c 2
 18.5 3.7001953125 l 1
 16.2998046875 0.099609375 l 1
 14.2998046875 0.900390625 l 2
 14.099609375 0.7001953125 13.900390625 0.599609375 13.7001953125 0.5 c 0
 13.400390625 0.400390625 13.2001953125 0.2998046875 13 0.2998046875 c 2
 12.7001953125 -2 l 1
 8.5 -2 l 1
10.599609375 2.900390625 m 0
 11.400390625 2.900390625 12.099609375 3.2001953125 12.7001953125 3.7001953125 c 0
 13.2001953125 4.2001953125 13.5 4.900390625 13.5 5.7998046875 c 0
 13.5 6.599609375 13.2001953125 7.2998046875 12.7001953125 7.900390625 c 0
 12.2001953125 8.400390625 11.5 8.7001953125 10.599609375 8.7001953125 c 0
 9.7998046875 8.7001953125 9.099609375 8.400390625 8.5 7.900390625 c 0
 8 7.400390625 7.7001953125 6.7001953125 7.7001953125 5.7998046875 c 0
 7.7001953125 5 8 4.2998046875 8.5 3.7001953125 c 0
 9.099609375 3.099609375 9.7998046875 2.900390625 10.599609375 2.900390625 c 0
10.599609375 4.400390625 m 0
 10.2001953125 4.400390625 9.900390625 4.5 9.599609375 4.7998046875 c 0
 9.2998046875 5.099609375 9.2001953125 5.400390625 9.2001953125 5.7998046875 c 0
 9.2001953125 6.2001953125 9.2998046875 6.5 9.599609375 6.7998046875 c 0
 9.900390625 7.099609375 10.2001953125 7.2001953125 10.599609375 7.2001953125 c 0
 11 7.2001953125 11.2998046875 7.099609375 11.599609375 6.7998046875 c 0
 11.900390625 6.5 12 6.2001953125 12 5.7998046875 c 0
 12 5.400390625 11.900390625 5.099609375 11.599609375 4.7998046875 c 0
 11.2998046875 4.5 11 4.400390625 10.599609375 4.400390625 c 0
9.7998046875 -0.5 m 1
 11.5 -0.5 l 1
 11.7001953125 1.400390625 l 2
 12.2001953125 1.5 12.599609375 1.7001953125 13 1.900390625 c 0
 13.400390625 2.099609375 13.7998046875 2.400390625 14.099609375 2.7998046875 c 2
 15.7001953125 2.099609375 l 1
 16.5 3.400390625 l 1
 15 4.400390625 l 2
 15.2001953125 4.7998046875 15.2998046875 5.2001953125 15.2998046875 5.7001953125 c 0
 15.2998046875 6.099609375 15.2001953125 6.599609375 15 7 c 2
 16.599609375 8.099609375 l 1
 15.7998046875 9.400390625 l 1
 14.2001953125 8.7001953125 l 2
 13.900390625 9 13.5 9.2998046875 13.099609375 9.599609375 c 0
 12.7001953125 9.7998046875 12.2998046875 10 11.7998046875 10.099609375 c 2
 11.599609375 12 l 1
 9.7998046875 12 l 1
 9.599609375 10.099609375 l 2
 9.099609375 10 8.7001953125 9.7998046875 8.2998046875 9.599609375 c 0
 7.900390625 9.400390625 7.5 9.099609375 7.2001953125 8.7001953125 c 2
 5.599609375 9.400390625 l 1
 4.7998046875 8.099609375 l 1
 6.2001953125 7 l 2
 6.099609375 6.599609375 6 6.2001953125 6 5.7001953125 c 0
 6 5.2001953125 6.099609375 4.7998046875 6.2998046875 4.400390625 c 2
 4.7001953125 3.2998046875 l 1
 5.5 2 l 1
 7.099609375 2.7001953125 l 2
 7.400390625 2.2998046875 7.7998046875 2.099609375 8.2001953125 1.7998046875 c 0
 8.599609375 1.599609375 9 1.400390625 9.5 1.2998046875 c 2
 9.7998046875 -0.5 l 1
EndSplineSet
EndChar
